<svg xmlns="http://www.w3.org/2000/svg" width="91.171" height="94.28" viewBox="0 0 91.171 94.28">
  <g id="Grupo_1101844" data-name="Grupo 1101844" transform="translate(0 0)">
    <g id="Elipse_11720" data-name="Elipse 11720" transform="translate(0 0)" fill="#fff" stroke="#d7f38d" stroke-width="5">
      <ellipse cx="45.586" cy="47.14" rx="45.586" ry="47.14" stroke="none"/>
      <ellipse cx="45.586" cy="47.14" rx="43.086" ry="44.64" fill="none"/>
    </g>
    <g id="Grupo_1101770" data-name="Grupo 1101770" transform="translate(25.288 11.254)">
      <ellipse id="Elipse_11721" data-name="Elipse 11721" cx="20.115" cy="1.795" rx="20.115" ry="1.795" transform="translate(0.184 68.183)" fill="#f2f2f2"/>
      <g id="Grupo_1101769" data-name="Grupo 1101769" transform="translate(0 0)">
        <path id="Trazado_880973" data-name="Trazado 880973" d="M250.051,108.1c-.032.135-.066.269-.1.4-4.356,17.042-20.2,31.19-20.2,46.023,0,7.6,4.972,14.132,12.1,17.019a21.822,21.822,0,0,0,8.2,1.58c11.211,0,20.3-8.327,20.3-18.6C270.35,139.629,254.259,125.327,250.051,108.1Z" transform="translate(-229.753 -108.105)" fill="#e50000"/>
        <path id="Trazado_880974" data-name="Trazado 880974" d="M250.051,108.1c-.032.135-.066.269-.1.4-4.356,17.042-20.2,31.19-20.2,46.023,0,7.6,4.972,14.132,12.1,17.019a22.077,22.077,0,0,0,4.688.5c11.211,0,20.3-8.327,20.3-18.6C266.838,138.549,252.527,125.574,250.051,108.1Z" transform="translate(-229.753 -108.105)" fill="red"/>
        <path id="Trazado_880975" data-name="Trazado 880975" d="M271.982,175.1c-.731,2.152-1.642,4.237-2.578,6.3-2.022,4.463-4.2,8.866-5.819,13.5-1.541,4.415-2.624,9.128-2.112,13.828a19.788,19.788,0,0,0,.605,3.136,3.945,3.945,0,0,1,.194.991,2.5,2.5,0,0,1-4.534,1.514,5.193,5.193,0,0,1-.648-2.439,24.086,24.086,0,0,1-.181-3.257,29.1,29.1,0,0,1,.948-6.889,55.1,55.1,0,0,1,5.834-13.4c2.3-4.047,4.9-7.94,7.012-12.089a22.808,22.808,0,0,0,2.456-6.907A20.38,20.38,0,0,1,271.982,175.1Z" transform="translate(-253.669 -162.086)" fill="#ffb9b9"/>
      </g>
    </g>
  </g>
</svg>
