<svg id="Grupo_1102004" data-name="Grupo 1102004" xmlns="http://www.w3.org/2000/svg" xmlns:xlink="http://www.w3.org/1999/xlink" width="122.932" height="122.932" viewBox="0 0 122.932 122.932">
  <defs>
    <clipPath id="clip-path">
      <rect id="Rect치ngulo_403527" data-name="Rect치ngulo 403527" width="122.932" height="122.932" fill="none"/>
    </clipPath>
  </defs>
  <g id="Grupo_1101867" data-name="Grupo 1101867">
    <g id="Grupo_1101865" data-name="Grupo 1101865">
      <g id="Grupo_1101864" data-name="Grupo 1101864" clip-path="url(#clip-path)">
        <rect id="Rect치ngulo_403526" data-name="Rect치ngulo 403526" width="122.932" height="122.932" fill="#b1fafc"/>
        <g id="Grupo_1101861" data-name="Grupo 1101861" transform="translate(57.924 47.948)">
          <path id="Trazado_881207" data-name="Trazado 881207" d="M139.564,116.61c-1.278-8.257,6.4-7.865,9.681-3.018.8,1.176,2.8,4.581,5.125,8.6l.071-.043c-3.36-7.03-8.462-18.414-8.546-22.913-.157-8.356,7.4-6.936,10-1.691,1.153,2.321,5.3,12.529,8.373,20.185-1.716-7.289-4.719-21.273-3.737-26.057,1.679-8.185,8.739-5.143,10.127.546.636,2.6,2.547,14.153,3.878,22.373.179-7.613.738-17.354,2.384-20.867,3.546-7.564,9.7-2.957,9.718,2.9.014,3.615-1.522,23.592-1.989,29.59,3.764-4.342,11.04-11.8,15.376-10.166,4.678,1.756,3.058,7.266.66,11.651s-16.67,22.078-16.67,22.078l8.346,37.568L168.242,192.7,159.9,155.131c-1.127-2.252-2.115-4.348-2.991-6.313h0S140.591,123.254,139.564,116.61Z" transform="translate(-139.422 -86.656)" fill="#f9bf98"/>
          <path id="Trazado_881208" data-name="Trazado 881208" d="M153.913,124.174a.677.677,0,0,0,.518-.522c2.684-12.715,12.574-12.03,12.994-11.994l.306.026,4.218-4.061a.679.679,0,0,0-.943-.978l-3.788,3.647c-1.889-.024-11.458.487-14.117,13.08a.679.679,0,0,0,.524.805A.641.641,0,0,0,153.913,124.174Z" transform="translate(-126.251 -67.578)" fill="#e09a69"/>
          <path id="Trazado_881209" data-name="Trazado 881209" d="M146.217,111.654a.678.678,0,0,0,.271-.13c12.8-10.043,25.815-9.748,25.945-9.744a.68.68,0,0,0,.045-1.359c-.55-.018-13.618-.33-26.829,10.033a.681.681,0,0,0,.568,1.2Z" transform="translate(-133.67 -73.395)" fill="#e09a69"/>
        </g>
        <g id="Grupo_1101862" data-name="Grupo 1101862" transform="translate(-13.131 40.321)">
          <path id="Trazado_881210" data-name="Trazado 881210" d="M180.576,124.891c4.581-6.987-2.569-9.809-7.564-6.755-1.212.742-4.446,3.01-8.222,5.7l-.047-.069c5.968-5.008,15.323-13.259,17.263-17.32,3.6-7.541-3.865-9.375-8.4-5.677-2.009,1.636-10.007,9.212-15.977,14.909,4.579-5.927,13.1-17.412,14.186-22.174,1.86-8.146-5.826-8.3-9.444-3.694-1.657,2.107-8.177,11.83-12.792,18.76,2.989-7,6.512-16.1,6.467-19.981-.1-8.354-7.6-6.706-10.046-1.384-1.508,3.285-8.379,22.106-10.435,27.759-1.63-5.51-5.169-15.307-9.789-15.62-4.984-.336-5.791,5.349-5.424,10.331s6.037,27,6.037,27l-23.147,30.744,19.737,14.86,23.147-30.744c1.958-1.583,3.723-3.081,5.334-4.509l0,0S176.89,130.513,180.576,124.891Z" transform="translate(-103.238 -82.773)" fill="#f9bf98"/>
          <path id="Trazado_881211" data-name="Trazado 881211" d="M128.967,122.285a.673.673,0,0,1-.255-.689c2.82-12.688-6.467-16.156-6.863-16.3l-.291-.1L119.4,99.753a.68.68,0,0,1,1.265-.5l1.936,4.89c1.732.76,10.231,5.186,7.437,17.75a.68.68,0,0,1-.809.516A.7.7,0,0,1,128.967,122.285Z" transform="translate(-87.709 -67.306)" fill="#e09a69"/>
          <path id="Trazado_881212" data-name="Trazado 881212" d="M145.031,115.832a.675.675,0,0,1-.194-.23c-7.494-14.439-19.465-19.559-19.584-19.608a.68.68,0,0,1,.522-1.255c.509.21,12.534,5.335,20.27,20.238a.68.68,0,0,1-1.013.854Z" transform="translate(-82.424 -71.291)" fill="#e09a69"/>
        </g>
        <g id="Grupo_1101863" data-name="Grupo 1101863" transform="translate(20.991 0)">
          <path id="Trazado_881213" data-name="Trazado 881213" d="M155.665,62.24h12.642v50.2c0,7.268,3.7,20.069,9.251,19.586s18.809,4.866,15.417,9.988-7.71,3.582-11.1,6.663-3.7,9.428-10.484,9.493-10.473-8.083-17.261-6.63-15.3,10.92-22.514,6.63.925-13.192,5.858-17.511-8.324-.082-10.791-4.666,5.858-8.283,14.49-9.518,14.492-3.083,14.492-17.267Z" transform="translate(-115.19 -62.24)" fill="#7ccbdd"/>
          <path id="Trazado_881214" data-name="Trazado 881214" d="M144.6,96.3s-15.688.634-16.175-4.954S140.36,87.157,144.6,96.3Z" transform="translate(-113.102 -37.378)" fill="#7ccbdd"/>
          <path id="Trazado_881215" data-name="Trazado 881215" d="M153.043,101.4s2.1-9.728,6.467-12.637,1.066,6.317,1.066,6.317,6.985-8.346,10.541-2.351S160.535,101.439,153.043,101.4Z" transform="translate(-89.361 -37.227)" fill="#7ccbdd"/>
          <path id="Trazado_881216" data-name="Trazado 881216" d="M134.721,103.395s-14.581-3.7-14.1,2.618S129.131,110.254,134.721,103.395Z" transform="translate(-120.614 -23.616)" fill="#7ccbdd"/>
          <path id="Trazado_881217" data-name="Trazado 881217" d="M150.483,96.591s-1.021-17.255,6.641-18.471S158.535,92.216,150.483,96.591Z" transform="translate(-91.872 -47.001)" fill="#7ccbdd"/>
        </g>
      </g>
    </g>
  </g>
</svg>
