<svg id="Grupo_1102002" data-name="Grupo 1102002" xmlns="http://www.w3.org/2000/svg" xmlns:xlink="http://www.w3.org/1999/xlink" width="122.932" height="122.932" viewBox="0 0 122.932 122.932">
  <defs>
    <clipPath id="clip-path">
      <rect id="Rect치ngulo_403539" data-name="Rect치ngulo 403539" width="122.932" height="122.932" fill="none"/>
    </clipPath>
  </defs>
  <g id="Grupo_1101889" data-name="Grupo 1101889">
    <g id="Grupo_1101887" data-name="Grupo 1101887">
      <g id="Grupo_1101886" data-name="Grupo 1101886" clip-path="url(#clip-path)">
        <rect id="Rect치ngulo_403538" data-name="Rect치ngulo 403538" width="122.932" height="122.932" fill="#b1fafc"/>
        <g id="Grupo_1101884" data-name="Grupo 1101884" transform="translate(2.817 13.893)">
          <g id="Grupo_1101883" data-name="Grupo 1101883">
            <path id="Trazado_881235" data-name="Trazado 881235" d="M342.3,106.791c3.24-8.193-4.746-9.581-9.253-5.361-1.094,1.023-3.951,4.057-7.274,7.647l-.065-.061c5.1-6.447,13-16.965,14.133-21.574,2.109-8.554-5.991-8.856-9.891-4.069-1.724,2.119-8.367,11.649-13.316,18.807,3.464-7.1,9.813-20.776,9.919-25.927.181-8.807-7.788-7.327-10.541-1.8-1.263,2.531-5.921,13.962-9.208,22.106,1.593-7.871,3.289-18.019,2.415-22.015-1.883-8.607-9.284-5.3-10.671.713-.856,3.717-3.935,24.619-4.852,30.9-2.859-5.343-8.6-14.7-13.442-14.041-5.222.717-4.841,6.759-3.4,11.828s11.995,26.593,11.995,26.593l-26.534,54.605,23.8,10.117,26.289-53.588c1.683-2.054,3.189-3.979,4.546-5.795h0S339.695,113.383,342.3,106.791Z" transform="translate(-262.318 -69.315)" fill="#f9bf98"/>
            <path id="Trazado_881236" data-name="Trazado 881236" d="M292.737,110.048a.719.719,0,0,1-.41-.66c.2-13.7-10.125-15.3-10.565-15.364l-.322-.045-3.389-5.161a.716.716,0,1,1,1.2-.785l3.044,4.634c1.95.414,11.67,3.171,11.468,16.743a.717.717,0,0,1-.727.707A.746.746,0,0,1,292.737,110.048Z" transform="translate(-247.27 -51.589)" fill="#e09a69"/>
            <path id="Trazado_881237" data-name="Trazado 881237" d="M307.952,99.956a.723.723,0,0,1-.249-.2c-10.822-13.314-24.276-16.046-24.409-16.071a.717.717,0,0,1,.271-1.408c.57.11,14.084,2.836,25.252,16.576a.717.717,0,0,1-.864,1.1Z" transform="translate(-242.663 -56.832)" fill="#e09a69"/>
          </g>
          <path id="Trazado_881238" data-name="Trazado 881238" d="M333.048,101.43c-1.053.986-3.739,3.831-6.9,7.242l-.092-.1c5.1-6.474,12.676-16.627,13.787-21.134,2.109-8.554-5.991-8.856-9.891-4.069-1.642,2.019-7.745,10.757-12.6,17.768l-.161-.108c3.545-7.337,9.261-19.895,9.363-24.78.181-8.807-7.788-7.327-10.541-1.8-1.227,2.463-5.671,13.349-8.937,21.436l-.128-.045c1.547-7.761,3.12-17.424,2.272-21.3-1.883-8.607-9.284-5.3-10.671.713-.827,3.588-3.725,23.2-4.75,30.192a.712.712,0,0,0-.44.081c-2.955-5.412-8.448-14.056-13.1-13.418-5.222.717-4.841,6.759-3.4,11.828s11.995,26.593,11.995,26.593l-26.534,54.605,23.8,10.117,26.289-53.588c1.683-2.054,3.189-3.979,4.546-5.795h0s22.738-22.487,25.344-29.079C345.541,98.6,337.554,97.21,333.048,101.43Z" transform="translate(-262.318 -69.315)" fill="#bcb1aa" opacity="0.25" style="mix-blend-mode: multiply;isolation: isolate"/>
        </g>
        <g id="Grupo_1101885" data-name="Grupo 1101885" transform="translate(37.78 25.783)">
          <path id="Trazado_881239" data-name="Trazado 881239" d="M334.207,87.744c-4.733-7.5-10.659-1.807-9.925,4.369.179,1.5.935,5.626,1.864,10.465l-.086.016c-2.2-7.977-6.025-20.653-9.1-24.313-5.707-6.791-10.816-.363-9.253,5.656.689,2.661,4.469,13.728,7.333,22.008-3.706-7.032-11.044-20.319-15.178-23.457-7.071-5.371-10.647,2.007-7.8,7.529,1.306,2.529,7.827,13.1,12.491,20.611-5.459-5.964-12.713-13.363-16.5-15.019-8.146-3.568-9.9,4.428-5.824,9.125,2.514,2.9,17.7,17.8,22.269,22.271-6.072-.835-17.151-1.7-19.516,2.639-2.551,4.682,2.6,7.953,7.6,9.781s28.879,5.98,28.879,5.98L340.96,181.3l27.526-4.521-23.8-43.98c-.662-2.59-1.327-4.958-1.993-7.144l0,0S338.016,93.778,334.207,87.744Z" transform="translate(-280.122 -75.37)" fill="#f9bf98"/>
          <path id="Trazado_881240" data-name="Trazado 881240" d="M287.59,110.262l1.027-7.731s-4.049-1.076-5.1,2.773S287.59,110.262,287.59,110.262Z" transform="translate(-276.992 -49.327)" fill="#ffd8bd"/>
          <path id="Trazado_881241" data-name="Trazado 881241" d="M282.682,93.4l5.471-5.777s-3.605-2.443-6.084-1.031S281.056,91.35,282.682,93.4Z" transform="translate(-279.523 -64.978)" fill="#ffd8bd"/>
          <path id="Trazado_881242" data-name="Trazado 881242" d="M288.036,87.209l6.822-4.471s-3.3-5.394-6.59-3.177S287.111,85.033,288.036,87.209Z" transform="translate(-273.98 -71.846)" fill="#ffd8bd"/>
          <path id="Trazado_881243" data-name="Trazado 881243" d="M294.665,82.774l8.662-2.027s-2.241-5.233-5.758-4.214S294.665,82.774,294.665,82.774Z" transform="translate(-266.146 -74.374)" fill="#ffd8bd"/>
          <path id="Trazado_881244" data-name="Trazado 881244" d="M303.168,86.435l8.4-.611s-1.3-4.956-4.544-5.055S303.168,86.435,303.168,86.435Z" transform="translate(-257.913 -70.166)" fill="#ffd8bd"/>
        </g>
        <path id="Trazado_881245" data-name="Trazado 881245" d="M313.957,92.533c-.029.135-.62,1.977-.927,2.832a11.034,11.034,0,0,1,6.154,9.556,10.539,10.539,0,0,1-21.079,0,10.391,10.391,0,0,1,1.112-4.67l2.078,2.779,4.21-9.626-10.339,1.43L297.3,97.68a13.468,13.468,0,1,0,16.66-5.147Z" transform="translate(-227.844 -33.045)" fill="#fff"/>
      </g>
    </g>
  </g>
</svg>
