<svg id="Grupo_1102005" data-name="Grupo 1102005" xmlns="http://www.w3.org/2000/svg" xmlns:xlink="http://www.w3.org/1999/xlink" width="122.932" height="122.932" viewBox="0 0 122.932 122.932">
  <defs>
    <clipPath id="clip-path">
      <rect id="Rect치ngulo_403543" data-name="Rect치ngulo 403543" width="122.932" height="122.932" fill="none"/>
    </clipPath>
  </defs>
  <g id="Grupo_1101897" data-name="Grupo 1101897" transform="translate(0)">
    <g id="Grupo_1101895" data-name="Grupo 1101895">
      <g id="Grupo_1101894" data-name="Grupo 1101894" clip-path="url(#clip-path)">
        <rect id="Rect치ngulo_403542" data-name="Rect치ngulo 403542" width="122.932" height="122.932" fill="#b1fafc"/>
        <g id="Grupo_1101892" data-name="Grupo 1101892" transform="translate(24.167 16.276)">
          <g id="Grupo_1101891" data-name="Grupo 1101891">
            <path id="Trazado_881246" data-name="Trazado 881246" d="M348.829,92.347c2.245-9.736,10.594-5.9,12.089.945.363,1.659,5.549,17.432,8.978,19.718.033-.006.3-8.1.338-8.1-.613-9.3-1.225-24.2.677-29.232,3.531-9.345,11.289-4.418,11.853,2.561.247,3.087.322,16.258.34,26.125,3.444-6.227,7.926-24.362,11.138-29.24,5.5-8.344,11.985-1.832,11,5.1-.45,3.173-4.562,24.973-8.12,33.847,3.576-8.373,12.833-19.451,16.218-22.62,7.293-6.826,12.081,1.019,9.5,7.529-1.589,4.022-15.592,19.934-18.771,26.387,6.105-3.15,19-5.575,23.091-1.844,4.414,4.026.67,9.738-4.434,13.23C417.8,140.12,390.816,148.7,390.816,148.7l-7.4,45.415-29.156-4.75,7.4-45.417c-.253-3-.42-5.764-.52-8.336h0S347.023,100.178,348.829,92.347Z" transform="translate(-348.67 -70.528)" fill="#f9bf98"/>
            <path id="Trazado_881247" data-name="Trazado 881247" d="M388.734,106.5l-3.927-7.833s3.884-2.655,6.412,1.045S388.734,106.5,388.734,106.5Z" transform="translate(-313.843 -44.297)" fill="#ffd8bd"/>
            <path id="Trazado_881248" data-name="Trazado 881248" d="M389.581,88.394l-7.9-4.1s2.91-3.941,6.048-3.364S390.547,85.61,389.581,88.394Z" transform="translate(-316.856 -60.559)" fill="#ffd8bd"/>
            <path id="Trazado_881249" data-name="Trazado 881249" d="M380.822,80.26l-8.85-2.209s1.5-6.963,5.795-5.834S381,77.6,380.822,80.26Z" transform="translate(-326.214 -69.02)" fill="#ffd8bd"/>
            <path id="Trazado_881250" data-name="Trazado 881250" d="M370.355,77.27l-9.9,1.072s.446-6.4,4.534-6.626S370.355,77.27,370.355,77.27Z" transform="translate(-337.309 -69.389)" fill="#ffd8bd"/>
            <path id="Trazado_881251" data-name="Trazado 881251" d="M358.706,84.415,349.6,86.9s-.45-5.754,2.942-7.067S358.706,84.415,358.706,84.415Z" transform="translate(-347.788 -61.748)" fill="#ffd8bd"/>
          </g>
          <path id="Trazado_881252" data-name="Trazado 881252" d="M427.168,123.517c-4.092-3.731-16.986-1.306-23.091,1.844,3.179-6.453,17.183-22.365,18.771-26.387,2.576-6.51-2.211-14.355-9.5-7.529-3.385,3.169-12.642,14.247-16.218,22.62,3.482-8.617,7.67-30.673,8.12-33.847.982-6.93-5.506-13.442-11-5.1-3.211,4.878-6.614,21.094-11.138,29.24-.02-9.868-.092-23.038-.34-26.125-.564-6.979-8.322-11.906-11.853-2.561-1.9,5.033-1.29,19.936-.677,29.232-.033.006-.3,8.1-.338,8.1-3.356-1.785-8.615-18.058-8.978-19.718-1.494-6.84-9.844-10.681-12.089-.945-1.807,7.831,12.307,43.269,12.307,43.269h0c.1,2.573.267,5.337.52,8.336l-7.4,45.417,29.156,4.75,7.4-45.415s26.942-8.65,31.918-11.957C427.809,133.375,431.583,127.543,427.168,123.517Z" transform="translate(-348.67 -70.528)" fill="#bcb1aa" opacity="0.25" style="mix-blend-mode: multiply;isolation: isolate"/>
        </g>
        <g id="Grupo_1101893" data-name="Grupo 1101893" transform="translate(18.31 41.239)">
          <path id="Trazado_881253" data-name="Trazado 881253" d="M418.418,102.752c-.709-1.314-4.142-4.2-7.032-3.4-.644-.055-1.542.848-1.979,1.182l-.045.071c-.862,1.463-3,5.675-5.471,10.643l-.09-.047c1.418-3.513,3.122-7.906,4.632-12.246.526-1.115.344-1.816.958-2.832.279-.852.548-1.695.8-2.517a4.746,4.746,0,0,0-.972-2.946c-.882-1.316-2.657-3.091-4.332-3.488a5.4,5.4,0,0,0-4.515.226,5.56,5.56,0,0,0-2.148,1.333c-.189.079-.652,1.1-.844,1.133-1.722,5.021-3.857,11.423-5.634,16.8.732-4.306,1.708-10.537,2.343-16.444a5.108,5.108,0,0,0-1.569-5.18,7.269,7.269,0,0,0-11.7,3.431,9.655,9.655,0,0,1-.179,1.54c-.473,4.528-.968,9.465-1.382,13.677-.334-3.878-.782-8.216-1.359-12.228a4.019,4.019,0,0,0-2.527-2.023c-4.322-2.4-10.474.558-10.474,5.834,1.111,8.462,2.559,18.757,3.164,23.042-4.817-4.9-14.056-13.247-19.109-10.979-5.451,2.447-3.1,8.9.083,13.952s21.548,25.1,21.548,25.1l-7.144,45.458,29.183,4.585,7.144-45.456c1.176-2.773,2.2-5.347,3.095-7.759h0s9.292-16.8,14.634-29.03C418.865,110.856,420.478,106.571,418.418,102.752Z" transform="translate(-345.687 -83.24)" fill="#f9bf98"/>
          <path id="Trazado_881254" data-name="Trazado 881254" d="M348.492,104.578l6.176-6.217s-2.861-3.733-6.418-1.007S348.492,104.578,348.492,104.578Z" transform="translate(-344.682 -70.598)" fill="#ffd8bd"/>
        </g>
        <path id="Trazado_881255" data-name="Trazado 881255" d="M366.3,96.74l-5.131,9.075H364.8v21.595h2.941V105.815h3.685Z" transform="translate(-312.458 -28.991)" fill="#fff"/>
        <path id="Trazado_881256" data-name="Trazado 881256" d="M372.794,127.409l5.131-9.075h-3.636V96.74h-2.941v21.595h-3.685Z" transform="translate(-306.198 -28.991)" fill="#fff"/>
      </g>
    </g>
  </g>
</svg>
