<svg id="doctor-hospital-call-covid19-mobilephone" xmlns="http://www.w3.org/2000/svg" width="44.463" height="44.463" viewBox="0 0 44.463 44.463">
  <path id="Trazado_880389" data-name="Trazado 880389" d="M29,9H52.714V37.16H29Z" transform="translate(-8.992 -3.813)" fill="#ffdaaa"/>
  <path id="Trazado_880390" data-name="Trazado 880390" d="M29,38.714H52.714V15A23.714,23.714,0,0,1,29,38.714Z" transform="translate(-8.992 -5.366)" fill="#ffc477"/>
  <path id="Trazado_880391" data-name="Trazado 880391" d="M29,47H52.714v1.482a2.964,2.964,0,0,1-2.964,2.964H31.964A2.964,2.964,0,0,1,29,48.482Z" transform="translate(-8.992 -13.653)" fill="#004fac"/>
  <path id="Trazado_880392" data-name="Trazado 880392" d="M34.124,45.011v9.774H3V45.011a7.4,7.4,0,0,1,5.61-7.188l1.082-.267,2.2-.556,2.964,4.446,2.119-1.69,1.586-1.275,1.586,1.275,2.119,1.69L25.231,37l2.2.556,1.082.267A7.4,7.4,0,0,1,34.124,45.011Z" transform="translate(-2.259 -11.063)" fill="#d1e7f8"/>
  <path id="Trazado_880393" data-name="Trazado 880393" d="M31.964,3H49.749a2.964,2.964,0,0,1,2.964,2.964V7.446H29V5.964A2.964,2.964,0,0,1,31.964,3Z" transform="translate(-8.992 -2.259)" fill="#004fac"/>
  <path id="Trazado_880394" data-name="Trazado 880394" d="M13,17.375V11.446a2.964,2.964,0,0,1,2.964-2.964h1.482a1.482,1.482,0,0,1,1.482,1.482A2.964,2.964,0,0,1,21.893,7h2.964A4.446,4.446,0,0,1,29.3,11.446v5.928Z" transform="translate(-4.848 -3.295)" fill="#58595b"/>
  <path id="Trazado_880395" data-name="Trazado 880395" d="M13.482,20A1.487,1.487,0,0,0,12,21.482v.741a1.487,1.487,0,0,0,1.482,1.482h1.482V20Z" transform="translate(-4.59 -6.661)" fill="#ffac96"/>
  <path id="Trazado_880396" data-name="Trazado 880396" d="M33.482,23.705a1.487,1.487,0,0,0,1.482-1.482v-.741A1.487,1.487,0,0,0,33.482,20H32v3.705Z" transform="translate(-9.769 -6.661)" fill="#ffac96"/>
  <ellipse id="Elipse_11691" data-name="Elipse 11691" cx="2" cy="2.5" rx="2" ry="2.5" transform="translate(5.231 33.231)" fill="none"/>
  <path id="Trazado_880397" data-name="Trazado 880397" d="M23.415,39l-1.59,1.272-.085,1.878,1.675.556,1.675-.556L25,40.272Z" transform="translate(-7.112 -11.581)" fill="#005ece"/>
  <path id="Trazado_880398" data-name="Trazado 880398" d="M22.705,37.249l3.705-2.223V32.24a5.915,5.915,0,0,1-7.41,0v2.786Z" transform="translate(-6.402 -9.831)" fill="#ffac96"/>
  <path id="Trazado_880399" data-name="Trazado 880399" d="M22.964,43.806l-1.675-.556L20,56.4h5.928L24.639,43.25Z" transform="translate(-6.661 -12.682)" fill="#006df0"/>
  <path id="Trazado_880400" data-name="Trazado 880400" d="M15,36.741l2.964,4.446,3.705-2.964L17.964,36Z" transform="translate(-5.366 -10.804)" fill="#57a4ff"/>
  <path id="Trazado_880401" data-name="Trazado 880401" d="M24,38.223l3.705,2.964,2.964-4.446L27.705,36Z" transform="translate(-7.697 -10.804)" fill="#57a4ff"/>
  <path id="Trazado_880402" data-name="Trazado 880402" d="M26.375,16H17.482A1.482,1.482,0,0,0,16,17.482V23.41a5.928,5.928,0,0,0,11.857,0V17.482A1.482,1.482,0,0,0,26.375,16Z" transform="translate(-5.625 -5.625)" fill="#ffbcab"/>
  <ellipse id="Elipse_11692" data-name="Elipse 11692" cx="2" cy="2.5" rx="2" ry="2.5" transform="translate(5.231 33.231)" fill="#ed1c24"/>
  <path id="Trazado_880403" data-name="Trazado 880403" d="M42.232,27.659l-3.144-3.144L38.04,25.563a2.964,2.964,0,0,0,0,4.192l5.24,5.24a2.964,2.964,0,0,0,4.192,0l1.048-1.048L45.376,30.8l-1.049,1.048a.741.741,0,0,1-1.048,0l-2.1-2.1a.741.741,0,0,1,0-1.048Z" transform="translate(-11.108 -7.83)" fill="#ed1c24"/>
  <g id="Grupo_1101479" data-name="Grupo 1101479">
    <path id="Trazado_880404" data-name="Trazado 880404" d="M21.277,27.218a.741.741,0,0,0-1.043,1.049,3.888,3.888,0,0,0,5.493,0,.741.741,0,1,0-1.053-1.044,2.4,2.4,0,0,1-3.4,0Z" transform="translate(-6.673 -8.475)" fill="#231f20"/>
    <path id="Trazado_880405" data-name="Trazado 880405" d="M20.741,23.223a.741.741,0,0,0,.741-.741v-.741a.741.741,0,0,0-1.482,0v.741A.741.741,0,0,0,20.741,23.223Z" transform="translate(-6.661 -6.92)" fill="#231f20"/>
    <path id="Trazado_880406" data-name="Trazado 880406" d="M26.741,23.223a.741.741,0,0,0,.741-.741v-.741a.741.741,0,0,0-1.482,0v.741A.741.741,0,0,0,26.741,23.223Z" transform="translate(-8.215 -6.92)" fill="#231f20"/>
    <path id="Trazado_880407" data-name="Trazado 880407" d="M42.758,2H24.972a3.718,3.718,0,0,0-3.631,2.964h-2.3a3.7,3.7,0,0,0-3.209,1.86A2.219,2.219,0,0,0,14.6,6.446H13.116A3.705,3.705,0,0,0,9.41,10.152v5.024a2.213,2.213,0,0,0-.741,1.645v.741a2.23,2.23,0,0,0,2.223,2.223h.741a6.637,6.637,0,0,0,2.224,4.959v.229H12.375a3.71,3.71,0,0,0-3.616,2.92l-.585.148A8.128,8.128,0,0,0,2,35.947v9.774a.741.741,0,0,0,.741.741H33.865a.741.741,0,0,0,.741-.741V40.534h8.152a3.705,3.705,0,0,0,3.705-3.705V5.705A3.705,3.705,0,0,0,42.758,2ZM11.634,18.3h-.741a.741.741,0,0,1-.741-.741v-.741a.741.741,0,0,1,.741-.741h.741Zm0-4.446V14.6h-.741V10.152a2.23,2.23,0,0,1,2.223-2.223H14.6a.741.741,0,0,1,.741.741.741.741,0,1,0,1.482,0,2.23,2.23,0,0,1,2.223-2.223h2.964a3.705,3.705,0,0,1,3.705,3.705V14.6h-.741v-.741a2.23,2.23,0,0,0-2.223-2.223H13.857A2.23,2.23,0,0,0,11.634,13.857Zm14.821,2.964v.741a.741.741,0,0,1-.741.741h-.741V16.08h.741A.741.741,0,0,1,26.455,16.821ZM13.116,19.785V13.857a.741.741,0,0,1,.741-.741h8.893a.741.741,0,0,1,.741.741v5.928a5.187,5.187,0,1,1-10.375,0ZM18.3,28.552l-2.964-1.779V25.751a6.6,6.6,0,0,0,5.928,0v1.023Zm.911,3.49-.911.3-.889-.3.082-1.037.808-.645.808.652Zm2.912-4.054,1.645.415-1.934,2.9-1.527-1.23a.026.026,0,0,1-.015-.007l-.7-.556Zm.622-1.371v-.163h1.482a2.242,2.242,0,0,1,1.853.993l-.934-.23Zm-8.27,1.371,2.527,1.519-.7.556-.007.007L14.768,31.3l-1.934-2.9Zm-2.1-1.534h1.482v.163l-2.4.6-.934.23a2.242,2.242,0,0,1,1.853-.993ZM9.41,36.088A1.482,1.482,0,1,1,7.928,37.57,1.482,1.482,0,0,1,9.41,36.088Zm5.254,8.893H10.152V42.017a.741.741,0,1,0-1.482,0v2.964H3.482V35.947a6.653,6.653,0,0,1,5.047-6.469l.141-.037V34.71a2.964,2.964,0,1,0,1.482,0V29.07l1.156-.289,2.675,4.009a.712.712,0,0,0,.5.326.561.561,0,0,0,.111.007.724.724,0,0,0,.459-.163l.823-.652Zm1.49,0,1.119-11.42.8.267a.731.731,0,0,0,.459,0l.823-.274,1.1,11.427Zm16.97,0H27.937V42.017a.741.741,0,1,0-1.482,0v2.964H21.942L20.7,32.287l.852.674a.724.724,0,0,0,.459.163.561.561,0,0,0,.111-.007.712.712,0,0,0,.5-.326L25.3,28.781l1.156.289V30.9a1.487,1.487,0,0,0-1.482,1.482v1.341a4.446,4.446,0,0,0-2.223,3.846v1.482a1.487,1.487,0,0,0,1.482,1.482h.741a.741.741,0,0,0,0-1.482h-.741V37.57a2.964,2.964,0,0,1,5.928,0v1.482h-.741a.741.741,0,0,0,0,1.482h.741a1.487,1.487,0,0,0,1.482-1.482V37.57a4.446,4.446,0,0,0-2.223-3.846V32.383A1.487,1.487,0,0,0,27.937,30.9v-1.46l.141.037a6.653,6.653,0,0,1,5.047,6.469Zm-5.187-12.6v.808a4.15,4.15,0,0,0-1.482,0v-.808Zm17.044,4.446a2.23,2.23,0,0,1-2.223,2.223H34.606v-.741h.741a.741.741,0,0,0,0-1.482h-.741v-.741H44.981Zm0-2.223H34.495a8.128,8.128,0,0,0-6.062-6.566l-.585-.148a3.71,3.71,0,0,0-3.616-2.92H22.749v-.23a6.636,6.636,0,0,0,2.223-4.958h.741a2.23,2.23,0,0,0,2.223-2.223v-.741a2.213,2.213,0,0,0-.741-1.645V10.152a5.2,5.2,0,0,0-.5-2.223H44.981Zm0-28.16H25.632A5.179,5.179,0,0,0,22.86,5.038a2.223,2.223,0,0,1,2.112-1.556H42.758a2.23,2.23,0,0,1,2.223,2.223Z" transform="translate(-2 -2)" fill="#231f20"/>
    <path id="Trazado_880408" data-name="Trazado 880408" d="M42.741,6.482h2.964a.741.741,0,1,0,0-1.482H42.741a.741.741,0,1,0,0,1.482Z" transform="translate(-12.358 -2.777)" fill="#231f20"/>
    <path id="Trazado_880409" data-name="Trazado 880409" d="M48.784,33.168l-3.142-3.149a.741.741,0,0,0-1.045,0l-1.052,1.052-2.1-2.1L42.5,27.922a.741.741,0,0,0,0-1.045l-3.149-3.142a.741.741,0,0,0-1.045,0L37.261,24.78a3.705,3.705,0,0,0,0,5.239L42.5,35.258a3.694,3.694,0,0,0,5.239,0l1.045-1.045A.741.741,0,0,0,48.784,33.168Zm-2.1,1.045a2.223,2.223,0,0,1-3.142,0l-5.239-5.239a2.223,2.223,0,0,1,0-3.142l.526-.526,2.1,2.1-.526.519a1.482,1.482,0,0,0,0,2.1l2.1,2.1a1.482,1.482,0,0,0,2.1,0l.519-.526,2.1,2.1Z" transform="translate(-10.85 -7.572)" fill="#231f20"/>
    <path id="Trazado_880410" data-name="Trazado 880410" d="M46.741,18a.741.741,0,0,0,0,1.482,7.419,7.419,0,0,1,7.41,7.41.741.741,0,1,0,1.482,0A8.9,8.9,0,0,0,46.741,18Z" transform="translate(-13.394 -6.143)" fill="#231f20"/>
    <path id="Trazado_880411" data-name="Trazado 880411" d="M46.741,22a.741.741,0,0,0,0,1.482,4.451,4.451,0,0,1,4.446,4.446.741.741,0,1,0,1.482,0A5.935,5.935,0,0,0,46.741,22Z" transform="translate(-13.394 -7.179)" fill="#231f20"/>
    <path id="Trazado_880412" data-name="Trazado 880412" d="M46.741,27.482a1.482,1.482,0,0,1,1.482,1.482.741.741,0,1,0,1.482,0A2.964,2.964,0,0,0,46.741,26a.741.741,0,0,0,0,1.482Z" transform="translate(-13.394 -8.215)" fill="#231f20"/>
    <ellipse id="Elipse_11693" data-name="Elipse 11693" cx="1" cy="0.5" rx="1" ry="0.5" transform="translate(6.231 35.231)" fill="#231f20"/>
  </g>
</svg>
