<svg id="Grupo_1102011" data-name="Grupo 1102011" xmlns="http://www.w3.org/2000/svg" xmlns:xlink="http://www.w3.org/1999/xlink" width="123.182" height="123.182" viewBox="0 0 123.182 123.182">
  <defs>
    <clipPath id="clip-path">
      <rect id="Rect치ngulo_403547" data-name="Rect치ngulo 403547" width="123.182" height="123.182" fill="none"/>
    </clipPath>
  </defs>
  <g id="Grupo_1101905" data-name="Grupo 1101905" transform="translate(0 0)">
    <g id="Grupo_1101903" data-name="Grupo 1101903">
      <g id="Grupo_1101902" data-name="Grupo 1101902" clip-path="url(#clip-path)">
        <rect id="Rect치ngulo_403546" data-name="Rect치ngulo 403546" width="123.182" height="123.182" fill="#b1fafc"/>
        <g id="Grupo_1101899" data-name="Grupo 1101899" transform="translate(44.679 20.117)">
          <path id="Trazado_881257" data-name="Trazado 881257" d="M356.076,200.612c.055-9.654-8.717-7.908-11.667-1.812-.714,1.478-2.44,5.708-4.425,10.691l-.088-.035c2.664-8.6,6.584-22.477,5.909-27.635-1.253-9.575-9.707-6.674-11.8-.24-.927,2.845-3.947,15.212-6.177,24.484.724-8.623,1.783-25.11-.167-30.413-3.337-9.071-10.944-4.4-11.566,2.334-.285,3.085-.506,16.608-.63,26.228-1.511-8.67-3.825-19.711-6.322-23.445-5.382-8.048-11.674-1.741-10.695,4.953.606,4.136,5.8,26.708,7.367,33.485-5.079-4.325-14.734-11.615-19.447-9.022-5.085,2.8-2.275,8.823,1.238,13.428s22.981,22.418,22.981,22.418l-3.164,44.351,27.9,11.991,3.955-54.3c.913-2.765,1.69-5.327,2.361-7.721h0S356.03,208.379,356.076,200.612Z" transform="translate(-283.59 -170.614)" fill="#f9bf98"/>
          <path id="Trazado_881258" data-name="Trazado 881258" d="M286.707,199.532l5.476-6.488s-3.083-3.363-6.309-.449S286.707,199.532,286.707,199.532Z" transform="translate(-282.582 -150.492)" fill="#ffd8bd"/>
          <path id="Trazado_881259" data-name="Trazado 881259" d="M291.94,181.413l8.4-2.09s-1.875-4.355-4.976-4.512S291.649,178.581,291.94,181.413Z" transform="translate(-275.571 -166.557)" fill="#ffd8bd"/>
          <path id="Trazado_881260" data-name="Trazado 881260" d="M300.877,178.708l8.88-.1s.14-6.881-4.183-6.779S301.306,176.169,300.877,178.708Z" transform="translate(-266.86 -169.44)" fill="#ffd8bd"/>
          <path id="Trazado_881261" data-name="Trazado 881261" d="M309.694,178.445l9.134,3.219s1.011-6.114-2.81-7.241S309.694,178.445,309.694,178.445Z" transform="translate(-258.328 -167.084)" fill="#ffd8bd"/>
          <path id="Trazado_881262" data-name="Trazado 881262" d="M315.15,186.719l8.068,4.366s1.716-5.307-1.2-7.3S315.15,186.719,315.15,186.719Z" transform="translate(-253.048 -158.327)" fill="#ffd8bd"/>
        </g>
        <g id="Grupo_1101901" data-name="Grupo 1101901" transform="translate(5.026 53.131)">
          <g id="Grupo_1101900" data-name="Grupo 1101900" transform="translate(3.188 11.407)">
            <path id="Trazado_881263" data-name="Trazado 881263" d="M316.309,198.586c-11.493-2.462-23.63-1.881-35.293-.039-1.493.335-2.989.653-4.49.935q-4.132,1.573-8.184,3.39a3.707,3.707,0,0,1-.716.234q-1.275.514-2.568.986c3.312,12.233,8.148,26.3,8.148,26.3h.006c.466,2.534,1.029,5.254,1.71,8.194l-.832,46.1,29.595.533.832-46.1s15.813-17.973,17.056-19.876,2.039-6.669-6.749-15.61C315.345,201.855,315.843,200.163,316.309,198.586Z" transform="translate(-265.058 -189.553)" fill="#f9bf98"/>
            <path id="Trazado_881264" data-name="Trazado 881264" d="M296.573,193.189l-8.924,29.693,9.394-10.891S297.9,193.7,296.573,193.189Z" transform="translate(-243.196 -193.189)" fill="#f2b48b"/>
          </g>
          <path id="Trazado_881265" data-name="Trazado 881265" d="M317.877,207.833s3.792-8.908,2.6-12.6-8.585-8.693-13.367-3.26c0,0-8.259-9.345-16.3-1.3a12.127,12.127,0,0,0-8.91-3.264c-5.651.222-7.391,6.09-7.391,6.09s-3.156-3.912-7.881-.653-3.973,12.359.759,23.241S317.877,207.833,317.877,207.833Z" transform="translate(-263.438 -187.392)" fill="#f9bf98"/>
        </g>
        <path id="Trazado_881266" data-name="Trazado 881266" d="M289.953,196.675c-.028.136-.622,1.981-.929,2.835a11.058,11.058,0,0,1,6.167,9.577,10.56,10.56,0,0,1-21.119,0,10.437,10.437,0,0,1,1.112-4.679l2.082,2.784,4.221-9.646-10.36,1.432,2.133,2.853a13.5,13.5,0,1,0,16.694-5.157Z" transform="translate(-250.971 -125.277)" fill="#fff"/>
      </g>
    </g>
  </g>
</svg>
