<svg xmlns="http://www.w3.org/2000/svg" xmlns:xlink="http://www.w3.org/1999/xlink" width="138" height="138" viewBox="0 0 138 138">
  <defs>
    <filter id="Elipse_11581" x="0" y="0" width="138" height="138" filterUnits="userSpaceOnUse">
      <feOffset dy="3" input="SourceAlpha"/>
      <feGaussianBlur stdDeviation="3" result="blur"/>
      <feFlood flood-opacity="0.161"/>
      <feComposite operator="in" in2="blur"/>
      <feComposite in="SourceGraphic"/>
    </filter>
  </defs>
  <g id="Grupo_1099021" data-name="Grupo 1099021" transform="translate(-778.333 -427)">
    <g transform="matrix(1, 0, 0, 1, 778.33, 427)" filter="url(#Elipse_11581)">
      <g id="Elipse_11581-2" data-name="Elipse 11581" transform="translate(19 16)" fill="#fff7e6" stroke="rgba(250,246,237,0.5)" stroke-width="10">
        <circle cx="50" cy="50" r="50" stroke="none"/>
        <circle cx="50" cy="50" r="55" fill="none"/>
      </g>
    </g>
    <g id="Grupo_1100449" data-name="Grupo 1100449" transform="translate(820.333 467)">
      <path id="Trazado_875092" data-name="Trazado 875092" d="M119.32,23.674c8.329-14.426-6.987-24.013-15.472-15.529-8.485-8.485-23.8,1.1-15.472,15.529,3.833,6.639,11.564,12.727,15.472,13.774C107.756,36.4,115.487,30.313,119.32,23.674Z" transform="translate(-76.932 -4.959)" fill="#ffbebc" fill-rule="evenodd"/>
      <g id="Grupo_1100407" data-name="Grupo 1100407" transform="translate(0 7.586)">
        <path id="Trazado_875093" data-name="Trazado 875093" d="M53.7,339.418a3.477,3.477,0,0,0-4.367-2.255c-.017,0-9.968,2.408-9.986,2.411a3.252,3.252,0,0,0-3.445-2.636c-1.1.1-8.016.888-9.164.995a20.719,20.719,0,0,1-4.463-.388c-2.917-.439-6.224-.936-9.541-.188-3.935.887-6.943,3.325-9.2,7.455L.41,350.345a3.127,3.127,0,0,0,0,3.092A2.734,2.734,0,0,0,2.784,354.8H13.769c2.707.106,3.045-1.314,4.306-3.229l6.272.3c4.633.221,6.113-.014,10.549-1.678,3.433-1.287,7.724-3.043,11.171-4.454,2.468-1.01,4.6-1.883,5.4-2.163a3.374,3.374,0,0,0,2.235-4.159Zm-2.935,2.176c-4.185,1.583-11.906,4.9-16.61,6.631-4.177,1.566-5.357,1.754-9.711,1.546l-6.885-.328a1.051,1.051,0,0,0-.94.49l-1.241,1.972a2.067,2.067,0,0,1-.54.679,3.124,3.124,0,0,1-1.073.114H2.784c-.706-.037-.824-.816-.54-1.325.008-.015,3.134-5.534,3.141-5.548,4.254-7.628,10.158-7.187,16.581-6.2,4.082.7,4.993.407,9.568-.1,1.969-.218,4.006-.444,4.565-.5a1.15,1.15,0,0,1,1.2,1.075c.018.21.067.768-1.333,1.374a53.168,53.168,0,0,1-8.462,2.892,1.052,1.052,0,1,0,.481,2.047,55.35,55.35,0,0,0,8.817-3.01,4.723,4.723,0,0,0,2.089-1.563L49.8,339.215c.973-.214,1.676.082,1.882.79a1.284,1.284,0,0,1-.915,1.589Z" transform="translate(0 -309.6)" fill="#020288"/>
        <path id="Trazado_875094" data-name="Trazado 875094" d="M51.249,86.81H65.373a1.051,1.051,0,0,0,.968-.64l2.267-5.331,5.5,12.937a1.052,1.052,0,0,0,1.935,0l2.962-6.966H92.434a1.052,1.052,0,0,0,0-2.1H78.31a1.052,1.052,0,0,0-.968.64l-2.267,5.331-5.5-12.937a1.052,1.052,0,0,0-1.935,0l-2.962,6.966H51.249a1.052,1.052,0,0,0,0,2.1Z" transform="translate(-44.925 -77.1)" fill="#020288"/>
      </g>
    </g>
  </g>
</svg>
