<svg xmlns="http://www.w3.org/2000/svg" xmlns:xlink="http://www.w3.org/1999/xlink" width="86" height="86" viewBox="0 0 86 86">
  <defs>
    <filter id="Elipse_11581" x="0" y="0" width="86" height="86" filterUnits="userSpaceOnUse">
      <feOffset dy="3" input="SourceAlpha"/>
      <feGaussianBlur stdDeviation="3" result="blur"/>
      <feFlood flood-opacity="0.161"/>
      <feComposite operator="in" in2="blur"/>
      <feComposite in="SourceGraphic"/>
    </filter>
  </defs>
  <g id="Grupo_1102347" data-name="Grupo 1102347" transform="translate(10655.999 12074.999)">
    <g id="Grupo_1102225" data-name="Grupo 1102225" transform="translate(-10639.534 -12061.491)">
      <g transform="matrix(1, 0, 0, 1, -16.46, -13.51)" filter="url(#Elipse_11581)">
        <g id="Elipse_11581-2" data-name="Elipse 11581" transform="translate(16 13)" fill="#fff7e6" stroke="rgba(250,246,237,0.5)" stroke-width="7">
          <circle cx="27" cy="27" r="27" stroke="none"/>
          <circle cx="27" cy="27" r="30.5" fill="none"/>
        </g>
      </g>
    </g>
    <g id="filled_outline" data-name="filled outline" transform="translate(-10634.402 -12054.896)">
      <path id="Trazado_882548" data-name="Trazado 882548" d="M12.491,27.236l-1.336,1.337a3.527,3.527,0,0,0,0,5.345l4.454,4.454a3.779,3.779,0,0,0,5.345,0l1.336-1.336,5.345,5.345L25.6,44.42a7.2,7.2,0,0,1-10.177,0L5.108,34.106a7.2,7.2,0,0,1,0-10.177l2.038-2.038Z" transform="translate(-0.368 -7.361)" fill="#b2dbff"/>
      <path id="Trazado_882549" data-name="Trazado 882549" d="M0,0H7.559V3.15H0Z" transform="translate(9.006 12.3) rotate(45)" fill="#617bbb"/>
      <path id="Trazado_882550" data-name="Trazado 882550" d="M0,0H7.559V3.15H0Z" transform="translate(24.15 27.442) rotate(45)" fill="#617bbb"/>
      <circle id="Elipse_11800" data-name="Elipse 11800" cx="8.819" cy="8.819" r="8.819" transform="translate(21.53 2.63)" fill="#b2dbff"/>
      <path id="Trazado_882551" data-name="Trazado 882551" d="M49.079,12.15h-3.15V9H42.15v3.15H39v3.779h3.15v3.15h3.779v-3.15h3.15Z" transform="translate(-13.691 -2.591)" fill="#ee7666"/>
      <circle id="Elipse_11801" data-name="Elipse 11801" cx="8.819" cy="8.819" r="8.819" transform="translate(13.971 10.189)" fill="#fdd778"/>
      <path id="Trazado_882552" data-name="Trazado 882552" d="M30.409,23H26.63a.63.63,0,0,0,0,1.26h3.15v1.89H26.63a.63.63,0,0,0-.63.63v3.15a.63.63,0,0,0,.63.63h3.779a.63.63,0,0,0,0-1.26H27.26v-1.89h3.15a.63.63,0,0,0,.63-.63V23.63A.63.63,0,0,0,30.409,23Z" transform="translate(-8.88 -7.772)" fill="#ee7666"/>
      <path id="Trazado_882553" data-name="Trazado 882553" d="M41.669,26.15h-.63v-.63a.63.63,0,0,0-1.26,0v.63H37.742l1.317-2.2a.63.63,0,1,0-1.08-.648l-1.89,3.15a.63.63,0,0,0,.54.954h3.15v2.52a.63.63,0,0,0,1.26,0v-2.52h.63a.63.63,0,1,0,0-1.26Z" transform="translate(-12.58 -7.772)" fill="#ee7666"/>
      <path id="Trazado_882554" data-name="Trazado 882554" d="M32.074,20.726a9.442,9.442,0,1,0-11-11,9.474,9.474,0,0,0-7.3,6.457L9.451,11.857a.648.648,0,0,0-.891,0L6.333,14.085,4.295,16.123a7.836,7.836,0,0,0,0,11.068L14.607,37.5a7.835,7.835,0,0,0,11.068,0l2.038-2.038,2.227-2.227a.63.63,0,0,0,0-.891l-4.323-4.323a9.474,9.474,0,0,0,6.457-7.3Zm.164-10.537h2.52v2.52h-2.52a.63.63,0,0,0-.63.63v2.3a9.483,9.483,0,0,0-5.454-5.454h2.3a.63.63,0,0,0,.63-.63V7.039h2.52v2.52A.63.63,0,0,0,32.238,10.189ZM30.348,3.26a8.189,8.189,0,0,1,1.869,16.159c.006-.137.021-.272.021-.411a9.454,9.454,0,0,0-.189-1.89h.189a.63.63,0,0,0,.63-.63v-2.52h2.52a.63.63,0,0,0,.63-.63V9.559a.63.63,0,0,0-.63-.63h-2.52V6.409a.63.63,0,0,0-.63-.63H28.459a.63.63,0,0,0-.63.63v2.52h-2.52a.63.63,0,0,0-.63.63v.189a9.454,9.454,0,0,0-1.89-.189c-.139,0-.274.015-.411.021a8.208,8.208,0,0,1,7.97-6.32ZM21.477,29.229l-1.337,1.337a3.15,3.15,0,0,1-4.454,0l-4.454-4.454a3.242,3.242,0,0,1-1.041-2.269,3.1,3.1,0,0,1,1.042-2.186l1.336-1.336.8-.8a9.449,9.449,0,0,0,8.908,8.909ZM9.005,13.194l4.446,4.446v.019l-1.323,1.323L9.9,16.754,7.672,14.53ZM24.784,36.612a6.573,6.573,0,0,1-9.286,0L5.185,26.3a6.575,6.575,0,0,1,0-9.286l1.593-1.592,2.227,2.227,2.227,2.227-.886.886a4.322,4.322,0,0,0-1.415,3.073A4.486,4.486,0,0,0,10.343,27L14.8,31.455a4.415,4.415,0,0,0,6.236,0l.891-.891,4.454,4.454Zm3.82-3.82-1.336,1.334-4.454-4.454,1.323-1.323h.019Zm-4.022-5.8A.63.63,0,0,0,23.7,27l-.157.157c-.252.023-.5.038-.756.038A8.2,8.2,0,0,1,14.6,19.008c0-.256.015-.508.038-.756l.157-.157a.63.63,0,0,0,.009-.877,8.189,8.189,0,1,1,9.777,9.776Z" transform="translate(0 0)"/>
      <path id="Trazado_882555" data-name="Trazado 882555" d="M30.409,23H26.63a.63.63,0,0,0,0,1.26h3.15v1.89H26.63a.63.63,0,0,0-.63.63v3.15a.63.63,0,0,0,.63.63h3.779a.63.63,0,0,0,0-1.26H27.26v-1.89h3.15a.63.63,0,0,0,.63-.63V23.63A.63.63,0,0,0,30.409,23Z" transform="translate(-8.88 -7.772)"/>
      <path id="Trazado_882556" data-name="Trazado 882556" d="M41.669,26.15h-.63v-.63a.63.63,0,0,0-1.26,0v.63H37.742l1.317-2.2a.63.63,0,1,0-1.08-.648l-1.89,3.15a.63.63,0,0,0,.54.954h3.15v2.52a.63.63,0,0,0,1.26,0v-2.52h.63a.63.63,0,1,0,0-1.26Z" transform="translate(-12.58 -7.772)"/>
    </g>
  </g>
</svg>
