<svg xmlns="http://www.w3.org/2000/svg" width="57.971" height="57.971" viewBox="0 0 57.971 57.971">
  <g id="police-line_4946623" transform="translate(0)">
    <g id="Grupo_1101545" data-name="Grupo 1101545" transform="translate(5.29 10.684)">
      <path id="Trazado_880569" data-name="Trazado 880569" d="M89.774,98.051h0l-9.615,4.084L75.2,96.207,60.645,94.364,46.9,97.223,46.72,98.67l5.047,7.4,14.556,1.843,10.864-1.727,3.709,3.572,12.459,1.577,1.6-12.625Z" transform="translate(-46.72 -94.364)" fill="#fad989"/>
    </g>
    <g id="Grupo_1101546" data-name="Grupo 1101546" transform="translate(13.728 38.881)">
      <path id="Trazado_880570" data-name="Trazado 880570" d="M134.93,356.984H125.34a4.093,4.093,0,0,1-4.093-4.093v-5.4a4.093,4.093,0,0,1,4.093-4.093h13.683v9.493A4.093,4.093,0,0,1,134.93,356.984Z" transform="translate(-121.247 -343.398)" fill="#f0f0f0"/>
    </g>
    <g id="Grupo_1101547" data-name="Grupo 1101547" transform="translate(13.728 38.881)">
      <path id="Trazado_880571" data-name="Trazado 880571" d="M126.531,352.891v-5.4a4.093,4.093,0,0,1,4.093-4.093H125.34a4.093,4.093,0,0,0-4.093,4.093v5.4a4.093,4.093,0,0,0,4.093,4.093h5.284A4.093,4.093,0,0,1,126.531,352.891Z" transform="translate(-121.247 -343.398)" fill="#dfe3e5"/>
    </g>
    <g id="Grupo_1101548" data-name="Grupo 1101548" transform="translate(4.448 27.329)">
      <path id="Trazado_880572" data-name="Trazado 880572" d="M57.732,251.743l10.182,3.171,14.556-1.843,5.367-4.867-.734-5.8-4.31,1.453-9.2-2.487-14.556,1.843-3.795,3.777-10.778-1.932-5.179.656,1.6,12.625,12.459-1.577Z" transform="translate(-39.284 -241.368)" fill="#fce3a0"/>
    </g>
    <g id="Grupo_1101549" data-name="Grupo 1101549" transform="translate(38.756 25.662)">
      <path id="Trazado_880573" data-name="Trazado 880573" d="M355.46,226.644l1.6,12.625-5.889.746-8.878-11.7Z" transform="translate(-342.291 -226.644)" fill="#a29dae"/>
    </g>
    <g id="Grupo_1101550" data-name="Grupo 1101550" transform="translate(9.627 29.171)">
      <path id="Trazado_880574" data-name="Trazado 880574" d="M108.475,269.345,93.9,271.19l-8.878-11.7L99.6,257.642Z" transform="translate(-85.024 -257.642)" fill="#a29dae"/>
    </g>
    <g id="Grupo_1101551" data-name="Grupo 1101551" transform="translate(4.448 9.017)">
      <path id="Trazado_880575" data-name="Trazado 880575" d="M40.882,79.64l-1.6,12.625,5.889.746,8.878-11.7Z" transform="translate(-39.284 -79.64)" fill="#77728d"/>
    </g>
    <g id="Grupo_1101552" data-name="Grupo 1101552" transform="translate(24.893 12.527)">
      <path id="Trazado_880576" data-name="Trazado 880576" d="M219.852,122.341l14.573,1.845,8.878-11.7-14.573-1.845Z" transform="translate(-219.852 -110.638)" fill="#77728d"/>
    </g>
    <g id="Grupo_1101553" data-name="Grupo 1101553" transform="translate(2.768 3.664)">
      <path id="Trazado_880577" data-name="Trazado 880577" d="M0,0H45.456V4.824H0Z" transform="translate(0 45.456) rotate(-90)" fill="#f2ad9a"/>
    </g>
    <g id="Grupo_1101554" data-name="Grupo 1101554" transform="translate(1.896 46.423)">
      <path id="Trazado_880578" data-name="Trazado 880578" d="M21.708,410.006H18.357a1.612,1.612,0,0,0-1.608,1.608v4.021h6.567v-4.021A1.612,1.612,0,0,0,21.708,410.006Z" transform="translate(-16.749 -410.006)" fill="#e7896e"/>
    </g>
    <g id="Grupo_1101555" data-name="Grupo 1101555" transform="translate(0.849 51.493)">
      <path id="Trazado_880579" data-name="Trazado 880579" d="M14.315,454.785H9.346A1.852,1.852,0,0,0,7.5,456.632v1.936a1.852,1.852,0,0,0,1.846,1.846h4.969a1.852,1.852,0,0,0,1.846-1.846v-1.936A1.852,1.852,0,0,0,14.315,454.785Z" transform="translate(-7.5 -454.785)" fill="#dd6642"/>
    </g>
    <g id="Grupo_1101556" data-name="Grupo 1101556" transform="translate(0.849 0.849)">
      <path id="Trazado_880580" data-name="Trazado 880580" d="M14.315,7.5H9.346A1.852,1.852,0,0,0,7.5,9.346v1.936a1.852,1.852,0,0,0,1.846,1.846h4.969a1.852,1.852,0,0,0,1.846-1.846V9.346A1.852,1.852,0,0,0,14.315,7.5Z" transform="translate(-7.5 -7.5)" fill="#e7896e"/>
    </g>
    <g id="Grupo_1101557" data-name="Grupo 1101557" transform="translate(50.379 3.664)">
      <path id="Trazado_880581" data-name="Trazado 880581" d="M0,0H45.456V4.824H0Z" transform="translate(0 45.456) rotate(-90)" fill="#f2ad9a"/>
    </g>
    <g id="Grupo_1101558" data-name="Grupo 1101558" transform="translate(49.507 46.423)">
      <path id="Trazado_880582" data-name="Trazado 880582" d="M442.208,410.006h-3.351a1.612,1.612,0,0,0-1.608,1.608v4.021h6.567v-4.021A1.612,1.612,0,0,0,442.208,410.006Z" transform="translate(-437.249 -410.006)" fill="#e7896e"/>
    </g>
    <g id="Grupo_1101559" data-name="Grupo 1101559" transform="translate(48.46 51.493)">
      <path id="Trazado_880583" data-name="Trazado 880583" d="M434.815,454.785h-4.969A1.852,1.852,0,0,0,428,456.632v1.936a1.852,1.852,0,0,0,1.846,1.846h4.969a1.852,1.852,0,0,0,1.846-1.846v-1.936A1.852,1.852,0,0,0,434.815,454.785Z" transform="translate(-428 -454.785)" fill="#dd6642"/>
    </g>
    <g id="Grupo_1101560" data-name="Grupo 1101560" transform="translate(48.46 0.849)">
      <path id="Trazado_880584" data-name="Trazado 880584" d="M434.815,7.5h-4.969A1.852,1.852,0,0,0,428,9.346v1.936a1.852,1.852,0,0,0,1.846,1.846h4.969a1.852,1.852,0,0,0,1.846-1.846V9.346A1.852,1.852,0,0,0,434.815,7.5Z" transform="translate(-428 -7.5)" fill="#e7896e"/>
    </g>
    <g id="Grupo_1101561" data-name="Grupo 1101561" transform="translate(0 0)">
      <path id="Trazado_880585" data-name="Trazado 880585" d="M156.263,424.3H164.6a.849.849,0,1,0,0-1.7h-8.341a.849.849,0,1,0,0,1.7Z" transform="translate(-137.817 -374.752)"/>
      <path id="Trazado_880586" data-name="Trazado 880586" d="M200.177,395.132h3.369a.849.849,0,0,0,0-1.7h-3.369a.849.849,0,1,0,0,1.7Z" transform="translate(-176.759 -348.888)"/>
      <path id="Trazado_880587" data-name="Trazado 880587" d="M57.971,4.632V2.7a2.7,2.7,0,0,0-2.7-2.7H50.306a2.7,2.7,0,0,0-2.7,2.7V4.632A2.7,2.7,0,0,0,49.53,7.213v6.453l-6.784-.859a.849.849,0,0,0-.213,1.685l4.247.538L39.086,25.171l-12.628-1.6,7.693-10.141,4.985.631a.849.849,0,1,0,.213-1.685L8.441,8.464V7.213A2.7,2.7,0,0,0,10.36,4.632V2.7A2.7,2.7,0,0,0,7.664,0H2.7A2.7,2.7,0,0,0,0,2.7V4.632A2.7,2.7,0,0,0,1.919,7.213V46.155a2.452,2.452,0,0,0-.872,1.875v3.178A2.692,2.692,0,0,0,0,53.339v1.936a2.7,2.7,0,0,0,2.7,2.7H7.664a2.7,2.7,0,0,0,2.7-2.7V53.339a2.692,2.692,0,0,0-1.047-2.131V48.03a2.452,2.452,0,0,0-.872-1.875V44.849l4.438-.562v4.087a4.947,4.947,0,0,0,4.942,4.942h9.591a4.947,4.947,0,0,0,4.942-4.942V41.822L49.53,39.648v6.508a2.452,2.452,0,0,0-.872,1.875v3.178a2.692,2.692,0,0,0-1.047,2.131v1.936a2.7,2.7,0,0,0,2.7,2.7h4.969a2.7,2.7,0,0,0,2.7-2.7V53.339a2.691,2.691,0,0,0-1.047-2.131V48.03a2.452,2.452,0,0,0-.872-1.875V7.213a2.7,2.7,0,0,0,1.919-2.581Zm-3.12,42.746a.758.758,0,0,1,.374.653v2.613H50.356V48.03a.758.758,0,0,1,.375-.653c.026-.012.051-.025.076-.04a.753.753,0,0,1,.308-.066h3.351a.753.753,0,0,1,.308.066.794.794,0,0,0,.077.04Zm-3.623-1.8V7.327h3.125V45.573ZM49.309,2.7a1,1,0,0,1,1-1h4.969a1,1,0,0,1,1,1V4.632a1,1,0,0,1-1,1H50.306a1,1,0,0,1-1-1Zm-.585,12.58.806.1v9.731l-5.467.692-3.032-.384ZM33.458,39.97,25.765,29.829l12.611-1.6,7.693,10.141Zm-2.021.256c-.026,0-.051.005-.076.01L18.885,41.815,11.192,31.674l12.628-1.6,7.693,10.141ZM8.441,23,37.3,26.657,8.441,30.31Zm16.072.323L11.9,21.729,19.6,11.588l12.611,1.6ZM17.65,11.342,9.957,21.483l-1.516-.192V10.176ZM1.7,2.7a1,1,0,0,1,1-1H7.664a1,1,0,0,1,1,1V4.632a1,1,0,0,1-1,1H2.7a1,1,0,0,1-1-1ZM6.856,47.272a.76.76,0,0,1,.759.759v2.613H2.746V48.03a.76.76,0,0,1,.759-.759Zm1.806,8a1,1,0,0,1-1,1H2.7a1,1,0,0,1-1-1V53.339a1,1,0,0,1,1-1H7.664a1,1,0,0,1,1,1v1.936ZM7.592,38.36a.849.849,0,0,0-.849.849v6.364H3.617V7.327H6.743V35.813a.849.849,0,0,0,1.7,0v-3.79l.806-.1L16.94,42.061l-8.5,1.076V39.209a.849.849,0,0,0-.849-.849ZM30.655,48.374a3.247,3.247,0,0,1-3.243,3.244H17.821a3.247,3.247,0,0,1-3.244-3.244v-4.3l16.078-2.035v6.337ZM48.014,38.128,40.321,27.986l9.209-1.166V37.936Zm8.259,17.147a1,1,0,0,1-1,1H50.306a1,1,0,0,1-1-1V53.339a1,1,0,0,1,1-1h4.969a1,1,0,0,1,1,1Z" transform="translate(0 0)"/>
    </g>
  </g>
</svg>
