<svg xmlns="http://www.w3.org/2000/svg" width="72.516" height="70.794" viewBox="0 0 72.516 70.794">
  <g id="rescuer_12252729" transform="translate(12.65 12.632)">
    <g id="Grupo_1101570" data-name="Grupo 1101570" transform="translate(-12.65 -12.632)">
      <g id="Grupo_1101568" data-name="Grupo 1101568" transform="translate(3.934 3.932)">
        <g id="Grupo_1101563" data-name="Grupo 1101563" transform="translate(22.263 10.56)">
          <path id="Trazado_880588" data-name="Trazado 880588" d="M202.46,101.061a1.607,1.607,0,0,0,1.6-1.6v-4.3H184.4v4.3a1.607,1.607,0,0,0,1.6,1.6Z" transform="translate(-183.54 -94.849)" fill="#937661" fill-rule="evenodd"/>
          <path id="Trazado_880589" data-name="Trazado 880589" d="M182.874,121.572h-2.433a2.307,2.307,0,0,0,0,4.614h2.433Zm11.9,0h2.433a2.307,2.307,0,0,1,0,4.614h-2.433Z" transform="translate(-178.134 -117.636)" fill="#d5a889" fill-rule="evenodd"/>
          <path id="Trazado_880590" data-name="Trazado 880590" d="M202.651,101.455a7.326,7.326,0,0,0,14.651,0v-8.55H202.651Z" transform="translate(-199.284 -92.905)" fill="#efc7a4" fill-rule="evenodd"/>
          <path id="Trazado_880591" data-name="Trazado 880591" d="M212.673,102.3l3.238-1.24.018-.007,1.373-.526v-5.37H202.651v5.37l1.373.526.018.007,3.238,1.24a.6.6,0,0,0,.627-.117l1.242-1.123.419-.379a.608.608,0,0,1,.817,0l.419.379,1.242,1.123A.6.6,0,0,0,212.673,102.3Z" transform="translate(-199.284 -94.849)" fill="#a4d4ff" fill-rule="evenodd"/>
        </g>
        <g id="Grupo_1101565" data-name="Grupo 1101565" transform="translate(11.971 24.443)">
          <path id="Trazado_880592" data-name="Trazado 880592" d="M111.755,218.641h24.823c4.1,0,8.573,3.342,8.573,7.437V242H103.182V226.078C103.182,221.982,107.658,218.641,111.755,218.641Z" transform="translate(-103.182 -215.259)" fill="#f76c82" fill-rule="evenodd"/>
          <g id="Grupo_1101564" data-name="Grupo 1101564" transform="translate(8.572)">
            <path id="Trazado_880593" data-name="Trazado 880593" d="M165.612,218.641h24.823v38.085H165.612Z" transform="translate(-165.612 -215.259)" fill="#f76c82" fill-rule="evenodd"/>
            <path id="Trazado_880594" data-name="Trazado 880594" d="M238.318,208.958h4.856v39.415h-4.856Z" transform="translate(-228.334 -206.905)" fill="#fdcd56" fill-rule="evenodd"/>
            <path id="Trazado_880595" data-name="Trazado 880595" d="M212.918,194.008h10.647a.688.688,0,0,1,.687.687v2.7a9.122,9.122,0,0,1-12.02,0v-2.7A.688.688,0,0,1,212.918,194.008Z" transform="translate(-205.83 -194.008)" fill="#eb5463" fill-rule="evenodd"/>
          </g>
        </g>
        <g id="Grupo_1101566" data-name="Grupo 1101566" transform="translate(0 30.041)">
          <circle id="Elipse_11710" data-name="Elipse 11710" cx="6.48" cy="6.48" r="6.48" transform="translate(50.256 9.163) rotate(-45)" fill="#efc7a4"/>
          <path id="Trazado_880596" data-name="Trazado 880596" d="M20.67,293.087a2.738,2.738,0,0,1-3.862-3.883l11.971-11.9a2.742,2.742,0,0,1,2.875-.633l15.882,5.821,14.444-3.87a2.752,2.752,0,0,1,3.363,1.942l1.353,5.05a2.731,2.731,0,0,1-1.942,3.363l-16.677,4.074a5.42,5.42,0,0,1-6.565-3.79l-.531-1.983-9.58-4.859Z" transform="translate(-16 -270.774)" fill="#66d4f1" fill-rule="evenodd"/>
        </g>
        <path id="Trazado_880597" data-name="Trazado 880597" d="M103.753,334.3a4.3,4.3,0,0,0,5.855,1.569l7.547-4.357a4.286,4.286,0,0,0-4.286-7.424l-7.547,4.357a4.3,4.3,0,0,0-1.569,5.855Z" transform="translate(-91.211 -281.287)" fill="#efc7a4" fill-rule="evenodd"/>
        <path id="Trazado_880598" data-name="Trazado 880598" d="M307.018,334.3a4.3,4.3,0,0,1-5.855,1.569l-7.547-4.357a4.286,4.286,0,0,1,4.286-7.424l7.547,4.357A4.3,4.3,0,0,1,307.018,334.3Z" transform="translate(-253.65 -281.287)" fill="#efc7a4" fill-rule="evenodd"/>
        <path id="Trazado_880599" data-name="Trazado 880599" d="M351.819,314,346.4,308.7V331.7a2.711,2.711,0,0,0,5.421,0Z" transform="translate(-301.03 -268.505)" fill="#66d4f1" fill-rule="evenodd"/>
        <g id="Grupo_1101567" data-name="Grupo 1101567" transform="translate(22.159 0)">
          <path id="Trazado_880600" data-name="Trazado 880600" d="M189.321,26.849h18.312a9.159,9.159,0,0,0-6.482-8.758A2.1,2.1,0,0,0,199.059,16h-1.164a2.1,2.1,0,0,0-2.092,2.092A9.159,9.159,0,0,0,189.321,26.849Z" transform="translate(-187.681 -16)" fill="#fdcd56" fill-rule="evenodd"/>
          <path id="Trazado_880601" data-name="Trazado 880601" d="M178.065,83.729h20.219a.688.688,0,0,1,.687.687v1.569a.688.688,0,0,1-.687.687H178.065a.688.688,0,0,1-.687-.687V84.416A.688.688,0,0,1,178.065,83.729Z" transform="translate(-177.378 -74.429)" fill="#f5b945" fill-rule="evenodd"/>
        </g>
      </g>
      <g id="Grupo_1101569" data-name="Grupo 1101569" transform="translate(0 0)">
        <circle id="Elipse_11711" data-name="Elipse 11711" cx="9.496" cy="9.496" r="9.496" transform="translate(0 13.428) rotate(-45)" fill="#f76c82"/>
        <path id="Trazado_880602" data-name="Trazado 880602" d="M41.777,48.622V46.846a.688.688,0,0,1,.687-.687h3.7v-3.7a.688.688,0,0,1,.687-.687h1.776a.688.688,0,0,1,.687.687v3.7H53a.688.688,0,0,1,.687.687v1.776a.688.688,0,0,1-.687.687h-3.7V53a.688.688,0,0,1-.687.687H46.846A.688.688,0,0,1,46.159,53v-3.7h-3.7A.688.688,0,0,1,41.777,48.622Z" transform="translate(-34.303 -34.306)" fill="#f4f6f8" fill-rule="evenodd"/>
      </g>
    </g>
    <path id="Trazado_880603" data-name="Trazado 880603" d="M19.456,10.972a8.535,8.535,0,1,1-8.535,8.535A8.544,8.544,0,0,1,19.456,10.972Zm26.011,20.9a.961.961,0,0,0-1.149-1.542,3.477,3.477,0,0,1-2.849,0,.961.961,0,1,0-1.15,1.541,5.174,5.174,0,0,0,5.148,0ZM32.119,18.349a.961.961,0,0,0-.961.961v2.942a.961.961,0,0,0,.961.961h0v1.392a3.266,3.266,0,0,0,2.407,5.475h.158a8.325,8.325,0,0,0,1.451,3.792.957.957,0,0,0-.194.58v2.421H30.5a10.322,10.322,0,0,0-6.435,2.4,7.831,7.831,0,0,0-3.1,6v1.71L10.089,57.8a3.7,3.7,0,0,0,5.218,5.246l5.663-5.63v3.364c0,.047,0,.094,0,.141V61a5.247,5.247,0,0,0,7.868,4.419l.7-.406V75.921a.962.962,0,0,0,.961.961H55.327a.964.964,0,0,0,.848-.509A3.67,3.67,0,0,0,61.71,73.21V65.683a5.229,5.229,0,0,0,3.15-4.9V55.111a7.44,7.44,0,1,0-.24-11.605,8.391,8.391,0,0,0-2.858-4.228,10.328,10.328,0,0,0-6.434-2.4h-5.44V34.453a.962.962,0,0,0-.2-.579,8.328,8.328,0,0,0,1.451-3.793H51.3a3.266,3.266,0,0,0,2.408-5.475V23.214h0a.961.961,0,0,0,.961-.961V19.311a.961.961,0,0,0-.961-.961h-1a10.205,10.205,0,0,0-6.25-6.964,3.06,3.06,0,0,0-2.629-2.317H41.994a3.06,3.06,0,0,0-2.629,2.317,10.206,10.206,0,0,0-6.25,6.964h-1Zm.961,1.922H52.749v1.02H33.08Zm3.47,5.317V23.214H49.279v2.375l-3.81,1.459-1.5-1.356a1.566,1.566,0,0,0-2.106,0l-1.5,1.356Zm0,2.059,3.324,1.273a1.563,1.563,0,0,0,1.615-.3l1.425-1.288,1.425,1.288a1.565,1.565,0,0,0,1.615.3l3.324-1.273v1.474a6.388,6.388,0,0,1-1.752,4.371H38.3a6.39,6.39,0,0,1-1.752-4.371V27.647Zm1.315,7.767h10.1v1.951a8.089,8.089,0,0,1-10.1,0Zm8.438,5.05a11.278,11.278,0,0,0,2.95-1.668h5.112v8.528L46.3,49.485ZM41.743,52.7l14.444-3.87a1.787,1.787,0,0,1,2.186,1.262l1.354,5.051a2.038,2.038,0,0,1,.061.39V73.21a1.749,1.749,0,1,1-3.5,0V53.45a.963.963,0,0,0-.481-.833l-1.115-.643a5.242,5.242,0,0,0-7.687,5.9,5.261,5.261,0,0,0,1.029,2L41.808,61.4A4.546,4.546,0,0,1,37.5,60.2a5.248,5.248,0,0,0-6.362-8.227l-1.45.838L25.8,50.839a.963.963,0,0,0-1.114.176L13.951,61.684a1.777,1.777,0,0,1-2.507-2.52l11.972-11.9a1.788,1.788,0,0,1,1.866-.412l15.881,5.822a.957.957,0,0,0,.58.026ZM61.71,63.458V58.293a3.306,3.306,0,0,1,1.113,1.724,3.372,3.372,0,0,1,.115.8v.065a3.3,3.3,0,0,1-1.228,2.572Zm0-7.432v-.517c0-.013,0-.026,0-.039a3.912,3.912,0,0,0-.125-.828l-1.354-5.05a3.713,3.713,0,0,0-3.942-2.731V38.867a8.715,8.715,0,0,1,4.248,1.893,5.951,5.951,0,0,1,2.4,4.513v.24a7.41,7.41,0,0,0,0,7.4v3.9a5.353,5.353,0,0,0-.7-.483ZM34.045,23.214h.583v.331h-.1a3.31,3.31,0,0,0-.485.036Zm7.4,17.738a10.319,10.319,0,0,0,2.933,0V50l-2.841.761-.092-.034Zm7.414,16.427a3.31,3.31,0,0,1,2.348-4.066,3.369,3.369,0,0,1,.874-.116,3.283,3.283,0,0,1,1.648.443l.635.366v7.679L50.407,59.4a3.3,3.3,0,0,1-1.545-2.02ZM33.183,26.814a1.347,1.347,0,0,1,1.346-1.345h.1v2.691h-.1A1.347,1.347,0,0,1,33.183,26.814ZM36.576,38.8a11.276,11.276,0,0,0,2.95,1.668v9.559l-8.062-2.955V38.8h5.112ZM46.3,74.96V62.276l3.683-.9L54.365,63.9V74.96Zm-4.856,0V63.407a6.566,6.566,0,0,0,.817-.145l2.116-.518V74.96ZM32.1,53.64A3.325,3.325,0,0,1,35.423,59.4l-7.547,4.357a3.329,3.329,0,0,1-4.542-1.217,3.3,3.3,0,0,1-.442-1.66v-.057a3.345,3.345,0,0,1,.116-.805A3.3,3.3,0,0,1,24.55,58ZM31.464,63.9l4.456-2.572a6.391,6.391,0,0,0,3.606,2.011V74.96H31.464ZM25.293,40.76a8.715,8.715,0,0,1,4.248-1.893v7.5l-3.6-1.319a3.713,3.713,0,0,0-3.051.234v-.006a5.952,5.952,0,0,1,2.4-4.513Zm25.418-22.41H35.117a8.287,8.287,0,0,1,4.164-4.833v2.378a.961.961,0,1,0,1.922,0V12.086a1.131,1.131,0,0,1,1.13-1.114H43.5a1.131,1.131,0,0,1,1.13,1.114v3.808a.961.961,0,1,0,1.922,0V13.516a8.278,8.278,0,0,1,4.162,4.833Zm.49,4.865h.583v.368a3.327,3.327,0,0,0-.485-.036h-.1Zm0,2.254h.1a1.346,1.346,0,1,1,0,2.691h-.1ZM69.39,43.694a5.519,5.519,0,1,1-5.52,5.519A5.525,5.525,0,0,1,69.39,43.694Zm-46.5,11.812,2.654-2.638L27.7,53.959l-4.109,2.372a5.4,5.4,0,0,0-.7.483Zm2.52-38.535H21.991V13.55a.961.961,0,0,0-.961-.961H17.881a.961.961,0,0,0-.961.961v3.421H13.5a.961.961,0,0,0-.961.961v3.149a.961.961,0,0,0,.961.961H16.92v3.421a.961.961,0,0,0,.961.961h3.149a.961.961,0,0,0,.961-.961V22.042h3.421a.961.961,0,0,0,.961-.961V17.932A.961.961,0,0,0,25.412,16.971Zm-5.343.961V14.511H18.842v3.421a.961.961,0,0,1-.961.961H14.46V20.12h3.421a.961.961,0,0,1,.961.961V24.5h1.226V21.081a.962.962,0,0,1,.961-.961H24.45V18.893H21.029a.962.962,0,0,1-.961-.961ZM9,19.506A10.457,10.457,0,1,0,20.074,9.068H18.839A10.47,10.47,0,0,0,9,19.506Z" transform="translate(-18.675 -18.72)" fill-rule="evenodd"/>
  </g>
</svg>
