<svg xmlns="http://www.w3.org/2000/svg" width="57.963" height="71.156" viewBox="0 0 57.963 71.156">
  <g id="Artboard101" transform="translate(-52.984 -7)">
    <g id="Grupo_1101582" data-name="Grupo 1101582" transform="translate(52.984 7)">
      <g id="Grupo_1101581" data-name="Grupo 1101581" transform="translate(1.162 7.648)">
        <g id="Grupo_1101575" data-name="Grupo 1101575" transform="translate(0 5.691)">
          <g id="Grupo_1101571" data-name="Grupo 1101571">
            <path id="Trazado_880604" data-name="Trazado 880604" d="M103.512,99.979H68.722a1.282,1.282,0,0,0-.938.388l-6.313,6.313a1.282,1.282,0,0,0-.388.938v47.748a1.326,1.326,0,0,0,1.323,1.323h41.106a1.326,1.326,0,0,0,1.326-1.323V101.305A1.329,1.329,0,0,0,103.512,99.979Z" transform="translate(-61.083 -99.979)" fill="#eceff1" fill-rule="evenodd"/>
            <path id="Trazado_880605" data-name="Trazado 880605" d="M68.853,100.773v6.313a.665.665,0,0,1-.663.663H61.877a1.327,1.327,0,0,1,.275-.388l6.313-6.313a1.392,1.392,0,0,1,.388-.275Z" transform="translate(-61.763 -100.659)" fill="#837683" fill-rule="evenodd"/>
            <path id="Trazado_880606" data-name="Trazado 880606" d="M348.942,99.979h-1.323v56.71h1.323a1.326,1.326,0,0,0,1.326-1.323V101.305A1.329,1.329,0,0,0,348.942,99.979Z" transform="translate(-306.513 -99.979)" fill="#d1d1d6" fill-rule="evenodd"/>
          </g>
          <g id="Grupo_1101572" data-name="Grupo 1101572" transform="translate(7.875 12.109)">
            <path id="Trazado_880607" data-name="Trazado 880607" d="M116.941,184.386h7.4a.968.968,0,0,1,.966.966v7.4a.968.968,0,0,1-.966.966h-7.4a.968.968,0,0,1-.966-.966v-7.4A.968.968,0,0,1,116.941,184.386Z" transform="translate(-115.975 -184.386)" fill="#8ac9fe" fill-rule="evenodd"/>
            <path id="Trazado_880608" data-name="Trazado 880608" d="M164.3,184.386h1.435a.968.968,0,0,1,.966.966v7.4a.968.968,0,0,1-.966.966H164.3a.968.968,0,0,0,.966-.966v-7.4A.968.968,0,0,0,164.3,184.386Z" transform="translate(-157.368 -184.386)" fill="#60b7ff" fill-rule="evenodd"/>
          </g>
          <g id="Grupo_1101573" data-name="Grupo 1101573" transform="translate(7.875 25.431)">
            <path id="Trazado_880609" data-name="Trazado 880609" d="M116.941,277.25h7.4a.968.968,0,0,1,.966.966v7.4a.968.968,0,0,1-.966.966h-7.4a.968.968,0,0,1-.966-.966v-7.4A.968.968,0,0,1,116.941,277.25Z" transform="translate(-115.975 -277.25)" fill="#ffe177" fill-rule="evenodd"/>
            <path id="Trazado_880610" data-name="Trazado 880610" d="M164.3,277.25h1.435a.968.968,0,0,1,.966.966v7.4a.968.968,0,0,1-.966.966H164.3a.968.968,0,0,0,.966-.966v-7.4A.968.968,0,0,0,164.3,277.25Z" transform="translate(-157.368 -277.25)" fill="#ffd064" fill-rule="evenodd"/>
          </g>
          <g id="Grupo_1101574" data-name="Grupo 1101574" transform="translate(7.875 38.754)">
            <path id="Trazado_880611" data-name="Trazado 880611" d="M116.941,370.115h7.4a.971.971,0,0,1,.966.969v7.4a.968.968,0,0,1-.966.966h-7.4a.968.968,0,0,1-.966-.966v-7.4A.971.971,0,0,1,116.941,370.115Z" transform="translate(-115.975 -370.115)" fill="#fe646f" fill-rule="evenodd"/>
            <path id="Trazado_880612" data-name="Trazado 880612" d="M164.3,370.115h1.435a.971.971,0,0,1,.966.969v7.4a.968.968,0,0,1-.966.966H164.3a.968.968,0,0,0,.966-.966v-7.4A.971.971,0,0,0,164.3,370.115Z" transform="translate(-157.368 -370.115)" fill="#fd4755" fill-rule="evenodd"/>
          </g>
        </g>
        <g id="Grupo_1101579" data-name="Grupo 1101579" transform="translate(13.279)">
          <g id="Grupo_1101577" data-name="Grupo 1101577" transform="translate(2.354)">
            <g id="Grupo_1101576" data-name="Grupo 1101576">
              <path id="Trazado_880613" data-name="Trazado 880613" d="M182.082,73.194H170.059V66.322a6.011,6.011,0,0,1,12.023,0Z" transform="translate(-170.059 -60.311)" fill="#fe646f" fill-rule="evenodd"/>
              <path id="Trazado_880614" data-name="Trazado 880614" d="M206.961,60.353a6.015,6.015,0,0,1,6.729,5.969v6.871h-1.435V66.322A6.016,6.016,0,0,0,206.961,60.353Z" transform="translate(-201.667 -60.311)" fill="#fd4755" fill-rule="evenodd"/>
            </g>
          </g>
          <g id="Grupo_1101578" data-name="Grupo 1101578" transform="translate(0 11.591)">
            <path id="Trazado_880615" data-name="Trazado 880615" d="M170.837,142.539a1.429,1.429,0,0,0-1.429-1.429H155.076a1.429,1.429,0,1,0,0,2.857h14.333A1.429,1.429,0,0,0,170.837,142.539Z" transform="translate(-153.647 -141.11)" fill="#837683" fill-rule="evenodd"/>
            <path id="Trazado_880616" data-name="Trazado 880616" d="M170.394,143.883a1.429,1.429,0,0,0-1.345-1.912H154.717a1.422,1.422,0,0,0-.484.084,1.43,1.43,0,0,1,1.345-.945H169.91a1.429,1.429,0,0,1,.484,2.773Z" transform="translate(-154.149 -141.11)" fill="#685e68" fill-rule="evenodd"/>
          </g>
        </g>
        <g id="Grupo_1101580" data-name="Grupo 1101580" transform="translate(33.516 33.904)">
          <path id="Trazado_880617" data-name="Trazado 880617" d="M306.587,296.761l10.151,4.35a1.026,1.026,0,0,1,.633.961v8.474c0,6.725-4.816,11.918-11.332,13.054-6.516-1.136-11.332-6.33-11.332-13.054v-8.474a1.026,1.026,0,0,1,.633-.961l10.151-4.35A1.349,1.349,0,0,1,306.587,296.761Z" transform="translate(-294.706 -296.645)" fill="#8ac9fe" fill-rule="evenodd"/>
          <path id="Trazado_880618" data-name="Trazado 880618" d="M441.866,325.025l.92.4a1.026,1.026,0,0,1,.633.961v8.474a13,13,0,0,1-1.553,6.239Z" transform="translate(-420.754 -320.954)" fill="#60b7ff" fill-rule="evenodd"/>
        </g>
        <path id="Trazado_880619" data-name="Trazado 880619" d="M326.348,361.157a1.588,1.588,0,0,1,2.245-2.245l2.429,2.429,5.869-5.925a1.584,1.584,0,0,1,2.245,2.234c-3.03,3.06-3.943,4.014-6.992,7.059a1.582,1.582,0,0,1-2.245,0Z" transform="translate(-287.892 -312.68)" fill="#eceff1" fill-rule="evenodd"/>
      </g>
      <path id="Trazado_880620" data-name="Trazado 880620" d="M99.031,76.766v.243a1.148,1.148,0,0,1-1.148,1.148H54.132a1.148,1.148,0,0,1-1.148-1.148V27.394a1.147,1.147,0,0,1,.336-.812l7.091-7.091a1.148,1.148,0,0,1,.812-.336h7.546a7.16,7.16,0,0,1,14.016,0h15.1A1.148,1.148,0,0,1,99.031,20.3V47.51a1.149,1.149,0,0,1,.4.091l10.821,4.633a1.148,1.148,0,0,1,.7,1.055v9.334a14.435,14.435,0,0,1-11.76,14.124A1.153,1.153,0,0,1,99.031,76.766ZM68.618,21.451H62.37v5.943a1.148,1.148,0,0,1-1.148,1.148H55.279V75.861H95.816a14.453,14.453,0,0,1-8.8-12.9H77.238a1.148,1.148,0,1,1,0-2.3h9.775V53.289a1.148,1.148,0,0,1,.7-1.055l9.028-3.867V21.451h-13.8v3.605h.237a2.576,2.576,0,1,1,0,5.152H68.839a2.576,2.576,0,0,1-.222-5.143Zm-8.543,1.623L56.9,26.246h3.172ZM80.64,25.056V20.624a4.864,4.864,0,1,0-9.727,0v4.432Zm2.532,2.3H68.839a.281.281,0,1,0,0,.562H83.172a.281.281,0,1,0,0-.562ZM98.978,49.9l-9.67,4.142v8.577a12.131,12.131,0,0,0,9.67,11.826,12.13,12.13,0,0,0,9.673-11.826V54.046Zm-7.2,14,0,0a2.735,2.735,0,0,1,3.866-3.871l0,0,1.614,1.614,5.057-5.106h0a2.731,2.731,0,0,1,3.875,3.851c-3.032,3.062-3.945,4.016-7,7.063a2.728,2.728,0,0,1-3.868,0ZM93.4,62.278l3.552,3.552,0,0a.435.435,0,0,0,.617,0l0,0c3.047-3.043,3.959-4,6.987-7.055l0,0a.436.436,0,0,0-.617-.616l-5.868,5.924a1.148,1.148,0,0,1-1.627,0l-2.427-2.427a.442.442,0,0,0-.624,0l0,0a.435.435,0,0,0,0,.617l0,0ZM62.972,44.587h7.4A2.119,2.119,0,0,1,72.487,46.7v7.4a2.119,2.119,0,0,1-2.113,2.113h-7.4A2.119,2.119,0,0,1,60.859,54.1V46.7A2.119,2.119,0,0,1,62.972,44.587Zm.182,2.3V53.92h7.038V46.882Zm-.182,11.027h7.4a2.123,2.123,0,0,1,2.113,2.117v7.4a2.119,2.119,0,0,1-2.113,2.113h-7.4a2.119,2.119,0,0,1-2.113-2.113v-7.4A2.123,2.123,0,0,1,62.972,57.909Zm.182,2.3v7.041h7.038V60.2ZM77.238,40.142a1.148,1.148,0,1,1,0-2.3h7.888a1.148,1.148,0,1,1,0,2.3Zm0,26.648a1.148,1.148,0,1,1,0-2.3h7.888a1.148,1.148,0,0,1,0,2.3Zm0-13.326a1.148,1.148,0,1,1,0-2.3h7.888a1.148,1.148,0,1,1,0,2.3Zm0-3.83a1.148,1.148,0,1,1,0-2.3H89.354a1.148,1.148,0,1,1,0,2.3Zm0-13.322a1.148,1.148,0,1,1,0-2.3H89.354a1.148,1.148,0,1,1,0,2.3ZM62.972,31.265h7.4a2.119,2.119,0,0,1,2.113,2.113v7.4a2.119,2.119,0,0,1-2.113,2.113h-7.4a2.119,2.119,0,0,1-2.113-2.113v-7.4a2.119,2.119,0,0,1,2.113-2.113Zm.182,2.3V40.6h7.038V33.56Zm10.8-10.246a1.148,1.148,0,0,1-2.3,0V20.16a1.14,1.14,0,0,1,.009-.145,5.15,5.15,0,0,1,2.008-3.293A1.148,1.148,0,1,1,75.12,18.51a2.9,2.9,0,0,0-1.161,1.731Zm3.092-12a1.148,1.148,0,0,1-2.3,0V8.148a1.148,1.148,0,0,1,2.3,0Zm4.955,3.765a1.148,1.148,0,1,1-1.148-1.988L83.6,11.507A1.148,1.148,0,1,1,84.752,13.5ZM70.7,13.093a1.148,1.148,0,1,1-1.148,1.988L66.8,13.5a1.148,1.148,0,1,1,1.148-1.988Z" transform="translate(-52.984 -7)" fill-rule="evenodd"/>
    </g>
  </g>
</svg>
