<svg xmlns="http://www.w3.org/2000/svg" width="83" height="83" viewBox="0 0 83 83">
  <g id="Grupo_1099157" data-name="Grupo 1099157" transform="translate(-764.781 -2279)">
    <rect id="Rectángulo_401243" data-name="Rectángulo 401243" width="83" height="83" transform="translate(764.781 2279)" fill="none"/>
    <g id="Icons" transform="translate(772.386 2286)">
      <g id="Grupo_1101739" data-name="Grupo 1101739" transform="translate(2.566 2.659)">
        <path id="Trazado_880892" data-name="Trazado 880892" d="M83.639,111.313l-2.854-2.854,6.542-6.542a2.018,2.018,0,0,1,2.854,2.854Z" transform="translate(-60.915 -76.26)" fill="#efefef"/>
        <path id="Trazado_880893" data-name="Trazado 880893" d="M116.21,143.884l-2.854-2.854,6.542-6.542a2.018,2.018,0,1,1,2.854,2.854Z" transform="translate(-85.211 -100.557)" fill="#efefef"/>
        <path id="Trazado_880894" data-name="Trazado 880894" d="M12.1,224.584v0l-3.689,3.686-3.341-3.29,3.714-3.711Z" transform="translate(-4.432 -165.736)" fill="#afafaf"/>
        <path id="Trazado_880895" data-name="Trazado 880895" d="M71.153,133.443,53.213,115.5a1.512,1.512,0,0,1,0-2.139l1.968-1.968a1.512,1.512,0,0,1,2.139,0l17.94,17.94a1.512,1.512,0,0,1,0,2.139l-1.968,1.968A1.512,1.512,0,0,1,71.153,133.443Z" transform="translate(-40.017 -83.443)" fill="#f0c020"/>
        <path id="Trazado_880896" data-name="Trazado 880896" d="M48.391,148.045,47.2,149.239l-5.21,5.21a7.562,7.562,0,0,1-10.694,0l-5.962-5.962a7.562,7.562,0,0,1,0-10.694l6.4-6.4Z" transform="translate(-17.896 -98.687)" fill="#72c2e9"/>
        <path id="Trazado_880897" data-name="Trazado 880897" d="M0,0H1.688V23.556H0Z" transform="translate(12.64 33.895) rotate(-45)" fill="#4ba5c8"/>
        <path id="Trazado_880898" data-name="Trazado 880898" d="M17.5,204.289l3.765,3.765a1.512,1.512,0,0,0,2.139,0l3.341-3.341-5.9-5.9L17.5,202.15A1.512,1.512,0,0,0,17.5,204.289Z" transform="translate(-13.372 -148.98)" fill="#f0c020"/>
        <circle id="Elipse_11712" data-name="Elipse 11712" cx="2.199" cy="2.199" r="2.199" transform="translate(14.571 44.228)" fill="#afafaf"/>
        <path id="Trazado_880899" data-name="Trazado 880899" d="M228.106,8.5l-3.711,3.714h0L221.077,8.9h0l3.734-3.737Z" transform="translate(-165.567 -4.525)" fill="#afafaf"/>
        <path id="Trazado_880900" data-name="Trazado 880900" d="M115.319,53.4l17.94,17.94a1.512,1.512,0,0,1,0,2.139l-1.968,1.968a1.512,1.512,0,0,1-2.139,0L111.212,57.5a1.512,1.512,0,0,1,0-2.139L113.18,53.4a1.512,1.512,0,0,1,2.139,0Z" transform="translate(-83.282 -40.177)" fill="#f0c020"/>
        <path id="Trazado_880901" data-name="Trazado 880901" d="M131.206,31.919l1.193-1.193,5.21-5.21a7.562,7.562,0,0,1,10.694,0l5.962,5.962a7.562,7.562,0,0,1,0,10.694l-6.4,6.4Z" transform="translate(-98.527 -18.057)" fill="#72c2e9"/>
        <path id="Trazado_880902" data-name="Trazado 880902" d="M0,0H1.688V23.555H0Z" transform="translate(32.674 13.866) rotate(-45)" fill="#4ba5c8"/>
        <path id="Trazado_880903" data-name="Trazado 880903" d="M207.87,21.445,204.1,17.679a1.512,1.512,0,0,0-2.139,0l-3.341,3.341,5.9,5.9,3.341-3.341a1.512,1.512,0,0,0,0-2.139Z" transform="translate(-148.819 -13.533)" fill="#f0c020"/>
        <circle id="Elipse_11713" data-name="Elipse 11713" cx="2.199" cy="2.199" r="2.199" transform="translate(44.205 14.594)" fill="#afafaf"/>
        <path id="Trazado_880904" data-name="Trazado 880904" d="M184.411,175.309a9.244,9.244,0,0,0-5.246,1.624l-1.948-1.948A1.709,1.709,0,0,0,174.8,177.4l1.948,1.948a9.286,9.286,0,1,0,7.662-4.04Z" transform="translate(-130.674 -130.835)" fill="#fc5d3d"/>
        <path id="Trazado_880905" data-name="Trazado 880905" d="M203.8,201.558l1.406-1.406a1.715,1.715,0,0,0-2.426-2.426l-1.406,1.406-1.406-1.406a1.715,1.715,0,0,0-2.426,2.426l1.406,1.406-1.406,1.406a1.715,1.715,0,0,0,2.426,2.426l1.406-1.406,1.406,1.406a1.715,1.715,0,0,0,2.426-2.426Z" transform="translate(-147.635 -147.798)" fill="#efefef"/>
        <path id="Trazado_880906" data-name="Trazado 880906" d="M42.2,196.528,38.569,192.9a.635.635,0,0,1,.9-.9l3.626,3.627a4.511,4.511,0,0,0,6.387,0l3.338-3.338a.635.635,0,0,1,.9.9l-3.338,3.338a5.78,5.78,0,0,1-8.183,0Zm-5.423-5.423-.539-.539a.635.635,0,0,1,.9-.9l.539.539a.635.635,0,0,1-.9.9Z" transform="translate(-27.542 -142.022)" fill="#c5e5fe"/>
        <path id="Trazado_880907" data-name="Trazado 880907" d="M164.253,38.839l-.539-.539a.635.635,0,0,1,.9-.9l.539.539a.635.635,0,1,1-.9.9ZM161.918,36.5l-3.627-3.627a4.511,4.511,0,0,0-6.387,0l-3.338,3.338a.635.635,0,1,1-.9-.9l3.338-3.338a5.78,5.78,0,0,1,8.183,0l3.627,3.627a.635.635,0,0,1-.9.9Z" transform="translate(-110.668 -23.265)" fill="#c5e5fe"/>
        <path id="Trazado_880908" data-name="Trazado 880908" d="M3.651,134.091l3.265-3.263,2.417,2.417-3.239,3.237a.635.635,0,0,0,.9.9l3.258-3.256a2.145,2.145,0,0,0,2.793-.207l2.908-2.908a8.152,8.152,0,0,0,3.554,1.8.635.635,0,1,0,.279-1.24,6.909,6.909,0,0,1-3.371-1.86l0,0-5.958-5.958a6.927,6.927,0,0,1,0-9.8L16.4,108l15.758,15.758c-1.756,1.757,1.068-1.066-5.955,5.953a6.884,6.884,0,0,1-1.885,1.344.635.635,0,1,0,.551,1.143,8.189,8.189,0,0,0,2.233-1.588l5.954-5.954.193.193a2.146,2.146,0,0,0,3.037,0l1.968-1.968a2.15,2.15,0,0,0,0-3.037L35.3,116.883l5.254-5.254a2.653,2.653,0,0,0-3.752-3.752l-5.254,5.254-4.522-4.522,5.254-5.254A2.653,2.653,0,0,0,28.53,99.6l-5.254,5.254L20.319,101.9a2.146,2.146,0,0,0-3.037,0l-1.968,1.968a2.146,2.146,0,0,0,0,3.037l.193.193-5.954,5.954a8.193,8.193,0,0,0-.4,11.156L6.24,127.117a2.15,2.15,0,0,0-.2,2.8l-3.283,3.28a.635.635,0,0,0,.9.9ZM37.7,108.774a1.383,1.383,0,1,1,1.956,1.956L34.4,115.985l-1.956-1.956ZM29.428,100.5a1.383,1.383,0,0,1,1.956,1.956l-5.254,5.254-1.956-1.956Zm-13.216,4.265L18.18,102.8a.877.877,0,0,1,1.241,0l17.94,17.94a.878.878,0,0,1,0,1.241l-1.968,1.968a.9.9,0,0,1-1.241,0l-.64-.64,0,0-17.3-17.3a.876.876,0,0,1,0-1.24ZM7.138,128.015l2.892-2.892,5.006,5.006-2.892,2.892a.878.878,0,0,1-1.241,0l-3.765-3.765a.878.878,0,0,1,0-1.24Z" transform="translate(-2.566 -74.395)"/>
        <path id="Trazado_880909" data-name="Trazado 880909" d="M60.258,174.261a2.834,2.834,0,1,0,2.834,2.834A2.837,2.837,0,0,0,60.258,174.261Zm0,4.4a1.564,1.564,0,1,1,1.564-1.564A1.566,1.566,0,0,1,60.258,178.659Z" transform="translate(-43.488 -130.668)"/>
        <path id="Trazado_880910" data-name="Trazado 880910" d="M77.939,229.453h.005a.632.632,0,0,0,.554-.7.639.639,0,0,0-.7-.561h0a.635.635,0,0,0,.142,1.263Z" transform="translate(-58.266 -170.895)"/>
        <path id="Trazado_880911" data-name="Trazado 880911" d="M176.911,63.276a2.834,2.834,0,1,0-2.834-2.834A2.837,2.837,0,0,0,176.911,63.276Zm0-4.4a1.564,1.564,0,1,1-1.564,1.564A1.566,1.566,0,0,1,176.911,58.877Z" transform="translate(-130.507 -43.648)"/>
        <path id="Trazado_880912" data-name="Trazado 880912" d="M172.141,21a.635.635,0,1,0,.7.559A.637.637,0,0,0,172.141,21Z" transform="translate(-128.641 -16.337)"/>
        <path id="Trazado_880913" data-name="Trazado 880913" d="M110.87,15.43,108.9,17.4a2.151,2.151,0,0,0,0,3.037l17.94,17.94a2.15,2.15,0,0,0,3.037,0l1.968-1.968a2.146,2.146,0,0,0,0-3.037l-.193-.193,5.954-5.954a8.206,8.206,0,0,0,.4-11.155l2.909-2.909a2.149,2.149,0,0,0,.207-2.793l3.281-3.284a.635.635,0,0,0-.9-.9l-3.262,3.265L137.83,7.031l3.285-3.288a.635.635,0,0,0-.9-.9l-3.3,3.306a2.141,2.141,0,0,0-2.8.205L131.21,9.263a8.188,8.188,0,0,0-3.555-1.8.644.644,0,0,0-.76.48.633.633,0,0,0,.48.76,6.909,6.909,0,0,1,3.371,1.86l0,0,5.959,5.959a6.935,6.935,0,0,1,0,9.8l-5.954,5.954L115,16.521c1.619-1.619-.223.221,5.954-5.953a6.889,6.889,0,0,1,1.885-1.344.631.631,0,0,0,.3-.846.649.649,0,0,0-.849-.3,8.184,8.184,0,0,0-2.233,1.588c-4.907,4.907-5.878,5.879-5.953,5.954l-.193-.193a2.15,2.15,0,0,0-3.036,0Zm24.146-8.175a.9.9,0,0,1,1.241,0l3.765,3.765a.878.878,0,0,1,0,1.241l-2.892,2.892-5.006-5.006Zm-4.068,28.254-1.968,1.968a.879.879,0,0,1-1.241,0L109.8,19.537a.879.879,0,0,1,0-1.241l1.968-1.968a.879.879,0,0,1,1.241,0l17.94,17.94a.876.876,0,0,1,0,1.24Z" transform="translate(-81.42 -2.659)"/>
        <path id="Trazado_880914" data-name="Trazado 880914" d="M69.888,72.474a.635.635,0,0,0-.635.635v.973a.635.635,0,1,0,1.27,0v-.973A.635.635,0,0,0,69.888,72.474Z" transform="translate(-52.312 -54.739)"/>
        <path id="Trazado_880915" data-name="Trazado 880915" d="M70.523,45.886a.635.635,0,1,0-1.27,0v3.968a.635.635,0,1,0,1.27,0Z" transform="translate(-52.312 -34.431)"/>
        <path id="Trazado_880916" data-name="Trazado 880916" d="M85.611,72.474a.635.635,0,0,0-.635.635v.973a.635.635,0,1,0,1.27,0v-.973A.635.635,0,0,0,85.611,72.474Z" transform="translate(-64.041 -54.739)"/>
        <path id="Trazado_880917" data-name="Trazado 880917" d="M86.246,45.886a.635.635,0,1,0-1.27,0v3.968a.635.635,0,1,0,1.27,0Z" transform="translate(-64.041 -34.431)"/>
        <path id="Trazado_880918" data-name="Trazado 880918" d="M195.231,203.972a2.349,2.349,0,0,0,3.324,0l.957-.956.956.956a2.35,2.35,0,0,0,3.324-3.324l-.956-.956.956-.956a2.35,2.35,0,1,0-3.324-3.324l-.956.956-.957-.956a2.35,2.35,0,0,0-3.324,3.324l.956.956-.956.956a2.353,2.353,0,0,0,0,3.324Zm.9-2.426,1.406-1.406a.635.635,0,0,0,0-.9l-1.406-1.405a1.08,1.08,0,0,1,1.528-1.528l1.406,1.406a.654.654,0,0,0,.9,0l1.405-1.405a1.08,1.08,0,1,1,1.528,1.528l-1.405,1.406a.635.635,0,0,0,0,.9l1.405,1.406a1.08,1.08,0,1,1-1.528,1.528l-1.405-1.406a.635.635,0,0,0-.9,0l-1.406,1.406a1.08,1.08,0,1,1-1.528-1.528Z" transform="translate(-145.775 -145.931)"/>
        <path id="Trazado_880919" data-name="Trazado 880919" d="M182.544,192.655a9.921,9.921,0,1,0-5.16-18.4l-1.585-1.585a2.344,2.344,0,1,0-3.314,3.315l1.584,1.585a9.922,9.922,0,0,0,8.475,15.081Zm-7.213-15.616-1.948-1.948a1.074,1.074,0,0,1,1.518-1.518l1.948,1.948a.635.635,0,0,0,.808.074,8.652,8.652,0,1,1-2.252,2.252.635.635,0,0,0-.075-.808Z" transform="translate(-128.807 -128.974)"/>
      </g>
    </g>
  </g>
</svg>
