<svg xmlns="http://www.w3.org/2000/svg" width="83" height="83" viewBox="0 0 83 83">
  <g id="Grupo_1099157" data-name="Grupo 1099157" transform="translate(-764.781 -2279)">
    <rect id="Rectángulo_401243" data-name="Rectángulo 401243" width="83" height="83" transform="translate(764.781 2279)" fill="none"/>
    <g id="traffic-cone_3845204" transform="translate(770.281 2211.638)">
      <g id="Grupo_1101741" data-name="Grupo 1101741" transform="translate(1.084 85.088)">
        <g id="Grupo_1101740" data-name="Grupo 1101740" transform="translate(0 0)">
          <path id="Trazado_880936" data-name="Trazado 880936" d="M94.632,136.226l-29.4-2.145,1.8-7.241,2.281-5.294.354-5.294,1.8-7.241,2.3-5.388.331-5.2,1.54-6.187a.964.964,0,0,1,.935-.731h6.664a.963.963,0,0,1,.935.731Z" transform="translate(-56.89 -91.505)" fill="#f07281"/>
          <path id="Trazado_880937" data-name="Trazado 880937" d="M214.911,274.645l-4.01,16.106,8.343,2.145Z" transform="translate(-181.503 -248.175)" fill="#eb5569"/>
          <path id="Trazado_880938" data-name="Trazado 880938" d="M77.706,273.314H98.759l3.3-5.294-2.281-5.294H80.342Z" transform="translate(-67.559 -237.979)" fill="#efedef"/>
          <path id="Trazado_880939" data-name="Trazado 880939" d="M186.381,92.235a.964.964,0,0,0-.935-.731h-2.891a.964.964,0,0,1,.935.731l10.417,41.845,1.6,1.927,1.294-1.927-1.8-7.241-2.5-6.182-.134-4.407-1.8-7.241-2.386-5.714-.25-4.875Z" transform="translate(-157.254 -91.504)" fill="#eb5569"/>
          <path id="Trazado_880940" data-name="Trazado 880940" d="M108.415,149.956h15.827l-.547-6.068-2.089-4.52H111.051Z" transform="translate(-93.83 -132.449)" fill="#efedef"/>
          <path id="Trazado_880941" data-name="Trazado 880941" d="M199.681,139.367l2.636,10.589h2.891l-2.636-10.589Z" transform="translate(-171.905 -132.449)" fill="#e5e1e5"/>
          <path id="Trazado_880942" data-name="Trazado 880942" d="M229.914,273.314l-2.636-10.588h-2.891l.811,3.257-1.825,7.331Z" transform="translate(-192.173 -237.979)" fill="#e5e1e5"/>
          <path id="Trazado_880943" data-name="Trazado 880943" d="M260.3,136.226l-29.4-2.145,1.8-7.241,2.281-5.294.354-5.294,1.8-7.241,2.3-5.388.331-5.2,1.54-6.187a.964.964,0,0,1,.935-.731h6.664a.963.963,0,0,1,.935.731Z" transform="translate(-198.613 -91.506)" fill="#f07281"/>
          <path id="Trazado_880944" data-name="Trazado 880944" d="M352.048,92.235a.964.964,0,0,0-.935-.731h-2.891a.963.963,0,0,1,.935.731l10.417,41.845,1.6,1.927,1.294-1.927-1.8-7.241-2.5-6.182-.134-4.407-1.8-7.241-2.386-5.714-.25-4.875Z" transform="translate(-298.977 -91.504)" fill="#eb5569"/>
          <path id="Trazado_880945" data-name="Trazado 880945" d="M274.082,149.956h15.827l-.547-6.068-2.089-4.52H276.718Z" transform="translate(-235.553 -132.449)" fill="#efedef"/>
          <path id="Trazado_880946" data-name="Trazado 880946" d="M243.373,273.314h24.7l-.354-5.294-2.282-5.294H246.009Z" transform="translate(-209.282 -237.979)" fill="#efedef"/>
          <path id="Trazado_880947" data-name="Trazado 880947" d="M398.692,273.314h2.891l-2.636-10.588h-2.891Z" transform="translate(-339.898 -237.979)" fill="#e5e1e5"/>
          <path id="Trazado_880948" data-name="Trazado 880948" d="M365.347,139.367l2.636,10.589h2.891l-2.636-10.589Z" transform="translate(-313.627 -132.449)" fill="#e5e1e5"/>
          <path id="Trazado_880949" data-name="Trazado 880949" d="M29.595,386.084H9.987a2.487,2.487,0,1,0,0,4.974H29.595c1.373,0,4.746-1.113,4.746-2.487s-3.372-2.487-4.746-2.487Z" transform="translate(-7.5 -343.508)" fill="#7a6d79"/>
          <path id="Trazado_880950" data-name="Trazado 880950" d="M170.483,388.571A2.487,2.487,0,0,0,168,386.084H145.654a2.487,2.487,0,1,0,0,4.974H168A2.487,2.487,0,0,0,170.483,388.571Z" transform="translate(-123.559 -343.508)" fill="#685e68"/>
          <path id="Trazado_880951" data-name="Trazado 880951" d="M217.6,386.084H175.654a2.487,2.487,0,1,0,0,4.974H217.6a2.487,2.487,0,1,0,0-4.974Z" transform="translate(-149.223 -343.508)" fill="#7a6d79"/>
          <path id="Trazado_880952" data-name="Trazado 880952" d="M461.63,386.084h-4.336a2.487,2.487,0,0,1,0,4.974h4.336a2.487,2.487,0,0,0,0-4.974Z" transform="translate(-392.285 -343.508)" fill="#685e68"/>
        </g>
      </g>
      <path id="Trazado_880953" data-name="Trazado 880953" d="M70.429,133.722a3.571,3.571,0,0,0,0-7.142h-5.01L55.206,85.557A2.044,2.044,0,0,0,53.22,84H44.725a2.044,2.044,0,0,0-1.987,1.553L37,108.6,31.262,85.557A2.044,2.044,0,0,0,29.276,84H20.781a2.044,2.044,0,0,0-1.987,1.553l-2.1,8.427a1.084,1.084,0,0,0,2.1.524l.353-1.418H30.9L33,101.51H17.056l.6-2.412a1.084,1.084,0,1,0-2.1-.524L8.581,126.58H3.571a3.571,3.571,0,0,0,0,7.142ZM35.9,113.041l-1.568,6.3H12.618l2.1-8.421H35.342Zm4.565-9.362h8.817a1.084,1.084,0,0,0,0-2.168H41l2.1-8.421H54.847l2.1,8.421H54a1.084,1.084,0,1,0,0,2.168h3.481l1.263,5.073H39.2Zm18.825,7.241,2.1,8.421H36.562l2.1-8.421ZM36.022,121.507h25.9l1.263,5.073H34.759Zm8.8-35.335h8.307l1.182,4.75H43.636Zm-25.126,4.75,1.182-4.75h8.307l1.182,4.75Zm13.847,12.756,1.263,5.073H15.254l1.263-5.073Zm-17.6,25.07a1.084,1.084,0,1,0,0-2.168H10.815l1.263-5.073h21.71l-1.263,5.073H20.667a1.084,1.084,0,0,0,0,2.168h3.564a3.566,3.566,0,0,0,0,2.806H3.571a1.4,1.4,0,1,1,0-2.806Zm54.486,2.806H27.515a1.4,1.4,0,1,1,0-2.806H70.429a1.4,1.4,0,1,1,0,2.806Z"/>
    </g>
  </g>
</svg>
