<svg xmlns="http://www.w3.org/2000/svg" width="83" height="83" viewBox="0 0 83 83">
  <g id="Grupo_1099157" data-name="Grupo 1099157" transform="translate(-764.781 -2279)">
    <rect id="Rectángulo_401243" data-name="Rectángulo 401243" width="83" height="83" transform="translate(764.781 2279)" fill="none"/>
    <g id="sensor_15768736" transform="translate(604.34 2119.204)">
      <g id="Layer_x0020_1" transform="translate(174.31 172.513)">
        <g id="_586469336">
          <path id="Trazado_880961" data-name="Trazado 880961" d="M536.9,528.49H526.471l-.574,2.767h11.574Zm-40.526-7.12h-5.7a1.015,1.015,0,0,1-1.012-1.012V516h-2.43a1.056,1.056,0,0,1-.979-.709L485,511.112l.034-11.034,4.015-15.893a1.013,1.013,0,0,1,.979-.776h30.808a1.013,1.013,0,0,1,.979.776l4.049,16.163-.034,10.9-1.215,4.049a1.056,1.056,0,0,1-.979.709h-2.43v4.353a1.015,1.015,0,0,1-1.012,1.012h-5.7a1.015,1.015,0,0,1-1.012-1.012V516h-16.1v4.353A1.038,1.038,0,0,1,496.372,521.37Zm-4.69-2.025h3.678V516h-3.678Zm23.823,0h3.678V516H515.5Zm5.4-18.323H489.96a1.017,1.017,0,0,1-.979-1.282l3.206-12.013a.978.978,0,0,1,.979-.776H517.7a.978.978,0,0,1,.979.776l3.206,12.013A1.033,1.033,0,0,1,520.9,501.022ZM491.276,499h28.311l-2.666-10.022H493.942Zm32.563,1.451-3.779-15.016H490.8l-3.779,15.016v9.583h36.814ZM487.969,513.98h34.925l.574-1.923H487.4Zm6.276-4.994a3.459,3.459,0,1,1,0-6.917,3.459,3.459,0,1,1,0,6.917Zm0-4.893a1.434,1.434,0,1,0,0,2.868A1.434,1.434,0,1,0,494.246,504.093Zm22.372,4.893a3.459,3.459,0,1,1,3.476-3.442A3.493,3.493,0,0,1,516.618,508.986Zm0-4.893a1.434,1.434,0,1,0,0,2.868A1.434,1.434,0,1,0,516.618,504.093Zm-5.669.911H499.915a1.012,1.012,0,1,1,0-2.025h11.034A1.012,1.012,0,1,1,510.949,505Zm0,3.071H499.915a1.012,1.012,0,1,1,0-2.025h11.034A1.012,1.012,0,1,1,510.949,508.075Zm-5.635-26.05h-13.8a1.012,1.012,0,1,1,0-2.025h13.8A1.013,1.013,0,0,1,505.314,482.025Zm35.937,55.542H522.118a1.015,1.015,0,0,1-1.012-1.012v-4.285c0-1.282,1.586-1.012,2.733-1.012l3.779-18.593a1.008,1.008,0,0,1,.979-.81h6.141a1.017,1.017,0,0,1,1.012.81l3.779,18.593c1.147,0,2.733-.27,2.733,1.012v4.285A1.015,1.015,0,0,1,541.251,537.567Zm-18.12-2.025h17.108v-2.261H523.13Zm3.745-9.077h9.617l-.607-2.9h-8.436Zm8.6-4.927-.574-2.868h-6.445l-.574,2.868Zm-.979-4.893-.574-2.767H529.44l-.574,2.767Zm-6.175-18.188a1,1,0,0,1-.979-.742L523.67,484.69a1.015,1.015,0,0,1,1.957-.54l3.678,13.025A1.017,1.017,0,0,1,528.327,498.458Zm-22.912,25.51a5.535,5.535,0,0,1-3.273-1.012,1,1,0,0,1,1.181-1.62,3.831,3.831,0,0,0,4.218,0,1,1,0,0,1,1.181,1.62A5.565,5.565,0,0,1,505.415,523.968Zm0,3.88a9.13,9.13,0,0,1-5.466-1.687,1,1,0,0,1,1.181-1.62,7.889,7.889,0,0,0,8.571,0,1.012,1.012,0,0,1,1.215,1.62A9.232,9.232,0,0,1,505.415,527.848Zm0,3.678a13.638,13.638,0,0,1-7.9-2.4,1.027,1.027,0,0,1,1.215-1.654,11.968,11.968,0,0,0,13.4,0,1.027,1.027,0,0,1,1.215,1.654A13.668,13.668,0,0,1,505.415,531.526Z" transform="translate(-485 -480)" fill="#12263f" fill-rule="evenodd"/>
          <g id="Grupo_1101742" data-name="Grupo 1101742" transform="translate(6.681 33.879)">
            <path id="Trazado_880962" data-name="Trazado 880962" d="M1632.108,2059H1615v2.261h17.108Z" transform="translate(-1583.551 -2039.598)" fill="#ff3e1a" fill-rule="evenodd"/>
            <path id="Trazado_880963" data-name="Trazado 880963" d="M1726,1773.9h9.617l-.607-2.9h-8.436Z" transform="translate(-1690.805 -1761.316)" fill="#ff3e1a" fill-rule="evenodd"/>
            <path id="Trazado_880964" data-name="Trazado 880964" d="M1785,1486.767h5.635l-.574-2.767h-4.488Z" transform="translate(-1747.815 -1484)" fill="#ff3e1a" fill-rule="evenodd"/>
            <path id="Trazado_880965" data-name="Trazado 880965" d="M1392.678,1550.341V1547H1389v3.341Z" transform="translate(-1365.177 -1544.874)" fill="#ff3e1a" fill-rule="evenodd"/>
            <path id="Trazado_880966" data-name="Trazado 880966" d="M686.678,1550.341V1547H683v3.341Z" transform="translate(-683 -1544.874)" fill="#ff3e1a" fill-rule="evenodd"/>
          </g>
          <path id="Trazado_880967" data-name="Trazado 880967" d="M574.593,657.636a3.459,3.459,0,1,1-3.509,3.476A3.471,3.471,0,0,1,574.593,657.636Zm7.221,7.964v-9.583L578.035,641H548.779L545,656.016V665.6Zm-2.936-9.01H547.936a1.017,1.017,0,0,1-.979-1.282l3.206-12.013a.978.978,0,0,1,.979-.776h24.532a.978.978,0,0,1,.979.776l3.206,12.013A1.033,1.033,0,0,1,578.879,656.59Zm-9.954,5.028a1.012,1.012,0,1,1,0,2.025H557.89a1.012,1.012,0,0,1,0-2.025Zm-13.194-.506a3.493,3.493,0,1,1-3.509-3.476A3.493,3.493,0,0,1,555.73,661.111Zm13.194-.54H557.89a1.012,1.012,0,0,1,0-2.025h11.034A1.012,1.012,0,1,1,568.924,660.571Z" transform="translate(-542.975 -635.567)" fill="#ffb01e" fill-rule="evenodd"/>
        </g>
      </g>
    </g>
  </g>
</svg>
