<svg xmlns="http://www.w3.org/2000/svg" width="83" height="83" viewBox="0 0 83 83">
  <g id="Grupo_1099157" data-name="Grupo 1099157" transform="translate(-764.781 -2279)">
    <rect id="Rectángulo_401243" data-name="Rectángulo 401243" width="83" height="83" transform="translate(764.781 2279)" fill="none"/>
    <g id="performance_9551627" transform="translate(734.886 2277.392)">
      <g id="Grupo_1102339" data-name="Grupo 1102339" transform="translate(47.593 14.342)">
        <path id="Trazado_883106" data-name="Trazado 883106" d="M181.1,20.01l.024-.012a24.656,24.656,0,0,1,8.924-1.7l.036,4.757a19.839,19.839,0,0,0-7.2,1.361l-.012.012Z" transform="translate(-165.529 -18.3)" fill="#9cc" fill-rule="evenodd"/>
        <path id="Trazado_883107" data-name="Trazado 883107" d="M114.8,37.63l.012-.012A24.705,24.705,0,0,1,122.8,32.5l1.77,4.42a19.979,19.979,0,0,0-6.443,4.119l-.012.012Z" transform="translate(-107.213 -30.79)" fill="#cccc31" fill-rule="evenodd"/>
        <path id="Trazado_883108" data-name="Trazado 883108" d="M69.3,82.88a24.491,24.491,0,0,1,5.479-7.78l3.3,3.432a19.974,19.974,0,0,0-4.42,6.262v.012Z" transform="translate(-67.193 -68.26)" fill="#f9f06c" fill-rule="evenodd"/>
        <path id="Trazado_883109" data-name="Trazado 883109" d="M51.9,148.985A24.63,24.63,0,0,1,54,139.7l4.359,1.927a19.647,19.647,0,0,0-1.7,7.491Z" transform="translate(-51.888 -125.08)" fill="#fbf49c" fill-rule="evenodd"/>
        <path id="Trazado_883110" data-name="Trazado 883110" d="M53.378,226.181A24.418,24.418,0,0,1,51.8,217.5c0-.229,0-.47.012-.7l4.757.132c-.012.193-.012.373-.012.566a19.621,19.621,0,0,0,1.277,7.009Z" transform="translate(-51.8 -192.895)" fill="#fcf9ce" fill-rule="evenodd"/>
        <path id="Trazado_883111" data-name="Trazado 883111" d="M106.508,280.2l4.456,1.674a24.6,24.6,0,0,1-46.063.084v-.012l4.456-1.674v.012a19.849,19.849,0,0,0,37.152-.084Z" transform="translate(-63.322 -248.66)" fill="#ed2024" fill-rule="evenodd"/>
        <path id="Trazado_883112" data-name="Trazado 883112" d="M416.4,216.8c.012.229.012.47.012.7a24.528,24.528,0,0,1-1.553,8.6v.012l-4.456-1.674v-.012a19.721,19.721,0,0,0,1.24-6.925c0-.181,0-.373-.012-.554Z" transform="translate(-367.215 -192.895)" fill="#243e90" fill-rule="evenodd"/>
        <path id="Trazado_883113" data-name="Trazado 883113" d="M411.159,140.4a24.455,24.455,0,0,1,2.059,9.2l-4.757.132a19.756,19.756,0,0,0-1.662-7.406v-.012Z" transform="translate(-364.048 -125.696)" fill="#22205f" fill-rule="evenodd"/>
        <path id="Trazado_883114" data-name="Trazado 883114" d="M374.112,76.1l.012.012a24.573,24.573,0,0,1,5.371,7.731l-4.359,1.927a20.126,20.126,0,0,0-4.323-6.238l-.012-.012Z" transform="translate(-332.384 -69.139)" fill="#33669a" fill-rule="evenodd"/>
        <path id="Trazado_883115" data-name="Trazado 883115" d="M319.758,33.2l.024.012a24.58,24.58,0,0,1,7.888,5.154l-3.3,3.42a19.709,19.709,0,0,0-6.359-4.155L318,37.62Z" transform="translate(-285.942 -31.406)" fill="#34c6f4" fill-rule="evenodd"/>
        <path id="Trazado_883116" data-name="Trazado 883116" d="M255.472,18.3a24.721,24.721,0,0,1,9.225,1.782l-1.77,4.42a19.666,19.666,0,0,0-7.454-1.445h-.036L255.4,18.3h.072Z" transform="translate(-230.881 -18.3)" fill="#aadee9" fill-rule="evenodd"/>
        <path id="Trazado_883117" data-name="Trazado 883117" d="M111.134,57.9A19.834,19.834,0,1,1,91.3,77.734,19.836,19.836,0,0,1,111.134,57.9Z" transform="translate(-86.543 -53.131)" fill="#cecbe6" fill-rule="evenodd"/>
        <path id="Trazado_883118" data-name="Trazado 883118" d="M260.554,142.5l-3.48,5.046-3.48,5.034-1.252-1.144-1.24-1.144,4.721-3.89Z" transform="translate(-227.099 -127.543)" fill="#fdb614" fill-rule="evenodd"/>
        <path id="Trazado_883119" data-name="Trazado 883119" d="M228.733,191.6A3.733,3.733,0,1,1,225,195.333,3.736,3.736,0,0,1,228.733,191.6Z" transform="translate(-204.142 -170.73)" fill="#fdb614" fill-rule="evenodd"/>
        <path id="Trazado_883120" data-name="Trazado 883120" d="M169.462,296.7A11.862,11.862,0,1,1,157.6,308.562,11.862,11.862,0,0,1,169.462,296.7Z" transform="translate(-144.859 -263.173)" fill="#9695c9" fill-rule="evenodd"/>
        <path id="Trazado_883121" data-name="Trazado 883121" d="M235.5,429.9h4.974v3.071H235.5Z" transform="translate(-213.378 -380.332)" fill="#e6e6e6" fill-rule="evenodd"/>
        <path id="Trazado_883122" data-name="Trazado 883122" d="M243.143,375.6c-.06,2.469-.975,4.42-2.071,4.42s-2.011-1.951-2.071-4.42Z" transform="translate(-216.456 -332.571)" fill="#e6e6e6" fill-rule="evenodd"/>
        <path id="Trazado_883123" data-name="Trazado 883123" d="M77.166,333.1a7.473,7.473,0,1,1-7.466,7.466,7.475,7.475,0,0,1,7.466-7.466Z" transform="translate(-67.544 -295.19)" fill="#fdb614" fill-rule="evenodd"/>
        <path id="Trazado_883124" data-name="Trazado 883124" d="M115.075,370.329v.915H109.8v-.915c0-1.012,1.818.036,1.084-2.589l.723-2.481c-1.048-.626-.963-2.011-.963-3.059h3.589c0,1.036.1,2.433-.963,3.059l.723,2.481C113.256,370.353,115.075,369.305,115.075,370.329Z" transform="translate(-102.815 -320.785)" fill="#e6e6e6" fill-rule="evenodd"/>
      </g>
      <path id="Trazado_883125" data-name="Trazado 883125" d="M58.6,54.661a.572.572,0,0,1,1.144,0V55.6a.6.6,0,0,1-.157.4c-.072.084.277,2.023-.867,3.035l.614,2.1a.687.687,0,0,1,0,.313c-.325,1.144-.048,1.24.193,1.325.482.181.9.325.9,1.108v.915a.576.576,0,0,1-.566.578H54.59a.568.568,0,0,1-.566-.578v-.915c0-.783.434-.939.9-1.108.241-.084.518-.193.193-1.325a.574.574,0,0,1,.012-.349l.6-2.071c-1.144-1.024-.807-2.95-.879-3.035a.568.568,0,0,1-.157-.4v-.939a.572.572,0,0,1,1.144,0v.518h.807v-.518a.572.572,0,0,1,1.144,0v.518H58.6Zm.686,9.562c0-.494.048-.313-.157-.385-.686-.253-1.469-.542-.951-2.553l-.662-2.3a.579.579,0,0,1,.241-.686c.6-.361.674-1.216.686-1.987H55.987c0,.783.072,1.638.686,1.987a.577.577,0,0,1,.253.65l-.674,2.324c.53,2.011-.265,2.3-.939,2.553-.193.072-.157-.108-.157.385h4.131ZM57.757,51.7a8.035,8.035,0,0,1,3.962,1.349A12.429,12.429,0,0,1,83.5,54.528,19.252,19.252,0,0,0,79.458,21.1a.012.012,0,0,1-.012-.012A19.276,19.276,0,0,0,53.434,43.281,19.591,19.591,0,0,0,57.757,51.7Zm4.853,2.059a8.051,8.051,0,0,1,0,11.934,11.289,11.289,0,1,0,0-11.934Zm-.9,12.645a8.042,8.042,0,0,1-9.875-12.645,25.072,25.072,0,0,1-4.805-15.511v-.06a25.152,25.152,0,0,1,11.6-20.436A25.09,25.09,0,0,1,72.136,13.8h.048A25.2,25.2,0,0,1,96.956,43.449a25.708,25.708,0,0,1-1.18,4.323,25.21,25.21,0,0,1-11.188,13.1A12.43,12.43,0,0,1,61.707,66.4ZM52.735,53.047a8.078,8.078,0,0,1,3.553-1.313A20.072,20.072,0,0,1,53.3,46.689l-3.384,1.277A23.561,23.561,0,0,0,52.735,53.047Zm9.357,1.806a6.9,6.9,0,1,0,2.023,4.877A6.872,6.872,0,0,0,62.092,54.854Zm15.776-.47a.572.572,0,0,1,.867.747l-1.192,1.385a.572.572,0,1,1-.867-.747Zm-2.95-1.517a.572.572,0,0,1,1.072.4l-.638,1.722a.572.572,0,0,1-1.072-.4Zm-9.249,2.264a.572.572,0,0,1,.867-.747l1.192,1.385a.572.572,0,0,1-.867.747Zm2.746-1.867a.572.572,0,0,1,1.072-.4l.638,1.71a.572.572,0,0,1-1.072.4Zm3.215-.783a.572.572,0,0,1,1.144,0v1.831a.572.572,0,0,1-1.144,0Zm1.144,9.779v1.084h1.915a.576.576,0,0,1,.578.566V66.4h1.385a.572.572,0,0,1,0,1.144h-8.9a.572.572,0,0,1,0-1.144h1.385V63.91a.568.568,0,0,1,.578-.566H71.63V62.26c-1.493-.6-2.035-3.155-2.071-4.877a.561.561,0,0,1,.566-.578H74.28a.571.571,0,0,1,.566.638,8.667,8.667,0,0,1-.7,3.324,2.952,2.952,0,0,1-1.373,1.493Zm.337-1.987a6.994,6.994,0,0,0,.566-2.324H70.739a6.712,6.712,0,0,0,.566,2.324C71.883,61.537,72.521,61.537,73.112,60.273Zm-2.83,6.13h3.83V64.488h-3.83ZM54.722,39.523a.572.572,0,0,1,0-1.144l1.457-.012a15.857,15.857,0,0,1,1.855-6.937l-1.252-.723a.562.562,0,0,1-.217-.771.573.573,0,0,1,.783-.217l1.264.723a16.124,16.124,0,0,1,5.082-5.082l-.735-1.252a.572.572,0,0,1,.987-.578l.735,1.264a15.857,15.857,0,0,1,6.937-1.855l-.012-1.457a.572.572,0,0,1,1.144,0l.012,1.457A15.857,15.857,0,0,1,79.7,24.8l.723-1.264a.574.574,0,0,1,1,.566L80.7,25.361a16,16,0,0,1,5.082,5.082l1.252-.735a.572.572,0,0,1,.578.988l-1.264.735A15.9,15.9,0,0,1,88.2,38.367l1.457-.012a.572.572,0,0,1,0,1.144l-2.023.012a.578.578,0,0,1-.578-.578,14.873,14.873,0,1,0-29.746,0,.568.568,0,0,1-.662.566Zm5.913,5.889a.572.572,0,0,1,0-1.144h23.1a.572.572,0,0,1,0,1.144Zm23.3,10.212a12.474,12.474,0,0,1,.686,3.866,24.134,24.134,0,0,0,9.863-11.609L91.1,46.6A20.515,20.515,0,0,1,83.938,55.624ZM72.184,34.634a3.948,3.948,0,0,1,1.252.193l7.238-5.961a.573.573,0,0,1,.831.771L76.17,37.356a4.306,4.306,0,1,1-3.986-2.722Zm2.4.735a4.243,4.243,0,0,1,.963.891l2.71-3.914Zm-.157,1.337a3.163,3.163,0,1,0,0,4.48A3.165,3.165,0,0,0,74.424,36.705ZM52.892,45.617a20.328,20.328,0,0,1-1.12-6.684l-3.613-.108a23.749,23.749,0,0,0,1.349,8.069Zm-1.084-7.828A20.518,20.518,0,0,1,53.3,31.178L50,29.72A24.02,24.02,0,0,0,48.2,37.693Zm1.963-7.659a20.577,20.577,0,0,1,3.9-5.54l-2.517-2.6a24.033,24.033,0,0,0-4.7,6.684ZM58.5,23.808a20.183,20.183,0,0,1,5.7-3.649L62.863,16.8A24.031,24.031,0,0,0,56,21.194Zm6.756-4.058a20.03,20.03,0,0,1,6.322-1.192l-.024-3.613A23.85,23.85,0,0,0,63.923,16.4Zm7.454-1.2a20.266,20.266,0,0,1,6.611,1.277l1.337-3.36a23.607,23.607,0,0,0-7.972-1.529Zm7.671,1.7a20.611,20.611,0,0,1,5.624,3.673l2.5-2.6a24.216,24.216,0,0,0-6.792-4.432Zm6.431,4.48a20.379,20.379,0,0,1,3.818,5.5l3.312-1.457a24.448,24.448,0,0,0-4.612-6.648ZM91.1,31.262a20.31,20.31,0,0,1,1.469,6.527l3.613-.1a23.861,23.861,0,0,0-1.77-7.888ZM92.6,38.933a20.447,20.447,0,0,1-1.1,6.6l3.4,1.277a23.83,23.83,0,0,0,1.313-7.984Z" transform="translate(0)"/>
    </g>
  </g>
</svg>
