<svg xmlns="http://www.w3.org/2000/svg" xmlns:xlink="http://www.w3.org/1999/xlink" width="154.038" height="154.038" viewBox="0 0 154.038 154.038">
  <defs>
    <filter id="Trazado_881103" x="0" y="0" width="154.038" height="154.038" filterUnits="userSpaceOnUse">
      <feOffset dy="3" input="SourceAlpha"/>
      <feGaussianBlur stdDeviation="3" result="blur"/>
      <feFlood flood-opacity="0.161"/>
      <feComposite operator="in" in2="blur"/>
      <feComposite in="SourceGraphic"/>
    </filter>
  </defs>
  <g id="Grupo_1101863" data-name="Grupo 1101863" transform="translate(19 16)">
    <g transform="matrix(1, 0, 0, 1, -19, -16)" filter="url(#Trazado_881103)">
      <g id="Trazado_881103-2" data-name="Trazado 881103" transform="translate(19 16)" fill="#fff">
        <path d="M58.019,0A58.019,58.019,0,1,1,0,58.019,58.019,58.019,0,0,1,58.019,0Z" stroke="none"/>
        <path d="M 58.01913452148438 -1.52587890625e-05 C 25.97605895996094 -1.52587890625e-05 -1.52587890625e-05 25.97605895996094 -1.52587890625e-05 58.01913452148438 C -1.52587890625e-05 90.06221008300781 25.97605895996094 116.0382614135742 58.01913452148438 116.0382614135742 C 90.06221008300781 116.0382614135742 116.0382614135742 90.06221008300781 116.0382614135742 58.01913452148438 C 116.0382614135742 25.97605895996094 90.06221008300781 -1.52587890625e-05 58.01913452148438 -1.52587890625e-05 M 58.01913452148438 -10.00001525878906 C 95.52500915527344 -10.00001525878906 126.0382614135742 20.51325988769531 126.0382614135742 58.01913452148438 C 126.0382614135742 95.52500915527344 95.52500915527344 126.0382614135742 58.01913452148438 126.0382614135742 C 20.51325988769531 126.0382614135742 -10.00001525878906 95.52500915527344 -10.00001525878906 58.01913452148438 C -10.00001525878906 20.51325988769531 20.51325988769531 -10.00001525878906 58.01913452148438 -10.00001525878906 Z" stroke="none" fill="rgba(250,246,237,0.5)"/>
      </g>
    </g>
    <g id="Grupo_1101867" data-name="Grupo 1101867" transform="translate(-68.016 -67.731)">
      <circle id="Elipse_11722" data-name="Elipse 11722" cx="46.389" cy="46.389" r="46.389" transform="translate(78.629 79.362)" fill="#ccebea"/>
      <g id="Grupo_1101777" data-name="Grupo 1101777" transform="translate(78.855 83.082)">
        <path id="Trazado_880976" data-name="Trazado 880976" d="M125.7,123.62l-3.482,13.844a26.145,26.145,0,0,1-2.552,6.415l-6.7,11.967L105.6,180.133l-.016.057L85.634,167.038,92.941,151.8l-.028-.087-1.406-4.532-3.733-12.036-.028-.193-8.065-21.091a3.022,3.022,0,0,1,1.475-3.857.19.19,0,0,1,.046-.025,3.027,3.027,0,0,1,3.951,1.323c.044.083.083.165.119.253L91,125.281a.2.2,0,0,0,.377-.131l-6.418-22.862a2.929,2.929,0,0,1,5.628-1.624l6.179,19.8a.279.279,0,0,0,.517.046.271.271,0,0,0,.021-.17L92.909,96.508a2.985,2.985,0,0,1,2.005-3.337h0a3.124,3.124,0,0,1,.492-.117,2.982,2.982,0,0,1,3.078,1.555,2.873,2.873,0,0,1,.292.825l4.858,21.67a.085.085,0,0,1,0,.023l.54,2.405s0,0,0,0l.053.232a.281.281,0,0,0,.556-.041V119.7l-1.782-19.977a2.954,2.954,0,0,1,3.053-3.112h0a2.96,2.96,0,0,1,2.828,2.57l4.808,25.354.811,4.771a.924.924,0,0,0,1.757.214l3.4-7.819a3.171,3.171,0,0,1,4.208-1.771c.044.018.085.037.126.057a3.171,3.171,0,0,1,1.7,3.634Z" transform="translate(-79.459 -93.02)" fill="#7fc9c8"/>
        <path id="Trazado_880977" data-name="Trazado 880977" d="M125.284,265.351a64.879,64.879,0,0,1-10.151-1.089l-5.138-16.569C111.579,251.631,114.6,258.428,125.284,265.351Z" transform="translate(-101.678 -205.568)" fill="#77bdbc"/>
        <path id="Trazado_880978" data-name="Trazado 880978" d="M94.811,191.589l-3.3.974-3.733-12.036-.028-.193-8.065-21.091a3.022,3.022,0,0,1,1.475-3.857A12.99,12.99,0,0,0,82,160.113C83.636,165.137,94.811,191.589,94.811,191.589Z" transform="translate(-79.459 -138.401)" fill="#77bdbc"/>
        <path id="Trazado_880979" data-name="Trazado 880979" d="M187.012,195.666,183.53,209.51a26.146,26.146,0,0,1-2.552,6.416l-6.7,11.967-7.364,24.286-3.2-3.2,5.18-23.308c2.457-.337,6.1-5.718,7.92-8.534,1.114-1.722,2.931-6.016,6.138-15.39,1.884-5.5,2.318-8.327,2.357-9.721a3.171,3.171,0,0,1,1.7,3.634Z" transform="translate(-140.77 -165.066)" fill="#77bdbc"/>
        <path id="Trazado_880980" data-name="Trazado 880980" d="M113.848,367.734c5.488,3.65,8.561,8.528,8.039,9.467-.486.874-6.532.169-12.02-3.481s-8.482-8.84-7.946-9.6C102.546,363.227,108.361,364.084,113.848,367.734Z" transform="translate(-95.759 -290.047)" fill="#5f9696"/>
        <path id="Trazado_880981" data-name="Trazado 880981" d="M105.762,141.177l-6.418-22.862a2.93,2.93,0,0,1,1.257-3.269,17.069,17.069,0,0,0,1.043,5.593C103.7,127.275,106.981,141.526,105.762,141.177Z" transform="translate(-93.848 -109.047)" fill="#77bdbc"/>
        <path id="Trazado_880982" data-name="Trazado 880982" d="M133.352,121.237c-.071-.028-.156-.138-.255-.322a.271.271,0,0,0,.021-.17l-4.389-23.834a2.985,2.985,0,0,1,2.005-3.337c-.381.413-.967,1.856.154,6.861C132.408,107.213,134.54,121.682,133.352,121.237Z" transform="translate(-115.278 -93.423)" fill="#77bdbc"/>
        <path id="Trazado_880983" data-name="Trazado 880983" d="M168.247,181.531l.54,2.405A15.139,15.139,0,0,1,168.247,181.531Z" transform="translate(-144.065 -157.425)" fill="#77bdbc"/>
        <path id="Trazado_880984" data-name="Trazado 880984" d="M167.964,113.106c.464,6.078.482,14.618-.273,16.2v-.025l-1.782-19.977a2.954,2.954,0,0,1,3.053-3.112C168.609,106.339,167.516,107.26,167.964,113.106Z" transform="translate(-142.36 -102.605)" fill="#77bdbc"/>
      </g>
      <g id="Grupo_1101778" data-name="Grupo 1101778" transform="translate(127.102 83.082)">
        <path id="Trazado_880985" data-name="Trazado 880985" d="M256.709,123.62l3.482,13.844a26.158,26.158,0,0,0,2.552,6.415l6.7,11.967,7.364,24.286.016.057,19.952-13.153L289.469,151.8l.028-.087,1.406-4.532,3.733-12.036.028-.193,8.065-21.091a3.021,3.021,0,0,0-1.475-3.857.183.183,0,0,0-.046-.025,3.027,3.027,0,0,0-3.951,1.323c-.044.083-.083.165-.119.253l-5.722,13.725a.2.2,0,0,1-.377-.131l6.418-22.862a2.929,2.929,0,0,0-5.407-2.164,2.979,2.979,0,0,0-.22.54l-6.179,19.8a.279.279,0,0,1-.517.046.273.273,0,0,1-.021-.17L289.5,96.508a2.985,2.985,0,0,0-2.005-3.337h0a3.125,3.125,0,0,0-.492-.117,2.982,2.982,0,0,0-3.078,1.555,2.864,2.864,0,0,0-.292.825l-4.858,21.67a.075.075,0,0,0,0,.023l-.54,2.405s0,0,0,0l-.053.232a.281.281,0,0,1-.556-.041V119.7L279.4,99.722a2.954,2.954,0,0,0-3.053-3.112h0a2.96,2.96,0,0,0-2.828,2.57l-4.808,25.354L267.9,129.3a.924.924,0,0,1-1.757.214l-3.4-7.819a3.171,3.171,0,0,0-4.208-1.771c-.044.018-.085.037-.126.057a3.171,3.171,0,0,0-1.7,3.634Z" transform="translate(-256.611 -93.02)" fill="#7fc9c8"/>
        <path id="Trazado_880986" data-name="Trazado 880986" d="M340.084,265.351a64.88,64.88,0,0,0,10.151-1.089l5.138-16.569C353.789,251.631,350.767,258.428,340.084,265.351Z" transform="translate(-317.35 -205.568)" fill="#77bdbc"/>
        <path id="Trazado_880987" data-name="Trazado 880987" d="M370.39,191.589l3.3.974,3.733-12.036.028-.193,8.065-21.091a3.021,3.021,0,0,0-1.475-3.857,12.985,12.985,0,0,1-.838,4.727C381.565,165.137,370.39,191.589,370.39,191.589Z" transform="translate(-339.402 -138.401)" fill="#77bdbc"/>
        <path id="Trazado_880988" data-name="Trazado 880988" d="M256.709,195.666l3.482,13.844a26.158,26.158,0,0,0,2.552,6.416l6.7,11.967,7.364,24.286,3.2-3.2-5.18-23.308c-2.457-.337-6.1-5.718-7.92-8.534-1.114-1.722-2.931-6.016-6.138-15.39-1.883-5.5-2.317-8.327-2.357-9.721a3.171,3.171,0,0,0-1.7,3.634Z" transform="translate(-256.611 -165.066)" fill="#77bdbc"/>
        <path id="Trazado_880989" data-name="Trazado 880989" d="M338.707,367.734c-5.488,3.65-8.561,8.528-8.039,9.467.485.874,6.532.169,12.02-3.481s8.482-8.84,7.946-9.6C350.009,363.227,344.2,364.084,338.707,367.734Z" transform="translate(-310.457 -290.047)" fill="#5f9696"/>
        <path id="Trazado_880990" data-name="Trazado 880990" d="M382.31,141.177l6.418-22.862a2.93,2.93,0,0,0-1.256-3.269,17.084,17.084,0,0,1-1.043,5.593C384.372,127.275,381.09,141.526,382.31,141.177Z" transform="translate(-347.883 -109.047)" fill="#77bdbc"/>
        <path id="Trazado_880991" data-name="Trazado 880991" d="M359.472,121.237c.071-.028.156-.138.255-.322a.273.273,0,0,1-.021-.17L364.1,96.911a2.985,2.985,0,0,0-2.005-3.337c.381.413.967,1.856-.154,6.861C360.416,107.213,358.284,121.682,359.472,121.237Z" transform="translate(-331.206 -93.423)" fill="#77bdbc"/>
        <path id="Trazado_880992" data-name="Trazado 880992" d="M336.528,181.531l-.54,2.405A15.108,15.108,0,0,0,336.528,181.531Z" transform="translate(-314.37 -157.425)" fill="#77bdbc"/>
        <path id="Trazado_880993" data-name="Trazado 880993" d="M330.086,113.106c-.464,6.078-.482,14.618.273,16.2v-.025l1.783-19.977a2.954,2.954,0,0,0-3.053-3.112C329.44,106.339,330.534,107.26,330.086,113.106Z" transform="translate(-309.35 -102.605)" fill="#77bdbc"/>
      </g>
    </g>
  </g>
</svg>
