<svg xmlns="http://www.w3.org/2000/svg" xmlns:xlink="http://www.w3.org/1999/xlink" width="154.038" height="154.038" viewBox="0 0 154.038 154.038">
  <defs>
    <filter id="Trazado_881125" x="0" y="0" width="154.038" height="154.038" filterUnits="userSpaceOnUse">
      <feOffset dy="3" input="SourceAlpha"/>
      <feGaussianBlur stdDeviation="3" result="blur"/>
      <feFlood flood-opacity="0.161"/>
      <feComposite operator="in" in2="blur"/>
      <feComposite in="SourceGraphic"/>
    </filter>
    <clipPath id="clip-path">
      <circle id="Elipse_11733" data-name="Elipse 11733" cx="58" cy="58" r="58" transform="translate(1068.051 1754)" fill="#b0c0d2" stroke="#707070" stroke-width="1" opacity="0.63"/>
    </clipPath>
    <clipPath id="clip-path-3">
      <path id="Trazado_883133" data-name="Trazado 883133" d="M310.106,129.1a184.164,184.164,0,0,1-30.037-48.283l25.093-15.61A265.107,265.107,0,0,1,335.2,113.491Z" transform="translate(-280.069 -65.207)" fill="none"/>
    </clipPath>
  </defs>
  <g id="Grupo_1101854" data-name="Grupo 1101854" transform="translate(19 16)">
    <g transform="matrix(1, 0, 0, 1, -19, -16)" filter="url(#Trazado_881125)">
      <g id="Trazado_881125-2" data-name="Trazado 881125" transform="translate(19 16)" fill="#fff">
        <path d="M58.019,0A58.019,58.019,0,1,1,0,58.019,58.019,58.019,0,0,1,58.019,0Z" stroke="none"/>
        <path d="M 58.01913452148438 -1.52587890625e-05 C 25.97605895996094 -1.52587890625e-05 -1.52587890625e-05 25.97605895996094 -1.52587890625e-05 58.01913452148438 C -1.52587890625e-05 90.06221008300781 25.97605895996094 116.0382614135742 58.01913452148438 116.0382614135742 C 90.06221008300781 116.0382614135742 116.0382614135742 90.06221008300781 116.0382614135742 58.01913452148438 C 116.0382614135742 25.97605895996094 90.06221008300781 -1.52587890625e-05 58.01913452148438 -1.52587890625e-05 M 58.01913452148438 -10.00001525878906 C 95.52500915527344 -10.00001525878906 126.0382614135742 20.51325988769531 126.0382614135742 58.01913452148438 C 126.0382614135742 95.52500915527344 95.52500915527344 126.0382614135742 58.01913452148438 126.0382614135742 C 20.51325988769531 126.0382614135742 -10.00001525878906 95.52500915527344 -10.00001525878906 58.01913452148438 C -10.00001525878906 20.51325988769531 20.51325988769531 -10.00001525878906 58.01913452148438 -10.00001525878906 Z" stroke="none" fill="rgba(250,246,237,0.5)"/>
      </g>
    </g>
    <g id="Enmascarar_grupo_1099634" data-name="Enmascarar grupo 1099634" transform="translate(-1067.587 -1754.146)" clip-path="url(#clip-path)">
      <g id="Enmascarar_grupo_1099666" data-name="Enmascarar grupo 1099666" clip-path="url(#clip-path)">
        <circle id="Elipse_11805" data-name="Elipse 11805" cx="46.389" cy="46.389" r="46.389" transform="translate(1079.662 1765.611)" fill="#ccebea"/>
        <g id="Grupo_1102340" data-name="Grupo 1102340" transform="translate(2915.426 11306.771)">
          <g id="Grupo_1102343" data-name="Grupo 1102343" transform="matrix(0.545, -0.839, 0.839, 0.545, -1840.856, -9467.722)">
            <path id="Trazado_883126" data-name="Trazado 883126" d="M296.8,45.072c1.493-3.571-1.007-8.139-7.145-7.75-7.952.5-17.6,6.65-19.588,12.882-2.123,6.66,2.963,9.585,2.963,9.585" transform="translate(-269.548 -37.299)" fill="none" stroke="#ececec" stroke-miterlimit="10" stroke-width="2.278"/>
            <path id="Trazado_883127" data-name="Trazado 883127" d="M404.468,222.614c3.863.24,6.856,4.5,3.795,9.835-3.966,6.911-13.745,12.851-20.213,11.878-6.912-1.04-7.288-6.894-7.288-6.894" transform="translate(-345.482 -163.828)" fill="none" stroke="#ececec" stroke-miterlimit="10" stroke-width="2.278"/>
            <path id="Trazado_883128" data-name="Trazado 883128" d="M304.938,126.119a192.362,192.362,0,0,1-32.211-51.778l27.636-17.192a276.864,276.864,0,0,1,32.211,51.778Z" transform="translate(-271.718 -50.852)" fill="#ececec"/>
            <path id="Trazado_883129" data-name="Trazado 883129" d="M307.629,127.548a190.38,190.38,0,0,1-31.236-50.211l26.253-16.332a274.036,274.036,0,0,1,31.236,50.211Z" transform="translate(-274.222 -53.485)" fill="none" stroke="#bdbdbd" stroke-miterlimit="10" stroke-width="0.759" stroke-dasharray="3.797"/>
            <path id="Trazado_883130" data-name="Trazado 883130" d="M310.106,129.1a184.164,184.164,0,0,1-30.037-48.283l25.093-15.61A265.107,265.107,0,0,1,335.2,113.491Z" transform="translate(-276.731 -56.354)" fill="#b1d6e5"/>
            <g id="Grupo_1102341" data-name="Grupo 1102341" transform="translate(3.338 8.853)">
              <g id="Grupo_1102340-2" data-name="Grupo 1102340" clip-path="url(#clip-path-3)">
                <line id="Línea_656" data-name="Línea 656" x2="30.59" y2="49.172" transform="translate(12.546 7.377)" fill="none" stroke="#7ba9be" stroke-miterlimit="10" stroke-width="1.519"/>
                <path id="Trazado_883131" data-name="Trazado 883131" d="M343.94,73.333c12.724,16.157,23.322,32.511,30.59,49.172" transform="translate(-323.679 -70.755)" fill="none" stroke="#7ba9be" stroke-miterlimit="10" stroke-width="1.519"/>
                <path id="Trazado_883132" data-name="Trazado 883132" d="M296.273,102.986c8.87,18.554,18.856,35.289,30.59,49.172" transform="translate(-291.133 -91.002)" fill="none" stroke="#7ba9be" stroke-miterlimit="10" stroke-width="1.519"/>
              </g>
            </g>
            <g id="Grupo_1102342" data-name="Grupo 1102342" transform="translate(1.008 6.297)">
              <path id="Trazado_883134" data-name="Trazado 883134" d="M291.815,80.9c4.618,5.622,14.847,18.135,19.38,24.153-6.969-11.822-15.858-25.754-18.4-29.721a27.8,27.8,0,0,1,3.273-7.418c5.854,6.032,22.365,28.4,25.949,35.571-7.268-14.971-18.979-31.709-24.136-38.107a27.324,27.324,0,0,1,5.076-4.871q-1.28-1.684-2.593-3.362L272.727,74.341a192.362,192.362,0,0,0,32.211,51.778l7.2-4.476C296.3,106.845,290.889,92.478,291.815,80.9Z" transform="translate(-272.727 -57.149)" fill="#7ba9be" opacity="0.27" style="mix-blend-mode: multiply;isolation: isolate"/>
              <path id="Trazado_883135" data-name="Trazado 883135" d="M428.1,203.23c.075.155.151.31.225.465C428.259,203.549,428.182,203.392,428.1,203.23Z" transform="translate(-378.813 -156.89)" fill="#7ba9be" opacity="0.27" style="mix-blend-mode: multiply;isolation: isolate"/>
            </g>
          </g>
          <g id="Grupo_1102346" data-name="Grupo 1102346" transform="translate(-1829.152 -9535.423)">
            <path id="Trazado_883136" data-name="Trazado 883136" d="M244.73,328.548s16.79-3.821,19.337-4.067c1.273-.123,2.275.43,3.47,1.882,1.434,1.743,3.225,4.1,4.058,5.251,1.668,2.3.7,6.206-.974,3.788-2-2.887-3.82-4.985-5.005-6.583-.935-1.261-1.564-1.5-2.763-1.284-4.56.835-15.023,2.877-15.023,2.877Z" transform="translate(-238.133 -324.353)" fill="#dde5eb"/>
            <path id="Trazado_883137" data-name="Trazado 883137" d="M381.161,328.607s-16.712-4.15-19.253-4.446c-1.27-.148-2.283.386-3.506,1.814-1.468,1.715-3.3,4.036-4.161,5.17-1.713,2.268-.82,6.191.9,3.806,2.052-2.847,3.917-4.908,5.133-6.484.959-1.243,1.593-1.472,2.788-1.229,4.543.924,14.963,3.172,14.963,3.172Z" transform="translate(-309.855 -324.137)" fill="#dde5eb"/>
            <g id="Grupo_1102345" data-name="Grupo 1102345" transform="translate(0 3.883)">
              <path id="Trazado_883138" data-name="Trazado 883138" d="M295.707,336.063l-25.463-.2-.382,0-9.848-.078-.871-.007-24.974-.2a8.733,8.733,0,0,0-8.8,8.663l-.068,8.556a17.289,17.289,0,0,0,17.151,17.426h0a17.291,17.291,0,0,0,16.1-10.65,6.476,6.476,0,0,1,3.787-3.633,7.5,7.5,0,0,1,2.536-.467,6.793,6.793,0,0,1,2.024.346,6.469,6.469,0,0,1,4.022,3.789,17.29,17.29,0,0,0,15.955,10.968h0A17.29,17.29,0,0,0,304.3,353.421l.068-8.556A8.733,8.733,0,0,0,295.707,336.063Z" transform="translate(-225.298 -335.573)" fill="#869caa" opacity="0.53"/>
              <path id="Trazado_883139" data-name="Trazado 883139" d="M323.245,381.919s2.744-7.626,6.276-7.463,5.715,6.844,5.715,6.844S328.148,378.336,323.245,381.919Z" transform="translate(-289.991 -361.253)" fill="#688494"/>
              <path id="Trazado_883140" data-name="Trazado 883140" d="M234.845,339.514c-.058,7.308-1.1,17.631,2.38,23.386,3.544,5.862,11.687,7.051,20.321,2.819-1.861,3.559-8.118,6.808-14.711,6.206s-12.769-7.524-13.637-13.67-.256-13.931,1.226-15.843A10.76,10.76,0,0,1,234.845,339.514Z" transform="translate(-227.611 -338.176)" fill="#688494"/>
              <path id="Trazado_883141" data-name="Trazado 883141" d="M395.893,341.058c-.058,7.308.819,17.646-2.751,23.345-3.636,5.805-11.8,6.864-20.363,2.5,1.8,3.588,8.009,6.936,14.61,6.439s12.887-7.32,13.852-13.452.477-13.925-.973-15.86A10.757,10.757,0,0,0,395.893,341.058Z" transform="translate(-322.708 -339.196)" fill="#688494"/>
              <path id="Trazado_883142" data-name="Trazado 883142" d="M295.707,336.063l-25.463-.2-.382,0-9.848-.078-.871-.007-24.974-.2a8.733,8.733,0,0,0-8.8,8.663l-.068,8.556a17.289,17.289,0,0,0,17.151,17.426h0a17.291,17.291,0,0,0,16.1-10.65,6.476,6.476,0,0,1,3.787-3.633,7.5,7.5,0,0,1,2.536-.467,6.793,6.793,0,0,1,2.024.346,6.47,6.47,0,0,1,4.022,3.789,17.29,17.29,0,0,0,15.955,10.968h0A17.29,17.29,0,0,0,304.3,353.421l.068-8.556A8.733,8.733,0,0,0,295.707,336.063Zm6.134,17.339a14.828,14.828,0,0,1-28.629,5.3,8.888,8.888,0,0,0-5.557-5.231,9.243,9.243,0,0,0-2.761-.465,9.908,9.908,0,0,0-3.378.609,8.941,8.941,0,0,0-5.238,5.007,14.828,14.828,0,0,1-28.519-5.811l.068-8.556a6.279,6.279,0,0,1,6.321-6.221l61.538.489a6.279,6.279,0,0,1,6.221,6.321Z" transform="translate(-225.298 -335.573)" fill="#fff"/>
              <g id="Grupo_1102344" data-name="Grupo 1102344" transform="translate(15.998 0.211)" opacity="0.36">
                <path id="Trazado_883143" data-name="Trazado 883143" d="M315.729,336.375l-.382,0-2.421-.019-18.763,33.275a17.342,17.342,0,0,0,9.874-9.544,6.476,6.476,0,0,1,3.787-3.633,7.5,7.5,0,0,1,2.536-.467c.138,0,.275.011.411.022l11.042-19.582Z" transform="translate(-286.781 -336.299)" fill="#fff"/>
                <path id="Trazado_883144" data-name="Trazado 883144" d="M291.807,336.2l-19.388,34.383c.382.028.766.049,1.154.052h0c.576,0,1.145-.022,1.707-.073l19.363-34.339Z" transform="translate(-272.419 -336.195)" fill="#fff"/>
                <path id="Trazado_883145" data-name="Trazado 883145" d="M360.9,336.62l-11.34,20.111a6.445,6.445,0,0,1,2.049,1.419l12.128-21.507Z" transform="translate(-323.372 -336.476)" fill="#fff"/>
                <path id="Trazado_883146" data-name="Trazado 883146" d="M371.238,336.725l-12.83,22.753a6.5,6.5,0,0,1,.431.886c.067.17.137.337.209.5l13.608-24.133Z" transform="translate(-329.214 -336.545)" fill="#fff"/>
              </g>
            </g>
          </g>
        </g>
      </g>
    </g>
  </g>
</svg>
