<svg id="Grupo_1102000" data-name="Grupo 1102000" xmlns="http://www.w3.org/2000/svg" xmlns:xlink="http://www.w3.org/1999/xlink" width="122.932" height="122.932" viewBox="0 0 122.932 122.932">
  <defs>
    <clipPath id="clip-path">
      <rect id="Rect치ngulo_403535" data-name="Rect치ngulo 403535" width="122.932" height="122.932" fill="none"/>
    </clipPath>
  </defs>
  <g id="Grupo_1101881" data-name="Grupo 1101881">
    <g id="Grupo_1101879" data-name="Grupo 1101879">
      <g id="Grupo_1101878" data-name="Grupo 1101878" clip-path="url(#clip-path)">
        <rect id="Rect치ngulo_403534" data-name="Rect치ngulo 403534" width="122.932" height="122.932" fill="#b1fafc"/>
        <g id="Grupo_1101877" data-name="Grupo 1101877" transform="translate(8.648 40.321)">
          <path id="Trazado_881232" data-name="Trazado 881232" d="M267.146,124.891c4.581-6.987-2.569-9.809-7.564-6.755-1.212.742-4.446,3.01-8.222,5.7l-.047-.069c5.968-5.008,15.323-13.259,17.263-17.32,3.6-7.541-3.865-9.375-8.4-5.677-2.009,1.636-10.007,9.212-15.977,14.909,4.579-5.927,13.1-17.412,14.188-22.174,1.858-8.146-5.828-8.3-9.446-3.694-1.657,2.107-8.177,11.83-12.792,18.76,2.989-7,6.512-16.1,6.467-19.981-.1-8.354-7.6-6.706-10.045-1.384-1.508,3.285-8.381,22.106-10.437,27.759-1.63-5.51-5.169-15.307-9.789-15.62-4.984-.336-5.791,5.349-5.424,10.331s6.037,27,6.037,27l-23.147,30.744,19.738,14.86,23.147-30.744c1.958-1.583,3.723-3.081,5.335-4.509l0,0S263.462,130.514,267.146,124.891Z" transform="translate(-189.808 -82.773)" fill="#f9bf98"/>
          <path id="Trazado_881233" data-name="Trazado 881233" d="M215.537,122.285a.673.673,0,0,1-.255-.689c2.82-12.688-6.467-16.156-6.863-16.3l-.291-.1-2.158-5.442a.68.68,0,0,1,1.265-.5l1.936,4.89c1.732.76,10.231,5.186,7.437,17.75a.68.68,0,0,1-.809.516A.7.7,0,0,1,215.537,122.285Z" transform="translate(-174.279 -67.306)" fill="#e09a69"/>
          <path id="Trazado_881234" data-name="Trazado 881234" d="M231.6,115.832a.674.674,0,0,1-.194-.23c-7.494-14.439-19.465-19.559-19.584-19.608a.68.68,0,0,1,.522-1.255c.509.21,12.534,5.335,20.27,20.238a.68.68,0,0,1-1.013.854Z" transform="translate(-168.994 -71.291)" fill="#e09a69"/>
        </g>
      </g>
    </g>
  </g>
</svg>
