<svg id="Grupo_1102007" data-name="Grupo 1102007" xmlns="http://www.w3.org/2000/svg" xmlns:xlink="http://www.w3.org/1999/xlink" width="122.932" height="122.932" viewBox="0 0 122.932 122.932">
  <defs>
    <clipPath id="clip-path">
      <rect id="Rect치ngulo_403559" data-name="Rect치ngulo 403559" width="122.932" height="122.932" fill="none"/>
    </clipPath>
  </defs>
  <g id="Grupo_1101930" data-name="Grupo 1101930" transform="translate(0 0)">
    <g id="Grupo_1101928" data-name="Grupo 1101928">
      <g id="Grupo_1101927" data-name="Grupo 1101927" clip-path="url(#clip-path)">
        <rect id="Rect치ngulo_403558" data-name="Rect치ngulo 403558" width="122.932" height="122.932" fill="#b1fafc"/>
        <g id="Grupo_1101924" data-name="Grupo 1101924" transform="translate(24.168 16.275)">
          <g id="Grupo_1101923" data-name="Grupo 1101923" transform="translate(0)">
            <path id="Trazado_881292" data-name="Trazado 881292" d="M122.391,190.5c2.245-9.734,10.594-5.893,12.089.945.363,1.659,5.549,17.434,8.978,19.718.033,0,.3-8.095.338-8.1-.613-9.3-1.225-24.2.677-29.234,3.531-9.345,11.289-4.416,11.851,2.561.249,3.089.322,16.26.342,26.128,3.444-6.229,7.926-24.364,11.138-29.24,5.5-8.344,11.985-1.834,11,5.1-.45,3.173-4.562,24.973-8.12,33.847,3.576-8.375,12.831-19.451,16.218-22.62,7.293-6.828,12.081,1.019,9.5,7.529-1.589,4.02-15.592,19.934-18.771,26.385,6.105-3.15,19-5.575,23.092-1.842,4.414,4.026.67,9.738-4.434,13.23-4.933,3.372-31.919,11.957-31.919,11.957l-7.4,45.415-29.156-4.752,7.4-45.415c-.253-3-.42-5.766-.52-8.336l0,0S120.585,198.33,122.391,190.5Z" transform="translate(-122.232 -168.678)" fill="#f9bf98"/>
            <path id="Trazado_881293" data-name="Trazado 881293" d="M162.3,204.653l-3.927-7.833s3.884-2.655,6.412,1.045S162.3,204.653,162.3,204.653Z" transform="translate(-87.405 -142.446)" fill="#ffd8bd"/>
            <path id="Trazado_881294" data-name="Trazado 881294" d="M163.143,186.546l-7.9-4.1s2.912-3.939,6.048-3.364S164.109,183.762,163.143,186.546Z" transform="translate(-90.418 -158.709)" fill="#ffd8bd"/>
            <path id="Trazado_881295" data-name="Trazado 881295" d="M154.384,178.412l-8.851-2.209s1.5-6.963,5.795-5.836S154.56,175.753,154.384,178.412Z" transform="translate(-99.775 -167.17)" fill="#ffd8bd"/>
            <path id="Trazado_881296" data-name="Trazado 881296" d="M143.917,175.419l-9.9,1.074s.446-6.4,4.534-6.626S143.917,175.419,143.917,175.419Z" transform="translate(-110.871 -167.539)" fill="#ffd8bd"/>
            <path id="Trazado_881297" data-name="Trazado 881297" d="M132.268,182.565l-9.1,2.482s-.45-5.752,2.942-7.068S132.268,182.565,132.268,182.565Z" transform="translate(-121.351 -159.898)" fill="#ffd8bd"/>
          </g>
          <path id="Trazado_881298" data-name="Trazado 881298" d="M200.731,221.669c-4.092-3.733-16.986-1.308-23.092,1.842,3.179-6.451,17.183-22.365,18.771-26.385,2.576-6.51-2.211-14.357-9.5-7.529-3.387,3.17-12.643,14.245-16.218,22.62,3.482-8.619,7.67-30.674,8.12-33.847.982-6.932-5.506-13.442-11-5.1-3.213,4.876-6.614,21.094-11.138,29.24-.02-9.868-.092-23.039-.342-26.128-.562-6.977-8.32-11.906-11.851-2.561-1.9,5.035-1.29,19.938-.677,29.234-.033.006-.3,8.1-.338,8.1-3.356-1.785-8.615-18.058-8.978-19.718-1.494-6.838-9.844-10.679-12.089-.945-1.807,7.833,12.307,43.269,12.307,43.269l0,0c.1,2.571.267,5.335.52,8.336l-7.4,45.415,29.156,4.752,7.4-45.415s26.942-8.65,31.919-11.957C201.371,231.527,205.145,225.695,200.731,221.669Z" transform="translate(-122.232 -168.678)" fill="#bcb1aa" opacity="0.25" style="mix-blend-mode: multiply;isolation: isolate"/>
        </g>
        <g id="Grupo_1101925" data-name="Grupo 1101925" transform="translate(18.31 41.24)">
          <path id="Trazado_881299" data-name="Trazado 881299" d="M191.98,200.9c-.709-1.314-4.142-4.2-7.032-3.4-.644-.053-1.542.848-1.979,1.182l-.045.073c-.862,1.463-3,5.675-5.471,10.641l-.09-.045c1.418-3.515,3.122-7.908,4.633-12.246.526-1.115.344-1.816.958-2.832.279-.852.548-1.695.8-2.519a4.739,4.739,0,0,0-.972-2.944c-.882-1.316-2.657-3.093-4.332-3.49a5.4,5.4,0,0,0-4.515.228,5.56,5.56,0,0,0-2.148,1.333c-.189.079-.652,1.1-.844,1.131-1.722,5.023-3.857,11.425-5.634,16.8.731-4.308,1.708-10.537,2.343-16.444a5.112,5.112,0,0,0-1.569-5.18,7.27,7.27,0,0,0-11.7,3.429,9.645,9.645,0,0,1-.179,1.542c-.473,4.528-.968,9.465-1.382,13.677-.334-3.878-.782-8.216-1.359-12.23a4.013,4.013,0,0,0-2.527-2.021c-4.322-2.4-10.475.558-10.475,5.834,1.111,8.462,2.559,18.758,3.164,23.042-4.817-4.9-14.058-13.249-19.109-10.981-5.451,2.449-3.1,8.9.082,13.954s21.548,25.1,21.548,25.1L137,290l29.183,4.587,7.144-45.458c1.176-2.771,2.2-5.345,3.095-7.757h0s9.292-16.8,14.634-29.032C192.428,209.007,194.04,204.722,191.98,200.9Z" transform="translate(-119.249 -181.391)" fill="#f9bf98"/>
          <path id="Trazado_881300" data-name="Trazado 881300" d="M122.054,202.728l6.176-6.215s-2.861-3.735-6.417-1.009S122.054,202.728,122.054,202.728Z" transform="translate(-118.244 -168.75)" fill="#ffd8bd"/>
        </g>
        <g id="Grupo_1101926" data-name="Grupo 1101926" transform="translate(48.531 74.104)">
          <path id="Trazado_881301" data-name="Trazado 881301" d="M159.514,198.127l-10.183,2.232,2.426,2.709L135.67,217.474l1.962,2.191,16.087-14.406L156.177,208Z" transform="translate(-133.644 -198.127)" fill="#fff"/>
          <path id="Trazado_881302" data-name="Trazado 881302" d="M134.638,198.127l10.183,2.232-2.426,2.709,16.087,14.406-1.962,2.191-16.087-14.406L137.976,208Z" transform="translate(-134.638 -198.127)" fill="#fff"/>
        </g>
      </g>
    </g>
  </g>
</svg>
