<svg id="Grupo_1102008" data-name="Grupo 1102008" xmlns="http://www.w3.org/2000/svg" xmlns:xlink="http://www.w3.org/1999/xlink" width="122.932" height="122.783" viewBox="0 0 122.932 122.783">
  <defs>
    <clipPath id="clip-path">
      <rect id="Rect치ngulo_403555" data-name="Rect치ngulo 403555" width="122.932" height="122.783" fill="none"/>
    </clipPath>
  </defs>
  <g id="Grupo_1101921" data-name="Grupo 1101921" transform="translate(0 0)">
    <g id="Grupo_1101919" data-name="Grupo 1101919">
      <g id="Grupo_1101918" data-name="Grupo 1101918" clip-path="url(#clip-path)">
        <rect id="Rect치ngulo_403554" data-name="Rect치ngulo 403554" width="122.932" height="122.783" fill="#b1fafc"/>
        <g id="Grupo_1101916" data-name="Grupo 1101916" transform="translate(-25.884 27.482)">
          <g id="Grupo_1101915" data-name="Grupo 1101915">
            <path id="Trazado_881286" data-name="Trazado 881286" d="M217.4,216.168c2.728,1.273,5.265,2.385,7.643,3.366v0s16.454,9.871,28.49,15.64c3.281,1.487,7.507,3.25,11.4,1.328,1.337-.659,4.344-3.984,3.643-6.9.077-.641-.791-1.571-1.11-2.018l-.071-.049c-1.432-.912-5.563-3.2-10.441-5.839l.049-.086c3.462,1.54,7.792,3.4,12.075,5.056,1.094.567,1.8.408,2.794,1.057.842.31,1.675.608,2.488.888a4.755,4.755,0,0,0,2.977-.865c1.347-.834,3.185-2.542,3.641-4.2a5.388,5.388,0,0,0-.065-4.515,5.552,5.552,0,0,0-1.257-2.191c-.071-.19-1.074-.688-1.1-.883-4.956-1.9-11.28-4.256-16.59-6.221,4.279.885,10.471,2.081,16.352,2.922a5.109,5.109,0,0,0,5.231-1.381,7.256,7.256,0,0,0-3.01-11.8,10.094,10.094,0,0,1-1.534-.233c-4.509-.634-9.424-1.3-13.618-1.865,3.888-.2,8.238-.49,12.269-.922a4.02,4.02,0,0,0,2.111-2.452c2.547-4.231-.185-10.476-5.457-10.662-2.508.237-8,.673-14.506,1.165-6.9-10.423-11.72-10.632-13.836-9.817S223.019,187.2,223.019,187.2l-45.174-8.746-5.622,28.965Z" transform="translate(-172.223 -174.402)" fill="#f9bf98"/>
          </g>
          <path id="Trazado_881287" data-name="Trazado 881287" d="M280.533,199.481a10.094,10.094,0,0,1-1.534-.233c-4.509-.634-9.424-1.3-13.618-1.865,3.888-.2,8.238-.49,12.269-.922a4.02,4.02,0,0,0,2.111-2.452c2.547-4.231-.185-10.476-5.457-10.662-2.508.237-8,.673-14.506,1.165-6.9-10.423-11.72-10.632-13.836-9.817S223.019,187.2,223.019,187.2l-45.174-8.746-5.622,28.965,45.174,8.746c2.728,1.273,5.265,2.385,7.643,3.366v0s16.454,9.871,28.49,15.64c3.281,1.487,7.507,3.25,11.4,1.328,1.337-.659,4.344-3.984,3.643-6.9.077-.641-.791-1.571-1.11-2.018l-.071-.049c-1.432-.912-5.563-3.2-10.441-5.839l.049-.086c3.462,1.54,7.792,3.4,12.075,5.056,1.094.567,1.8.41,2.794,1.057.842.31,1.675.608,2.488.888a4.755,4.755,0,0,0,2.977-.865c1.347-.834,3.185-2.542,3.641-4.2a5.388,5.388,0,0,0-.065-4.515,5.552,5.552,0,0,0-1.257-2.191c-.071-.19-1.074-.688-1.1-.883-4.956-1.9-11.28-4.256-16.59-6.221,4.279.885,10.471,2.081,16.352,2.922a5.109,5.109,0,0,0,5.231-1.381A7.256,7.256,0,0,0,280.533,199.481Z" transform="translate(-172.223 -174.402)" fill="#bcb1aa" opacity="0.25" style="mix-blend-mode: multiply;isolation: isolate"/>
        </g>
        <g id="Grupo_1101917" data-name="Grupo 1101917" transform="translate(44.571 30.175)">
          <path id="Trazado_881288" data-name="Trazado 881288" d="M275.838,195.39c-2.773-1.175-5.347-2.2-7.759-3.093v0s-16.8-9.281-29.032-14.616c-3.33-1.371-7.615-2.981-11.435-.924-1.314.708-4.2,4.135-3.4,7.024-.053.641.848,1.54,1.182,1.977l.073.045c1.463.861,5.675,3,10.641,5.464l-.045.088c-3.515-1.414-7.908-3.117-12.246-4.625-1.115-.526-1.816-.343-2.832-.957-.852-.279-1.695-.547-2.519-.8a4.743,4.743,0,0,0-2.944.971c-1.316.881-3.093,2.654-3.49,4.327a5.392,5.392,0,0,0,.228,4.509,5.552,5.552,0,0,0,1.333,2.146c.079.188,1.1.651,1.131.843,5.023,1.72,11.425,3.852,16.8,5.627-4.306-.732-10.537-1.706-16.444-2.34a5.108,5.108,0,0,0-5.18,1.567,7.258,7.258,0,0,0,3.429,11.69,9.662,9.662,0,0,1,1.542.178c4.528.473,9.465.967,13.677,1.379-3.878.335-8.216.783-12.23,1.357a4.022,4.022,0,0,0-2.021,2.526c-2.4,4.317.558,10.462,5.834,10.462,2.5-.328,7.975-.957,14.455-1.681,7.27,10.17,12.091,10.209,14.176,9.316s22.483-13.316,22.483-13.316l45.456,7.135,4.587-29.146Z" transform="translate(-208.101 -175.775)" fill="#f9bf98"/>
          <path id="Trazado_881289" data-name="Trazado 881289" d="M221.591,203.911l16.262-2.522-12.328,7.343S221.862,205.3,221.591,203.911Z" transform="translate(-195.1 -151.152)" fill="#f2b48b"/>
        </g>
        <path id="Trazado_881290" data-name="Trazado 881290" d="M230.6,183.552l-6.171,8.392,3.611.431-2.562,21.416,2.92.348,2.562-21.416,3.659.437Z" transform="translate(-147.793 -138.124)" fill="#fff"/>
        <path id="Trazado_881291" data-name="Trazado 881291" d="M234.142,214.823l6.171-8.392L236.7,206l2.562-21.416-2.92-.349-2.562,21.416-3.659-.437Z" transform="translate(-142.306 -137.467)" fill="#fff"/>
      </g>
    </g>
  </g>
</svg>
