<svg id="Grupo_1102012" data-name="Grupo 1102012" xmlns="http://www.w3.org/2000/svg" xmlns:xlink="http://www.w3.org/1999/xlink" width="122.932" height="122.932" viewBox="0 0 122.932 122.932">
  <defs>
    <clipPath id="clip-path">
      <rect id="Rect치ngulo_403572" data-name="Rect치ngulo 403572" width="122.932" height="122.932" fill="none"/>
    </clipPath>
  </defs>
  <g id="Grupo_1101952" data-name="Grupo 1101952" transform="translate(0 0)">
    <g id="Grupo_1101950" data-name="Grupo 1101950">
      <g id="Grupo_1101949" data-name="Grupo 1101949" clip-path="url(#clip-path)">
        <rect id="Rect치ngulo_403571" data-name="Rect치ngulo 403571" width="122.932" height="122.932" fill="#b1fafc"/>
        <g id="Grupo_1101947" data-name="Grupo 1101947" transform="translate(-32.527 23.415)">
          <g id="Grupo_1101946" data-name="Grupo 1101946">
            <path id="Trazado_881323" data-name="Trazado 881323" d="M426.09,222.994c6.514-5.932-.049-10.693-5.952-8.884-1.432.438-5.332,1.9-9.9,3.666l-.031-.082c7.413-3.548,19.133-9.518,22.182-13.157,5.656-6.755-1.485-10.588-7.093-8-2.48,1.143-12.638,6.781-20.232,11.03,6.233-4.85,17.952-14.343,20.313-18.921,4.037-7.831-3.77-10.005-8.674-6.254-2.247,1.718-11.458,9.935-17.992,15.8,4.892-6.368,10.879-14.736,11.851-18.708,2.1-8.558-6.005-8.847-9.9-4.053-2.4,2.959-14.365,20.376-17.948,25.609-.218-6.054-1.259-16.99-5.9-18.522-5-1.653-7.321,3.941-8.254,9.127s-.927,29.159-.927,29.159L319.8,258.168l16.923,19.555L383.9,241.16c2.415-1.1,4.613-2.168,6.633-3.2l0,0S420.848,227.768,426.09,222.994Z" transform="translate(-319.799 -172.314)" fill="#f9bf98"/>
            <path id="Trazado_881324" data-name="Trazado 881324" d="M355.334,212.909a.721.721,0,0,1-.079-.774c6.211-12.214-2.36-18.2-2.73-18.445l-.269-.183-.774-6.125a.717.717,0,1,1,1.422-.181l.693,5.5c1.569,1.231,9.086,7.983,2.934,20.081a.714.714,0,0,1-.962.314A.7.7,0,0,1,355.334,212.909Z" transform="translate(-289.27 -158.569)" fill="#e09a69"/>
            <path id="Trazado_881325" data-name="Trazado 881325" d="M373.437,210.538a.708.708,0,0,1-.138-.287c-3.863-16.715-14.742-25.087-14.852-25.169a.717.717,0,1,1,.862-1.145c.463.35,11.4,8.743,15.386,25.992a.717.717,0,0,1-1.259.609Z" transform="translate(-282.827 -161.251)" fill="#e09a69"/>
          </g>
          <path id="Trazado_881326" data-name="Trazado 881326" d="M420.138,214.11c-1.377.42-5.041,1.795-9.383,3.468l-.039-.128c7.429-3.57,18.7-9.355,21.678-12.913,5.656-6.755-1.485-10.588-7.093-8-2.362,1.088-11.688,6.252-19.13,10.414l-.1-.169c6.412-5.029,17.071-13.791,19.309-18.135,4.037-7.831-3.77-10.005-8.674-6.254-2.186,1.671-10.965,9.495-17.456,15.319l-.094-.1c4.8-6.288,10.467-14.274,11.409-18.129,2.1-8.558-6.005-8.847-9.9-4.053-2.321,2.857-13.55,19.192-17.548,25.024a.693.693,0,0,0-.43-.12c-.273-6.162-1.4-16.342-5.866-17.817-5-1.653-7.321,3.941-8.254,9.127s-.927,29.159-.927,29.159L319.8,258.168l16.923,19.555L383.9,241.16c2.415-1.1,4.613-2.168,6.633-3.2l0,0s30.31-10.192,35.551-14.966C432.6,217.061,426.041,212.3,420.138,214.11Z" transform="translate(-319.799 -172.314)" fill="#bcb1aa" opacity="0.25" style="mix-blend-mode: multiply;isolation: isolate"/>
        </g>
        <g id="Grupo_1101948" data-name="Grupo 1101948" transform="translate(37.12 39.744)">
          <path id="Trazado_881327" data-name="Trazado 881327" d="M399.1,182.266c-7.584-4.6-10.345,3.142-6.93,8.34.829,1.261,3.348,4.617,6.341,8.53l-.073.055c-5.524-6.158-14.612-15.79-19-17.691-8.14-3.529-9.84,4.5-5.758,9.19,1.807,2.074,10.131,10.288,16.389,16.419-6.455-4.638-18.954-13.249-24.054-14.213-8.725-1.646-8.631,6.553-3.615,10.219,2.3,1.679,12.853,8.23,20.378,12.864-7.547-2.9-17.342-6.278-21.464-6.072-8.882.446-6.879,8.381-1.139,10.765,3.546,1.473,23.791,8.024,29.87,9.986-5.8,1.964-16.106,6.137-16.283,11.075-.192,5.328,5.881,5.954,11.168,5.357s28.511-7.543,28.511-7.543l33.468,23.41,22.61-16.334L428.592,217.9c-1.748-2.023-3.4-3.845-4.972-5.5l0,0S405.2,185.964,399.1,182.266Z" transform="translate(-355.265 -180.63)" fill="#f9bf98"/>
          <path id="Trazado_881328" data-name="Trazado 881328" d="M371.739,217.1l-2.531-7.376s-4.1.846-3.329,4.76S371.739,217.1,371.739,217.1Z" transform="translate(-345.131 -152.593)" fill="#ffd8bd"/>
          <path id="Trazado_881329" data-name="Trazado 881329" d="M360.023,204.12l2.315-7.613s-4.318-.573-5.9,1.795S357.651,203.013,360.023,204.12Z" transform="translate(-354.586 -165.387)" fill="#ffd8bd"/>
          <path id="Trazado_881330" data-name="Trazado 881330" d="M361.895,196.1,366,189.056s-5.359-3.356-7.317.1S360.094,194.568,361.895,196.1Z" transform="translate(-352.54 -173.919)" fill="#ffd8bd"/>
          <path id="Trazado_881331" data-name="Trazado 881331" d="M365.692,189.264l6.846-5.683s-4.342-3.68-7.034-1.2S365.692,189.264,365.692,189.264Z" transform="translate(-346.505 -179.769)" fill="#ffd8bd"/>
          <path id="Trazado_881332" data-name="Trazado 881332" d="M374.783,188.722l7.246-4.3s-3.376-3.855-6.321-2.494S374.783,188.722,374.783,188.722Z" transform="translate(-337.108 -179.659)" fill="#ffd8bd"/>
        </g>
        <path id="Trazado_881333" data-name="Trazado 881333" d="M387.566,192.5c.034.135.328,2.048.434,2.948a11.038,11.038,0,0,1,9.773,5.8,10.538,10.538,0,1,1-18.86,9.41,10.391,10.391,0,0,1-1.092-4.674l3.1,1.559-.53-10.492-8.615,5.9,3.179,1.6A13.468,13.468,0,1,0,387.566,192.5Z" transform="translate(-302.232 -129.467)" fill="#fff"/>
      </g>
    </g>
  </g>
</svg>
