<svg id="Grupo_1102015" data-name="Grupo 1102015" xmlns="http://www.w3.org/2000/svg" xmlns:xlink="http://www.w3.org/1999/xlink" width="123.182" height="123.182" viewBox="0 0 123.182 123.182">
  <defs>
    <clipPath id="clip-path">
      <rect id="Rect치ngulo_403531" data-name="Rect치ngulo 403531" width="123.182" height="123.182" fill="none"/>
    </clipPath>
  </defs>
  <g id="Grupo_1101873" data-name="Grupo 1101873">
    <g id="Grupo_1101872" data-name="Grupo 1101872" clip-path="url(#clip-path)">
      <rect id="Rect치ngulo_403530" data-name="Rect치ngulo 403530" width="123.182" height="123.182" fill="#b1fafc"/>
      <g id="Grupo_1101869" data-name="Grupo 1101869" transform="translate(-13.158 40.403)">
        <path id="Trazado_881218" data-name="Trazado 881218" d="M180.733,321.278c4.591-7-2.574-9.829-7.58-6.767-1.214.742-4.455,3.014-8.239,5.714l-.047-.069c5.98-5.018,15.354-13.286,17.3-17.355,3.609-7.556-3.872-9.394-8.42-5.689-2.013,1.639-10.028,9.231-16.009,14.939,4.589-5.939,13.127-17.446,14.215-22.218,1.863-8.162-5.838-8.316-9.463-3.7-1.661,2.111-8.194,11.854-12.818,18.8,2.995-7.019,6.525-16.135,6.48-20.024-.1-8.371-7.619-6.72-10.067-1.387-1.511,3.294-8.4,22.153-10.456,27.816-1.633-5.521-5.179-15.338-9.809-15.651-4.994-.337-5.8,5.36-5.435,10.354s6.049,27.052,6.049,27.052L103.238,363.9l19.778,14.888,23.194-30.8c1.962-1.588,3.731-3.089,5.344-4.52l0,0S177.039,326.912,180.733,321.278Z" transform="translate(-103.238 -279.074)" fill="#f9bf98"/>
        <path id="Trazado_881219" data-name="Trazado 881219" d="M128.986,318.636a.676.676,0,0,1-.256-.693c2.826-12.712-6.48-16.189-6.877-16.33l-.291-.1-2.163-5.455a.681.681,0,1,1,1.267-.5l1.94,4.9c1.736.761,10.252,5.2,7.452,17.786a.679.679,0,0,1-.811.517A.666.666,0,0,1,128.986,318.636Z" transform="translate(-87.644 -263.543)" fill="#e09a69"/>
        <path id="Trazado_881220" data-name="Trazado 881220" d="M145.073,312.178a.7.7,0,0,1-.195-.23c-7.509-14.471-19.5-19.6-19.624-19.65a.681.681,0,0,1,.523-1.257c.51.21,12.56,5.346,20.311,20.279a.682.682,0,0,1-1.015.858Z" transform="translate(-82.338 -267.544)" fill="#e09a69"/>
      </g>
      <g id="Grupo_1101870" data-name="Grupo 1101870" transform="translate(51.729 54.384)">
        <path id="Trazado_881221" data-name="Trazado 881221" d="M180.14,287.818c-7.6-4.6-10.366,3.148-6.944,8.359.83,1.263,3.355,4.626,6.354,8.548l-.071.053c-5.537-6.169-14.642-15.823-19.036-17.727-8.156-3.534-9.86,4.514-5.769,9.211,1.812,2.078,10.151,10.309,16.423,16.45-6.468-4.646-18.992-13.276-24.1-14.24-8.743-1.651-8.648,6.564-3.623,10.24,2.3,1.682,12.879,8.247,20.421,12.891-7.564-2.9-17.377-6.293-21.509-6.084-8.9.447-6.893,8.4-1.141,10.787,3.554,1.476,23.839,8.04,29.931,10-5.817,1.968-16.137,6.151-16.316,11.1-.191,5.34,5.893,5.966,11.191,5.37s28.569-7.56,28.569-7.56l33.536,23.459,22.656-16.37-41.017-28.782c-1.753-2.027-3.41-3.853-4.984-5.513l0,0S186.254,291.523,180.14,287.818Z" transform="translate(-136.213 -286.179)" fill="#f9bf98"/>
        <path id="Trazado_881222" data-name="Trazado 881222" d="M152.7,322.662l-2.534-7.391s-4.115.846-3.337,4.77S152.7,322.662,152.7,322.662Z" transform="translate(-126.037 -258.026)" fill="#ffd8bd"/>
        <path id="Trazado_881223" data-name="Trazado 881223" d="M140.98,309.684l2.32-7.627s-4.327-.577-5.917,1.8S138.6,308.576,140.98,309.684Z" transform="translate(-135.532 -270.873)" fill="#ffd8bd"/>
        <path id="Trazado_881224" data-name="Trazado 881224" d="M142.851,301.669l4.116-7.06s-5.368-3.363-7.332.1S141.046,300.13,142.851,301.669Z" transform="translate(-133.477 -279.44)" fill="#ffd8bd"/>
        <path id="Trazado_881225" data-name="Trazado 881225" d="M146.643,294.83l6.86-5.695s-4.351-3.688-7.046-1.2S146.643,294.83,146.643,294.83Z" transform="translate(-127.417 -285.314)" fill="#ffd8bd"/>
        <path id="Trazado_881226" data-name="Trazado 881226" d="M155.733,294.287,163,289.977s-3.382-3.863-6.336-2.5S155.733,294.287,155.733,294.287Z" transform="translate(-117.98 -285.204)" fill="#ffd8bd"/>
      </g>
      <g id="Grupo_1101871" data-name="Grupo 1101871" transform="translate(21.034 0)">
        <path id="Trazado_881227" data-name="Trazado 881227" d="M155.725,258.541h12.668v50.307c0,7.283,3.707,20.112,9.27,19.626s18.847,4.876,15.449,10.008-7.725,3.589-11.124,6.678-3.707,9.445-10.506,9.51-10.494-8.1-17.3-6.641-15.327,10.941-22.56,6.641.927-13.219,5.87-17.544-8.341-.085-10.813-4.677,5.87-8.3,14.52-9.536,14.522-3.089,14.522-17.3Z" transform="translate(-115.168 -258.541)" fill="#7ccbdd"/>
        <path id="Trazado_881228" data-name="Trazado 881228" d="M144.631,292.614s-15.72.638-16.208-4.965S140.385,283.456,144.631,292.614Z" transform="translate(-113.071 -233.576)" fill="#7ccbdd"/>
        <path id="Trazado_881229" data-name="Trazado 881229" d="M153.043,297.726s2.107-9.748,6.48-12.662,1.068,6.33,1.068,6.33,7-8.361,10.563-2.353S160.55,297.767,153.043,297.726Z" transform="translate(-89.232 -233.424)" fill="#7ccbdd"/>
        <path id="Trazado_881230" data-name="Trazado 881230" d="M134.75,299.7s-14.61-3.707-14.124,2.623S129.148,306.573,134.75,299.7Z" transform="translate(-120.614 -219.757)" fill="#7ccbdd"/>
        <path id="Trazado_881231" data-name="Trazado 881231" d="M150.483,292.929s-1.023-17.29,6.655-18.506S158.551,288.545,150.483,292.929Z" transform="translate(-91.753 -243.238)" fill="#7ccbdd"/>
      </g>
    </g>
  </g>
</svg>
