<svg id="Grupo_1102016" data-name="Grupo 1102016" xmlns="http://www.w3.org/2000/svg" xmlns:xlink="http://www.w3.org/1999/xlink" width="122.931" height="122.932" viewBox="0 0 122.931 122.932">
  <defs>
    <clipPath id="clip-path">
      <rect id="Rect치ngulo_403563" data-name="Rect치ngulo 403563" width="122.931" height="122.932" fill="none"/>
    </clipPath>
  </defs>
  <g id="Grupo_1101936" data-name="Grupo 1101936">
    <g id="Grupo_1101935" data-name="Grupo 1101935" clip-path="url(#clip-path)">
      <rect id="Rect치ngulo_403562" data-name="Rect치ngulo 403562" width="122.931" height="122.932" fill="#b1fafc"/>
      <g id="Grupo_1101933" data-name="Grupo 1101933" transform="translate(-32.527 23.413)">
        <g id="Grupo_1101932" data-name="Grupo 1101932">
          <path id="Trazado_881303" data-name="Trazado 881303" d="M275.131,321.146c6.514-5.932-.047-10.693-5.952-8.886-1.432.438-5.332,1.9-9.9,3.666l-.029-.082c7.411-3.547,19.133-9.516,22.18-13.155,5.658-6.755-1.485-10.59-7.093-8.006-2.48,1.145-12.637,6.781-20.232,11.032,6.235-4.85,17.952-14.343,20.313-18.921,4.039-7.831-3.77-10.005-8.674-6.254-2.246,1.718-11.458,9.934-17.992,15.8,4.892-6.368,10.879-14.734,11.853-18.708,2.1-8.558-6.005-8.847-9.9-4.053-2.4,2.961-14.363,20.378-17.948,25.611-.218-6.056-1.259-16.99-5.9-18.522-5-1.653-7.319,3.941-8.254,9.127s-.925,29.157-.925,29.157l-47.85,37.366,16.923,19.557,47.18-36.563c2.415-1.1,4.615-2.17,6.634-3.2l0,0S269.891,325.92,275.131,321.146Z" transform="translate(-168.84 -270.464)" fill="#f9bf98"/>
          <path id="Trazado_881304" data-name="Trazado 881304" d="M204.375,311.06a.721.721,0,0,1-.079-.774c6.211-12.216-2.36-18.2-2.73-18.445l-.269-.183-.774-6.125a.717.717,0,0,1,1.422-.181l.7,5.5c1.567,1.231,9.086,7.983,2.934,20.081a.717.717,0,0,1-.964.314A.751.751,0,0,1,204.375,311.06Z" transform="translate(-138.311 -256.718)" fill="#e09a69"/>
          <path id="Trazado_881305" data-name="Trazado 881305" d="M222.478,308.689a.734.734,0,0,1-.137-.287c-3.863-16.717-14.742-25.087-14.852-25.169a.717.717,0,0,1,.862-1.145c.463.348,11.4,8.741,15.388,25.992a.718.718,0,0,1-1.261.609Z" transform="translate(-131.868 -259.4)" fill="#e09a69"/>
        </g>
        <path id="Trazado_881306" data-name="Trazado 881306" d="M269.179,312.26c-1.377.422-5.041,1.8-9.383,3.47l-.039-.128c7.429-3.572,18.7-9.357,21.678-12.913,5.658-6.755-1.485-10.59-7.093-8.006-2.362,1.09-11.686,6.254-19.131,10.416l-.1-.169c6.41-5.029,17.069-13.793,19.307-18.135,4.039-7.831-3.77-10.005-8.674-6.254-2.186,1.671-10.963,9.495-17.456,15.319l-.094-.1c4.8-6.288,10.467-14.276,11.411-18.131,2.1-8.558-6.005-8.847-9.9-4.053-2.321,2.859-13.55,19.194-17.548,25.026a.708.708,0,0,0-.43-.122c-.273-6.16-1.4-16.34-5.866-17.815-5-1.653-7.319,3.941-8.254,9.127s-.925,29.157-.925,29.157l-47.85,37.366,16.923,19.557,47.18-36.563c2.415-1.1,4.615-2.17,6.634-3.2l0,0s30.312-10.192,35.551-14.966C281.644,315.213,275.083,310.453,269.179,312.26Z" transform="translate(-168.84 -270.464)" fill="#bcb1aa" opacity="0.25" style="mix-blend-mode: multiply;isolation: isolate"/>
      </g>
      <path id="Trazado_881307" data-name="Trazado 881307" d="M191.348,309.992s3.792-6.871,11.213-7.981,14.789-6.282,17.026-9.269,7.551-11.1,12.582-12.772,17.615-5.872,19.572-12.024l6.015,10.345a29.616,29.616,0,0,0,10.48,8.108c6.712,3.075,8.949,11.093,11.185,15.612a40.114,40.114,0,0,0,6.71,8.931s-15.926,11.085-24.321,13.683-17.6,7.1-21.387,11-13.076,13.434-18.076,13.838a71.125,71.125,0,0,1-6.675-9.66c-2.8-5.033-5.033-11.641-9.506-14.208s-7.549-4.805-9.785-7.88S193.306,310.935,191.348,309.992Z" transform="translate(-179.676 -249.476)" fill="#fff"/>
      <g id="Grupo_1101934" data-name="Grupo 1101934" transform="translate(37.119 39.743)">
        <path id="Trazado_881308" data-name="Trazado 881308" d="M248.146,280.416c-7.584-4.6-10.347,3.142-6.932,8.342.829,1.261,3.348,4.617,6.341,8.53l-.071.053c-5.526-6.156-14.612-15.79-19-17.691-8.138-3.529-9.84,4.5-5.756,9.192,1.807,2.074,10.129,10.286,16.387,16.417-6.455-4.636-18.954-13.249-24.054-14.211-8.725-1.648-8.631,6.551-3.615,10.219,2.3,1.679,12.855,8.23,20.38,12.864-7.549-2.9-17.342-6.28-21.465-6.072-8.882.446-6.879,8.381-1.139,10.765,3.546,1.473,23.79,8.024,29.87,9.984-5.8,1.964-16.1,6.139-16.283,11.075-.19,5.33,5.881,5.954,11.17,5.359s28.509-7.545,28.509-7.545l33.468,23.41,22.61-16.334L277.635,316.05c-1.75-2.023-3.4-3.845-4.974-5.5l0,0S254.247,284.114,248.146,280.416Z" transform="translate(-204.306 -278.78)" fill="#f9bf98"/>
        <path id="Trazado_881309" data-name="Trazado 881309" d="M220.78,315.248l-2.529-7.376s-4.106.844-3.331,4.76S220.78,315.248,220.78,315.248Z" transform="translate(-194.172 -250.743)" fill="#ffd8bd"/>
        <path id="Trazado_881310" data-name="Trazado 881310" d="M209.064,302.27l2.315-7.611s-4.316-.575-5.9,1.795S206.694,301.164,209.064,302.27Z" transform="translate(-203.627 -263.536)" fill="#ffd8bd"/>
        <path id="Trazado_881311" data-name="Trazado 881311" d="M210.936,294.253l4.108-7.048s-5.357-3.354-7.317.1S209.137,292.719,210.936,294.253Z" transform="translate(-201.581 -272.068)" fill="#ffd8bd"/>
        <path id="Trazado_881312" data-name="Trazado 881312" d="M214.733,287.415l6.846-5.683s-4.342-3.68-7.032-1.2S214.733,287.415,214.733,287.415Z" transform="translate(-195.546 -277.918)" fill="#ffd8bd"/>
        <path id="Trazado_881313" data-name="Trazado 881313" d="M223.824,286.873l7.248-4.3s-3.376-3.855-6.323-2.494S223.824,286.873,223.824,286.873Z" transform="translate(-186.149 -277.808)" fill="#ffd8bd"/>
      </g>
    </g>
  </g>
</svg>
