<svg id="Grupo_1102020" data-name="Grupo 1102020" xmlns="http://www.w3.org/2000/svg" xmlns:xlink="http://www.w3.org/1999/xlink" width="122.932" height="122.932" viewBox="0 0 122.932 122.932">
  <defs>
    <clipPath id="clip-path">
      <rect id="Rectángulo_403568" data-name="Rectángulo 403568" width="122.932" height="122.932" fill="none"/>
    </clipPath>
  </defs>
  <g id="Grupo_1101942" data-name="Grupo 1101942">
    <g id="Grupo_1101941" data-name="Grupo 1101941" clip-path="url(#clip-path)">
      <rect id="Rectángulo_403566" data-name="Rectángulo 403566" width="122.932" height="122.932" fill="#b1fafc"/>
      <path id="Trazado_881314" data-name="Trazado 881314" d="M260.883,287.093h46.538c7.056,0,14.659,4.085,14.659,9.049v33.945h7.187v9.339H305.53v-8.878h7.655s2.015-26.029,0-28.042-4.194-5.581-9.944-5.581H260.883Z" transform="translate(-260.884 -231.025)" fill="#898989"/>
      <rect id="Rectángulo_403567" data-name="Rectángulo 403567" width="11.415" height="14.531" transform="translate(51.535 108.401)" fill="#7ccbdd"/>
      <path id="Trazado_881315" data-name="Trazado 881315" d="M308.983,271.7H276.159a3.563,3.563,0,1,0,0,7.126h13.534v23.023h5.756V278.828h13.534a3.563,3.563,0,1,0,0-7.126Z" transform="translate(-249.597 -245.858)" fill="#898989"/>
      <path id="Trazado_881316" data-name="Trazado 881316" d="M272.233,307.008s3.792-6.871,11.213-7.981,14.789-6.28,17.026-9.269,7.549-11.1,12.582-12.772,17.615-5.871,19.573-12.024l6.015,10.345a29.634,29.634,0,0,0,10.48,8.11c6.71,3.075,8.947,11.091,11.185,15.61a40.046,40.046,0,0,0,6.71,8.931s-15.928,11.087-24.321,13.683-17.6,7.1-21.387,11-13.078,13.434-18.076,13.84a71.014,71.014,0,0,1-6.675-9.662c-2.8-5.033-5.033-11.639-9.506-14.208s-7.551-4.805-9.787-7.88S274.189,307.951,272.233,307.008Z" transform="translate(-249.945 -252.352)" fill="#fff"/>
      <g id="Grupo_1101940" data-name="Grupo 1101940" transform="translate(47.734 33.884)">
        <path id="Trazado_881317" data-name="Trazado 881317" d="M329.029,277.432c-7.584-4.6-10.345,3.142-6.93,8.342.829,1.261,3.348,4.617,6.341,8.53l-.071.053c-5.526-6.156-14.614-15.79-19-17.691-8.14-3.527-9.84,4.5-5.758,9.192,1.807,2.074,10.131,10.288,16.389,16.419-6.455-4.638-18.954-13.249-24.054-14.213-8.725-1.648-8.631,6.551-3.615,10.219,2.3,1.679,12.853,8.23,20.378,12.864-7.547-2.9-17.342-6.28-21.464-6.072-8.882.446-6.879,8.381-1.139,10.765,3.547,1.473,23.791,8.024,29.87,9.984-5.8,1.964-16.107,6.139-16.283,11.077-.192,5.328,5.881,5.952,11.168,5.357s28.511-7.545,28.511-7.545l33.468,23.412,22.61-16.336-40.936-28.724c-1.748-2.023-3.4-3.845-4.972-5.5l0,0S335.13,281.129,329.029,277.432Z" transform="translate(-285.191 -275.796)" fill="#f9bf98"/>
        <path id="Trazado_881318" data-name="Trazado 881318" d="M301.665,312.264l-2.531-7.376s-4.1.844-3.329,4.76S301.665,312.264,301.665,312.264Z" transform="translate(-275.057 -247.759)" fill="#ffd8bd"/>
        <path id="Trazado_881319" data-name="Trazado 881319" d="M289.949,299.287l2.315-7.613s-4.318-.573-5.9,1.795S287.577,298.18,289.949,299.287Z" transform="translate(-284.512 -260.553)" fill="#ffd8bd"/>
        <path id="Trazado_881320" data-name="Trazado 881320" d="M291.821,291.269l4.108-7.046s-5.359-3.356-7.317.1S290.02,289.735,291.821,291.269Z" transform="translate(-282.466 -269.085)" fill="#ffd8bd"/>
        <path id="Trazado_881321" data-name="Trazado 881321" d="M295.618,284.431l6.846-5.683s-4.342-3.68-7.034-1.2S295.618,284.431,295.618,284.431Z" transform="translate(-276.431 -274.935)" fill="#ffd8bd"/>
        <path id="Trazado_881322" data-name="Trazado 881322" d="M304.71,283.889l7.248-4.3s-3.376-3.855-6.325-2.494S304.71,283.889,304.71,283.889Z" transform="translate(-267.034 -274.825)" fill="#ffd8bd"/>
      </g>
    </g>
  </g>
</svg>
