<svg id="Grupo_1102021" data-name="Grupo 1102021" xmlns="http://www.w3.org/2000/svg" xmlns:xlink="http://www.w3.org/1999/xlink" width="122.931" height="122.931" viewBox="0 0 122.931 122.931">
  <defs>
    <clipPath id="clip-path">
      <rect id="Rect치ngulo_403551" data-name="Rect치ngulo 403551" width="122.931" height="122.931" fill="none"/>
    </clipPath>
  </defs>
  <g id="Grupo_1101911" data-name="Grupo 1101911">
    <g id="Grupo_1101910" data-name="Grupo 1101910" clip-path="url(#clip-path)">
      <rect id="Rect치ngulo_403550" data-name="Rect치ngulo 403550" width="122.931" height="122.931" fill="#b1fafc"/>
      <g id="Grupo_1101907" data-name="Grupo 1101907" transform="translate(57.924 55.484)">
        <path id="Trazado_881267" data-name="Trazado 881267" d="M366,316.749c-1.278-8.258,6.4-7.865,9.681-3.018.8,1.176,2.8,4.579,5.125,8.6l.071-.043c-3.36-7.03-8.462-18.414-8.546-22.915-.157-8.354,7.4-6.934,10-1.689,1.153,2.321,5.3,12.529,8.373,20.185-1.716-7.289-4.719-21.273-3.737-26.057,1.679-8.185,8.738-5.143,10.127.546.636,2.6,2.547,14.153,3.878,22.373.179-7.613.738-17.353,2.384-20.866,3.546-7.566,9.7-2.957,9.718,2.9.014,3.617-1.522,23.592-1.989,29.591,3.765-4.342,11.04-11.8,15.376-10.166,4.678,1.756,3.058,7.264.66,11.649s-16.67,22.08-16.67,22.08l8.346,37.566-24.118,5.357-8.344-37.566c-1.127-2.253-2.115-4.348-2.991-6.313h0S367.029,323.393,366,316.749Z" transform="translate(-365.86 -286.795)" fill="#f9bf98"/>
        <path id="Trazado_881268" data-name="Trazado 881268" d="M380.353,324.313a.677.677,0,0,0,.516-.522c2.684-12.717,12.574-12.03,12.994-11.994l.306.026,4.218-4.061a.68.68,0,0,0-.943-.98l-3.788,3.649c-1.889-.024-11.458.487-14.117,13.08a.681.681,0,0,0,.524.805A.652.652,0,0,0,380.353,324.313Z" transform="translate(-352.689 -267.717)" fill="#e09a69"/>
        <path id="Trazado_881269" data-name="Trazado 881269" d="M372.655,311.793a.7.7,0,0,0,.273-.13c12.8-10.044,25.813-9.748,25.943-9.744a.68.68,0,0,0,.045-1.359c-.55-.018-13.618-.33-26.828,10.033a.681.681,0,0,0,.567,1.2Z" transform="translate(-360.108 -273.534)" fill="#e09a69"/>
      </g>
      <g id="Grupo_1101908" data-name="Grupo 1101908" transform="translate(-1.103 31.337)">
        <path id="Trazado_881270" data-name="Trazado 881270" d="M401.672,309.255c2.9-7.835-4.7-8.986-8.882-4.894-1.015.994-3.662,3.927-6.739,7.4l-.063-.057c4.7-6.217,11.973-16.35,12.955-20.743,1.824-8.153-5.862-8.273-9.459-3.654-1.593,2.044-7.694,11.217-12.24,18.1,3.138-6.8,8.876-19.9,8.87-24.784-.008-8.356-7.533-6.785-10.031-1.49-1.143,2.425-5.326,13.359-8.273,21.147,1.347-7.5,2.747-17.151,1.836-20.921-1.962-8.122-8.911-4.837-10.1.9-.736,3.541-3.224,23.421-3.967,29.389-2.82-5.006-8.458-13.764-13.031-13.033-4.935.785-4.45,6.508-2.977,11.282s11.92,24.967,11.92,24.967L335.8,368l22.559,10.07,15.688-35.141c1.553-1.981,2.942-3.837,4.193-5.587h0S399.337,315.557,401.672,309.255Z" transform="translate(-335.801 -274.499)" fill="#f9bf98"/>
        <path id="Trazado_881271" data-name="Trazado 881271" d="M360.008,312.941a.679.679,0,0,1-.4-.617c-.088-13-9.915-14.3-10.333-14.349l-.306-.035-3.321-4.823a.68.68,0,1,1,1.119-.772l2.983,4.332c1.856.353,11.13,2.767,11.217,15.639a.68.68,0,0,1-.675.683A.672.672,0,0,1,360.008,312.941Z" transform="translate(-326.428 -257.583)" fill="#e09a69"/>
        <path id="Trazado_881272" data-name="Trazado 881272" d="M374.224,303.06a.668.668,0,0,1-.24-.181c-10.535-12.4-23.345-14.712-23.474-14.734a.68.68,0,0,1,.228-1.341c.544.092,13.41,2.4,24.281,15.2a.68.68,0,0,1-.8,1.06Z" transform="translate(-322.168 -262.649)" fill="#e09a69"/>
      </g>
      <g id="Grupo_1101909" data-name="Grupo 1101909" transform="translate(39.293 12.939)">
        <path id="Trazado_881273" data-name="Trazado 881273" d="M376.521,273.863c-1.822,9.418-7.5,9.493-7.5,9.493,6.851,2.741,7.5,12.729,7.5,12.729s.644-9.987,7.5-12.729C384.018,283.356,378.343,283.281,376.521,273.863Z" transform="translate(-344.18 -256.714)" fill="#fff"/>
        <path id="Trazado_881274" data-name="Trazado 881274" d="M370.6,265.13c-1.455,7.531-5.993,7.59-5.993,7.59,5.479,2.191,5.993,10.176,5.993,10.176s.516-7.984,6-10.176C376.6,272.72,372.061,272.661,370.6,265.13Z" transform="translate(-348.432 -265.13)" fill="#fff"/>
        <path id="Trazado_881275" data-name="Trazado 881275" d="M364.256,297.385c-1.457,7.531-5.993,7.59-5.993,7.59,5.477,2.192,5.993,10.178,5.993,10.178s.516-7.987,6-10.178C370.252,304.975,365.713,304.916,364.256,297.385Z" transform="translate(-354.55 -234.045)" fill="#fff"/>
        <path id="Trazado_881276" data-name="Trazado 881276" d="M368.009,303.412c-.927,4.784-3.81,4.821-3.81,4.821,3.482,1.392,3.81,6.465,3.81,6.465s.326-5.072,3.808-6.465C371.816,308.233,368.934,308.2,368.009,303.412Z" transform="translate(-348.829 -228.237)" fill="#fff"/>
        <path id="Trazado_881277" data-name="Trazado 881277" d="M385.47,266.822C383,279.6,375.3,279.7,375.3,279.7c9.3,3.719,10.174,17.269,10.174,17.269s.874-13.55,10.172-17.269C395.642,279.7,387.94,279.6,385.47,266.822Z" transform="translate(-338.135 -263.499)" fill="#fff"/>
        <path id="Trazado_881278" data-name="Trazado 881278" d="M368.906,277.628a1.857,1.857,0,1,1-1.856-1.858A1.856,1.856,0,0,1,368.906,277.628Z" transform="translate(-347.871 -254.876)" fill="#fff"/>
        <path id="Trazado_881279" data-name="Trazado 881279" d="M377.718,269.209a1.856,1.856,0,1,1-1.856-1.856A1.857,1.857,0,0,1,377.718,269.209Z" transform="translate(-339.377 -262.988)" fill="#fff"/>
        <path id="Trazado_881280" data-name="Trazado 881280" d="M387.149,285.4a1.857,1.857,0,1,1-1.858-1.858A1.857,1.857,0,0,1,387.149,285.4Z" transform="translate(-330.29 -247.388)" fill="#fff"/>
        <path id="Trazado_881281" data-name="Trazado 881281" d="M361.976,311.017a1.857,1.857,0,1,1-1.858-1.858A1.857,1.857,0,0,1,361.976,311.017Z" transform="translate(-354.55 -222.698)" fill="#fff"/>
        <path id="Trazado_881282" data-name="Trazado 881282" d="M367.135,314.706a1.857,1.857,0,1,1-1.856-1.856A1.857,1.857,0,0,1,367.135,314.706Z" transform="translate(-349.578 -219.141)" fill="#fff"/>
        <path id="Trazado_881283" data-name="Trazado 881283" d="M392.064,280.432a1.857,1.857,0,1,1-1.856-1.856A1.855,1.855,0,0,1,392.064,280.432Z" transform="translate(-325.553 -252.172)" fill="#fff"/>
        <path id="Trazado_881284" data-name="Trazado 881284" d="M360.085,271.1a1.857,1.857,0,1,1-1.858-1.856A1.857,1.857,0,0,1,360.085,271.1Z" transform="translate(-356.372 -261.165)" fill="#fff"/>
        <path id="Trazado_881285" data-name="Trazado 881285" d="M390.173,267.733a1.857,1.857,0,1,1-1.856-1.856A1.856,1.856,0,0,1,390.173,267.733Z" transform="translate(-327.376 -264.41)" fill="#fff"/>
      </g>
    </g>
  </g>
</svg>
