<svg id="OBJECT" viewBox="0 0 512 512" xmlns="http://www.w3.org/2000/svg"><g><path d="m480.91 394.5c.1-.63.2-1.26.29-1.9 4.77-32.85-3.25-62.32-23.2-85.2-42.39-48.64-79.07-44.41-83.11-43.77l4.71 29.63s-.13.03-.39.05c1-.1 24.87-2.12 56.17 33.79 14.05 16.12 19.51 36.41 16.25 60.32v.07c-.56 4.01-3.98 7-8.03 7h-220.61c-14.82 0-27.59 10.46-30.5 25-2.91 14.54-15.67 25-30.5 25h-129.49c-13.81 0-25 11.19-25 25 0 13.81 11.19 25 25 25h260.94c12.72 0 24.15-7.74 28.87-19.55l12.18-30.45h90v40c0 11.05 8.95 20 20 20 11.05 0 20-8.95 20-20v-40h16.41c13.03 0 23.59-10.56 23.59-23.59v-2.83c0-13.03-10.56-23.59-23.59-23.59z" fill="#084963"/><path d="m88.77 40.6h232.12v273.08h-232.12z" fill="#f83880" transform="matrix(-.174 .985 -.985 -.174 414.85 6.18)"/><g fill="#ffa539"><rect height="40.96" rx="15" transform="matrix(-.174 .985 -.985 -.174 623.19 -114.1)" width="286.74" x="216.1" y="183.93"/><rect height="40.96" rx="15" transform="matrix(-.174 .985 -.985 -.174 414.85 6.18)" width="286.74" x="61.46" y="156.66"/><rect height="40.96" rx="15" transform="matrix(-.174 .985 -.985 -.174 206.5 126.47)" width="286.74" x="-93.18" y="129.39"/></g><circle cx="204.83" cy="177.14" fill="#f5eeec" r="68.27"/><path d="m200.09 204.03c-14.85-2.62-24.77-16.78-22.15-31.64 2.62-14.85 16.78-24.77 31.64-22.15 14.85 2.62 35.6 34.01 35.6 34.01s-30.23 22.4-45.08 19.78z" fill="#084963"/><path d="m366.18 259.35h54.62v54.62h-54.62z" fill="#f83880" transform="matrix(-.174 .985 -.985 -.174 744.13 -51.07)"/></g><g fill="#053544"><path d="m489.32 388.15c3.45-32.87-5.36-62.4-25.65-85.68-10.37-11.9-21.27-21.7-32.46-29.2l1.31-7.45c.35-1.96-.1-3.98-1.24-5.6-1.14-1.63-2.88-2.74-4.84-3.08l-46.4-8.18 29.29-166.1c2.15-12.22-6.03-23.91-18.25-26.06l-10.8-1.9c-5.92-1.05-11.89.28-16.81 3.73s-8.21 8.61-9.25 14.52l-.84 4.74-99.53-17.55.84-4.74c2.15-12.22-6.03-23.91-18.25-26.07l-10.8-1.9c-5.92-1.05-11.89.28-16.81 3.73s-8.21 8.61-9.25 14.52l-.84 4.74-99.52-17.55.83-4.74c1.04-5.92-.28-11.89-3.73-16.81s-8.6-8.21-14.52-9.25l-10.8-1.9c-12.21-2.15-23.91 6.03-26.07 18.25l-44.58 252.81c-1.04 5.92.28 11.89 3.73 16.81s8.6 8.21 14.52 9.25l10.8 1.9c1.32.23 2.62.34 3.92.34 10.71 0 20.23-7.69 22.15-18.59l.84-4.74 99.52 17.55-.84 4.74c-2.15 12.22 6.03 23.91 18.25 26.06l10.8 1.9c1.32.23 2.62.34 3.92.34 10.71 0 20.23-7.69 22.15-18.6l.84-4.74 99.53 17.55-.84 4.74c-2.15 12.22 6.03 23.91 18.25 26.07l10.8 1.9c1.32.23 2.63.34 3.92.34 10.71 0 20.22-7.69 22.15-18.59l3.21-18.18 46.4 8.18c.44.08.88.12 1.31.12 2.23 0 4.31-1 5.7-2.64 2.82 2.74 5.62 5.71 8.38 8.88 12.56 14.41 17.43 32.71 14.46 54.45-.04.29-.29.51-.59.51h-220.61c-18.34 0-34.25 13.05-37.85 31.03-2.2 10.99-11.93 18.97-23.14 18.97h-129.53c-17.92 0-32.5 14.58-32.5 32.5s14.58 32.5 32.5 32.5h260.95c15.88 0 29.94-9.52 35.84-24.26l10.29-25.74h77.42v32.5c0 15.16 12.34 27.5 27.5 27.5s27.5-12.34 27.5-27.5v-32.5h8.92c17.14 0 31.08-13.95 31.08-31.09v-2.83c0-14.23-9.61-26.26-22.68-29.93zm-274.98-339.68c.35-1.97 1.44-3.69 3.08-4.84s3.63-1.59 5.6-1.24l10.79 1.9c4.07.72 6.8 4.62 6.08 8.69l-9.33 52.92c-4.03-1.45-8.23-2.6-12.59-3.37-4.33-.76-8.67-1.13-12.98-1.15l9.33-52.91zm-173.65 230.08c-.72 4.07-4.61 6.8-8.69 6.08l-10.8-1.9c-1.97-.35-3.69-1.44-4.84-3.08s-1.59-3.63-1.24-5.6l44.58-252.85c.35-1.97 1.44-3.69 3.08-4.84s3.63-1.59 5.6-1.24l10.8 1.9c1.97.35 3.69 1.44 4.84 3.08s1.59 3.63 1.24 5.6l-44.58 252.84zm117.74.65-99.52-17.55 37.69-213.83 99.52 17.55-6.62 37.54c-9.98 2.06-19.54 6.14-28.14 12.16-16.58 11.61-27.65 28.98-31.16 48.91-5.54 31.41 9.24 61.78 34.84 77.62l-6.63 37.59zm36.9 26.62c-.72 4.07-4.62 6.8-8.69 6.08l-10.8-1.9c-4.07-.72-6.8-4.62-6.08-8.69l9.33-52.92c4.03 1.45 8.23 2.6 12.59 3.37s8.69 1.14 12.98 1.15l-9.33 52.9zm-1.05-68.82c-33-5.82-55.11-37.4-49.29-70.4 2.82-15.99 11.69-29.92 24.99-39.23s29.43-12.88 45.41-10.07c33 5.82 55.11 37.4 49.3 70.4-5.82 33-37.4 55.11-70.4 49.3zm118.78 69.47-99.53-17.55 6.63-37.58c29.48-6.13 53.75-29.62 59.29-61.03s-9.24-61.78-34.84-77.62l6.63-37.59 99.53 17.55-37.7 213.82zm36.9 26.62c-.72 4.07-4.62 6.8-8.69 6.08l-10.8-1.9c-4.07-.72-6.8-4.62-6.08-8.69l44.58-252.84c.35-1.97 1.44-3.69 3.08-4.84s3.63-1.59 5.6-1.24l10.8 1.9c4.07.72 6.8 4.62 6.08 8.69l-44.58 252.84zm20.58-30.35 6.88-39.02 39.02 6.88-6.88 39.01-39.02-6.88zm126.45 118.18c0 8.87-7.22 16.09-16.08 16.09h-16.42c-4.14 0-7.5 3.36-7.5 7.5v40c0 6.89-5.61 12.5-12.5 12.5s-12.5-5.61-12.5-12.5v-40c0-4.14-3.36-7.5-7.5-7.5h-160c-4.14 0-7.5 3.36-7.5 7.5s3.36 7.5 7.5 7.5h58.92l-8.07 20.17c-3.6 9.01-12.21 14.83-21.91 14.83h-260.93c-9.65 0-17.5-7.85-17.5-17.5s7.85-17.5 17.5-17.5h129.5c18.34 0 34.25-13.05 37.85-31.03 2.2-10.99 11.93-18.97 23.14-18.97h220.61c7.76 0 14.4-5.79 15.46-13.56 3.57-26.15-2.49-48.44-18.02-66.26-5.12-5.88-10.39-11.13-15.7-15.7l2.97-16.86c8.2 6.18 16.26 13.78 24.04 22.71 18.46 21.18 25.87 48.57 21.43 79.21-.09.6-.18 1.2-.27 1.79-.34 2.17.28 4.38 1.7 6.04 1.42 1.67 3.51 2.63 5.7 2.63 8.87 0 16.08 7.22 16.08 16.08z"/><path d="m251.43 180.12c-3.76-5.69-23.39-34.23-40.55-37.26-18.91-3.34-36.99 9.33-40.32 28.24-1.61 9.16.43 18.39 5.77 26.01s13.31 12.7 22.47 14.31c1.19.21 2.44.31 3.73.31 17.24 0 42.02-17.67 47.12-21.45 3.2-2.37 3.99-6.84 1.79-10.16zm-50.04 16.53c-5.21-.92-9.75-3.81-12.79-8.15-3.04-4.33-4.2-9.59-3.28-14.8 1.69-9.6 10.07-16.37 19.5-16.37 1.14 0 2.29.1 3.45.3 6.66 1.18 18.32 13.88 26.43 24.78-11.33 7.47-26.63 15.4-33.31 14.24z"/></g></svg>